/* XPM */
static char *_090d5aeef534372c9337d55f49e49f1hW0UyAHySFLeGDrR[] = {
/* columns rows colors chars-per-pixel */
"64 64 75 1 ",
"  c None",
". c #1D2021",
"X c #1E2122",
"o c #1F2223",
"O c #202324",
"+ c #212425",
"@ c #222526",
"# c #242728",
"$ c #242829",
"% c #25292A",
"& c #262A2B",
"* c #272B2C",
"= c #282C2D",
"- c #292D2E",
"; c #2A2E2F",
": c #2B2F30",
"> c #2C3031",
", c #2C3132",
"< c #2D3233",
"1 c #2E3334",
"2 c #2F3435",
"3 c #303536",
"4 c #313637",
"5 c #323738",
"6 c #333839",
"7 c #34393A",
"8 c #343A3B",
"9 c #353B3C",
"0 c #363C3D",
"q c #373D3E",
"w c #383E3F",
"e c #393F40",
"r c #3A4041",
"t c #3B4142",
"y c #3C4243",
"u c #3C4244",
"i c #3D4345",
"p c #3E4446",
"a c #3F4547",
"s c #404648",
"d c #414749",
"f c #42484A",
"g c #43494B",
"h c #444A4C",
"j c #454B4D",
"k c #454C4E",
"l c #464D4F",
"z c #474E50",
"x c #484F51",
"c c #495052",
"v c #4A5153",
"b c #4B5254",
"n c #4C5355",
"m c #4D5456",
"M c #4D5557",
"N c #4E5658",
"B c #4F5759",
"V c #50585A",
"C c #51595B",
"Z c #525A5C",
"A c #535B5D",
"S c #555D5F",
"D c #555E60",
"F c #5A6365",
"G c #646E70",
"H c #656F71",
"J c #656F72",
"K c #6A7477",
"L c #6B7578",
"P c #6C7679",
"I c #6D777A",
"U c #6E797C",
"Y c #6F7A7D",
"T c #707B7E",
"R c #717C7F",
/* pixels */
"2222222223213<:$                              :11322222222222222",
"mmmmmmmmmmmmNaq$                              aVmmmmmmmmmmmmmmmm",
"mmvvvvvvvvvbnu7$                              uVvvvvvvvvvvvvvvnn",
"udbbvvvvvvvvbu7$                              uNvvvvvvvvvvvvbmhy",
"21aNmnnnnnnmmu7$                              uNvvvvvvvvvvvbba32",
"vu=wtqwwwwwet97$                              dVxvvvvvvvvvvna=yv",
"mN9<dhffffffhhyo                              7VNvvvvvvvvvbx5wNm",
"xmx7zNnnnnnnbmmtO                              SfVnvvvvvvvbkqvnv",
"vnh7knvvvvvvvvvNv2                              Uqvmnbbbbbmzqkbv",
"VVv7kbvvvvvvvvvvmS3                              Ftauteeeetw2xAV",
"tt73vbvvvvvvvvvvvVq                              Ge3dkfffffvw5yt",
"qtqdbvvvvvvvvvvvvN7                              Kt7zNbbbbbNkqeq",
"dhhvvvvvvvvvvvxvvN7                              Pt7knvvvvvvvhhd",
"67:1xnvvvvvxvvxvvN7                              Ut7hnvvvvnv3<76",
"NAd=knvvvvvvvvvvvN7                              Rt5vNmmmmVb<aAN",
"bNu<knvvvvvxvvvvvVq                              Re3qyttttty<uNb",
"bNu<knvvvvvvvvvxnS2                              Kuhadddddfa<aNb",
"bNu<knvvvvvvvvvNN3                              GwmmmnnnnnNv<uNb",
"bNu<vNmmmmmmnmNf*                              VfVbvvvvvvvnz<uNb",
"bNu<ffddddddfvf+                              fVNvvvvvvvvvnz<uNb",
"bNu<adaddaafu57$                              hVxvvvvvvvvvnz<uNb",
"bNu:kVmmmmmVk3q$                              dmvvvvvvvvvvnz<uNb",
"bNu:hnvvvvvnf3q$                              dmvvvvvvvvvvnz<uNb",
"bNu<vVmmmmmVk1q                              Rdmvvvvvvvvvvnz<uNb",
"bNu<auuuuuuaw29                              Rfmvvvvvvvvvvnz<uNb",
"bNu:udaaaaaafkeo                              uSnxvvvvvvvvnz<uNb",
"bNu=kVmmmmmmmmn9+                              3nVvvvvvvvvnz<uNb",
"bNu=hmvvvvvvvxnVa+                              kdmmnmmmmmNn3uNb",
"bNu=hmvvvvvvvvvvVN*                              yufdyytttyu<uNb",
"bNu=hmvvvvvvvvvvxV7                              Gq5fhfdddhd<uNb",
"bNu=hmvvvvvvvvvvvN3                              Pw7vmnnnnNv1uNb",
"bNu=hmvvvvvvvvvvvN3                              Tw7zbvvvvnz<uNb",
"bNu=hmvvvvvvvvvvvN3                              Rw7zbvvvvnz<uNb",
"bNu:hnvvvvvvvvvvvN3*                              q7bNmmmmNv1uNb",
"bNu:hmvvvvvvvvvvvN3*                              e2udaaaada<uNb",
"bNu:hmvvvvvvvvvxvS7                              dqtuyttttyy<uNb",
"bNu:hnvvvvvvvvxmVt                              L1kmNmmmmmVn2uNb",
"bNu:zNbbbbbbbbNv1o                              9mmvvvvvvvnx1uNb",
"bNu<hhfffffffvk$                              RkVbxvvvvxvvnx1uNb",
"bNu<uuuuuuuuaq6+                              aAvvvvvvvvvvnx1uNb",
"bNu<vNnnnnnnVq3$                              uNvvvvvvvvvvnx1uNb",
"bNu:znvvvvvvnq5$                              uNvvvvvvvvvvnx1uNb",
"bNu<xmvvvvvvmq5$                              uNvvvvvvvvvvnx1uNb",
"bNu<kxkkkkkkx63$                              aNvvvvvvvvvvnx1uNb",
"bNu<twqqqqqqqteo                              uSvxvvvvvvvvnx1uNb",
"bNu<zbxxxxxxxmn5                              RtVnxvvvvvvvnx1uNb",
"bNu<zmvvvvvvvvnVto                              7Nnvvvvvvvnx1uNb",
"VDd<knvvvvvvvvxvVv#                              7mNmmmmmmNb1fDV",
"qw::vnvvvvxvvvvxzA5                              Ruaytttttyu:<wq",
"9wqfnvvvvvvxvvvvvN3*                              93hfffffdhhww9",
"uddxvvvvvvvvvvvvvN3*                              9qmmnnnnnnxddu",
"99<:kmvvvvvvvvvvvN3*                              q9vvvvvvnk<<q9",
"VSf=fmvvvvvvvvvvvN3*                              q9nnbbbbmh=fDV",
"vNu=fmvvvvvvvvvvvN3*                              93kkhhhhkf<uNv",
"vNu=fmvvvvvvvvvxvD5                              Ktuytttttyt:uNv",
"vNu=fnvvvvvvvvvNNy                              T2bNvvvvvvmk<uNv",
"xVa<bNmmmmmmmmNh$                              KeNnvvvvvvvnk=aVv",
"Nm22fdaaaaaaafd$                              ezVbxvvvvvvvbx77mN",
"q31autyyyyyyut5*                              vVxvvvvvvvvvvbh35w",
"67kVmmmmmmmmVk6=                              hmvvvvvvvvvvvvnh96",
"bbbvvvvvvvvvnh7=                              hmvvvvvvvvvvvvvnvv",
"nnbbbbbbbbvvmh7=                              kNvvvbbbbbbbbbbbnn",
"vvvvvvvvvvbnNk7=                              hNnnnbvvvvvvvvvvvv",
"<<<<<<<<<<<12<=*                              :<111<<<<<<<<<<<<<"
};
