/* XPM */
static char *_18a6f5e2d8b4b99d2bf6b43a038d919tMEDjP4O0xJxj4ap[] = {
/* columns rows colors chars-per-pixel */
"64 64 73 1 ",
"  c None",
". c #1D2021",
"X c #1E2122",
"o c #1F2223",
"O c #202324",
"+ c #212425",
"@ c #222526",
"# c #242728",
"$ c #242829",
"% c #25292A",
"& c #262A2B",
"* c #272B2C",
"= c #292D2E",
"- c #2A2E2F",
"; c #2B2F30",
": c #2C3031",
"> c #2C3132",
", c #2D3233",
"< c #2E3334",
"1 c #2F3435",
"2 c #303536",
"3 c #313637",
"4 c #323738",
"5 c #333839",
"6 c #34393A",
"7 c #343A3B",
"8 c #353B3C",
"9 c #363C3D",
"0 c #373D3E",
"q c #383E3F",
"w c #393F40",
"e c #3A4041",
"r c #3B4142",
"t c #3C4243",
"y c #3C4244",
"u c #3D4345",
"i c #3E4446",
"p c #3F4547",
"a c #404648",
"s c #414749",
"d c #42484A",
"f c #43494B",
"g c #444A4C",
"h c #454B4D",
"j c #454C4E",
"k c #464D4F",
"l c #474E50",
"z c #484F51",
"x c #495052",
"c c #4A5153",
"v c #4B5254",
"b c #4C5355",
"n c #4D5456",
"m c #4D5557",
"M c #4E5658",
"N c #4F5759",
"B c #50585A",
"V c #51595B",
"C c #525A5C",
"Z c #555D5F",
"A c #555E60",
"S c #5A6365",
"D c #646E70",
"F c #656F71",
"G c #656F72",
"H c #6A7477",
"J c #6B7578",
"K c #6C7679",
"L c #6D777A",
"P c #6E797C",
"I c #6F7A7D",
"U c #707B7E",
"Y c #717C7F",
/* pixels */
"1121<2>;$                                            ;<<21111111",
"nnnnnNp9$                                            pBnnnnnnnnn",
"ccccvby7$                                            yBccccccccc",
"cccccvy7$                                            yNccccccccc",
"bbbbnny7$                                            yNccccccccc",
"qqqqwe87$                                            aBzcccccccc",
"dddddhhto                                            7BNcccccccc",
"bbbbbvnneO                                            ZdBbcccccc",
"ccccczzcBc1                                            P9cnbvvvv",
"cccccccccnZ2                                            Sepyewww",
"ccccccccccB9                                            Gw2ajddd",
"ccccccccccN7                                            He7lNvvv",
"ccccccccccN7                                            Ke7jbccc",
"ccccccccccN7                                            Pe7hbccc",
"ccccccccccN7                                            Ye4cNnnn",
"ccccczczccB9                                            Yw29teee",
"cccccccczbZ1                                            Hyhpaaaa",
"ccccccccNN2                                            Gqnnnbbbb",
"nnnnnbnNd*                                            BdBvcccccc",
"aaaaadcd+                                            dBNcccccccc",
"aappdy47$                                            hBzcccccccc",
"nnnnBj29$                                            anccccccccc",
"ccccbd29$                                            anccccccccc",
"nnnnBj<9                                            Yanccccccccc",
"yyyypq18                                            Ydnccccccccc",
"pppppdjwo                                            yZbzccccccc",
"nnnnnnnb8+                                            2bBccccccc",
"cccccczbBp+                                            jannbnnnn",
"cccccccccBN*                                            tydattee",
"ccccccccczB7                                            G94dhdaa",
"ccccccccccN2                                            Kq7cnbbb",
"ccccccccccN2                                            Uq7lvccc",
"cczcccccccN2                                            Yq7lvccc",
"cczcccccccN2*                                            97vNnnn",
"ccccccccccN2*                                            w1yappp",
"cccccccczcZ7                                            a9eyteee",
"cccccccznBe                                            J<jnNnnnn",
"vvvvvvvNc<o                                            8nncccccc",
"ddddddcj$                                            YjBvzcccccc",
"yyyyyp95+                                            pCccccccccc",
"bbbbbB92$                                            yNccccccccc",
"cccccb94$                                            yNczccccccc",
"cccccn94$                                            yNccccccccc",
"jjjjjz52$                                            pNcczcccccc",
"999999ewo                                            yZczccccccc",
"zzzzzznb4                                            YeBbzcccccc",
"cccccccbBeo                                            7Nbcccccc",
"ccccccczcBc#                                            7nNnnnnn",
"ccccccccczC4                                            Yypteeee",
"ccccccccccN2*                                            82hdddd",
"ccccccccccN2*                                            89nnbbb",
"ccccccccccN2*                                            98ccccc",
"cczzczccccN2*                                            98bbvvv",
"ccczccccccN2*                                            82jjhhh",
"cccccccczcA4                                            Heyteeee",
"ccccccccNNt                                            U1vNccccc",
"nnnnnnnNh$                                            HwNbcccccc",
"ppppppda$                                            wlBvzcccccc",
"tttttye4*                                            cBzcccccccc",
"nnnnnBj5-                                            hnccccccccc",
"cccccbh7-                                            hnccccccccc",
"vvvccnh7-                                            jNcccvvvvvv",
"cccvbNj7-                                            hNbbbvccccc",
">>>><1>-*                                            ;><<<>>>>>>"
};
