/* XPM */
static char *_fbb5b37bb2745aaf55a69ba911efc28hIzzmMUXePu7XmZM[] = {
/* columns rows colors chars-per-pixel */
"64 64 107 2 ",
"   c #040404",
".  c #0A0B0B",
"X  c #0C0E0E",
"o  c #0F1111",
"O  c #101212",
"+  c #121414",
"@  c #141617",
"#  c #151718",
"$  c #161819",
"%  c #181A1B",
"&  c #191B1C",
"*  c #1B1D1E",
"=  c #1C1E1F",
"-  c #1C1F20",
";  c #1F2223",
":  c #202324",
">  c #212425",
",  c #242728",
"<  c #242829",
"1  c #272B2C",
"2  c #2A2E2F",
"3  c #2B2F30",
"4  c #2C3031",
"5  c #2E3334",
"6  c #2F3435",
"7  c #303536",
"8  c #323738",
"9  c #333839",
"0  c #343A3B",
"q  c #353B3C",
"w  c #373D3E",
"e  c #383E3F",
"r  c #393F40",
"t  c #3A4041",
"y  c #3C4243",
"u  c #3C4244",
"i  c #3F4547",
"p  c #404648",
"a  c #43494B",
"s  c #444A4C",
"d  c #454C4E",
"f  c #474E50",
"g  c #484F51",
"h  c #495052",
"j  c #4B5254",
"k  c #4C5355",
"l  c #4D5456",
"z  c #4F5759",
"x  c #50585A",
"c  c #525A5C",
"v  c #555D5F",
"b  c #565F61",
"n  c #576062",
"m  c #596264",
"M  c #5B6466",
"N  c #606A6C",
"B  c #656F72",
"V  c #667073",
"C  c #677174",
"Z  c #687275",
"A  c #6A7477",
"S  c #6B7578",
"D  c #6C7679",
"F  c #6D787B",
"G  c #6F7A7D",
"H  c #707B7E",
"J  c #717C7F",
"K  c #727D80",
"L  c #747F82",
"P  c #758083",
"I  c #778386",
"U  c #7D898C",
"Y  c #818E91",
"T  c #859295",
"R  c #869497",
"E  c #879598",
"W  c #89979A",
"Q  c #8A989B",
"!  c #8B999C",
"~  c #8D9B9E",
"^  c #8F9DA1",
"/  c #919FA3",
"(  c #93A1A5",
")  c #94A2A6",
"_  c #96A5A9",
"`  c #98A7AB",
"'  c #9AA9AD",
"]  c #9CABAF",
"[  c #9DADB1",
"{  c #A3B3B7",
"}  c #A6B7BB",
"|  c #AABBBF",
" . c #ABBCC0",
".. c #ACBDC1",
"X. c #AFC1C5",
"o. c #B1C3C7",
"O. c #B3C5C9",
"+. c #B5C7CC",
"@. c #B7C9CE",
"#. c #BED1D6",
"$. c #C0D3D8",
"%. c #C3D6DB",
"&. c #C4D7DC",
"*. c #C5D8DD",
"=. c #CADEE3",
"-. c #D4E9EE",
";. c #D6ECF1",
/* pixels */
"1 3 2 5 7 6 6 6 6 6 6 6 6 6 6 6 6 6 6 6 6 6 6 6 7 6 5 7 4 3 V 3 5 5 7 6 6 6 6 6 6 6 6 6 6 6 6 6 6 6 6 6 6 6 6 6 6 6 6 7 4 3 3 1 ",
"2 t w d x l l l l l l l l l l l l l l l l l l l l l l z i w S i x l l l l l l l l l l l l l l l l l l l l l l l l l l x d w t 2 ",
"2 w q s z l l l l l l l l l l l l h h h h h h h h h j k u 0 S u x h h h h h h h h h h h h h h k k k k k k k k k k k k z s q e 2 ",
"2 r r u p i i i i i i i i i i u p j j h h h h h h h h j u 0 S u z h h h h h h h h h h h h j l s y u u u u u u u u u u u y r r 2 ",
"1 4 5 4 4 4 4 4 4 4 4 4 4 4 5 6 5 i z l k k k k k k l l u 0 S u z h h h h h h h h h h h j j i 7 6 5 4 4 4 4 3 3 4 3 3 4 4 4 4 1 ",
"2 0 9 i h d d d d d d s a s s h u 2 e t w e e e e e r t q 0 S p x g h h h h h h h h h h k i 2 y h s s a s f d d d d d h i 9 0 2 ",
"3 0 4 t s p p p p i a l z k k l z q 4 p s a a a a a a s s y N 0 x z h h h h h h h h h j g 8 e z l k k z j d f f f f f h p 0 w 2 ",
"2 2 < 2 3 2 2 2 3 2 > q l k h g l g 0 f z k k k k k k j l l t b v a x k h h h h h h h j d w h k h h k l q + X o O O O + O + 3 2 ",
"O G -.%.&.*.*.*.*.;.[ % 7 l j h k s 0 d k h h h h h h h h h x h 9 G w h l k j j j j j l f w d j h j l 4 w ~ ) / / ^ ~ ! ! P 2 ; ",
"- s I L L L L L K G +.E : t z x x h 0 d j h h h h h h h h h h l v 7 m t i u t r r r r t e 6 g c x z r 1 U @.=.*.*.%.%.$.O.^ 4 ; ",
"2 > $ : 2 < < < < = t o.x : y t t 0 7 h j h h h h h h h h h h h x w B r 7 p d a a a a a h e 8 y t y 5 0 v 5 6 5 6 6 7 9 < ; 4 < ",
", 6 r d x l l l l c u m Z - 3 w t w p j h h h h h h h h h h h h z 0 A t 0 f z j j j j j z d w r w 4 # C G 0 j j h h h l s e 6 , ",
", 5 e s z j j k z y < K T # 4 p s s h h h h h h h h h h h h h h z 0 D t 0 d k h h h h h h h s s p 5   _  .@ p l k j j l s e 5 , ",
"< 4 0 u s a a a g i < E T * 8 9 0 3 5 g k h h h h h h h h h h h z 0 G t 0 s k h h h h k h 7 4 0 9 9 @ ( [ = s d a a a d u 0 4 < ",
"< 3 7 q t t t w p s 4 T W 2 k z c p 2 d k h h h h h h h h h h h z 0 J t 8 h z l l l l x j 4 i c z l : ) [ < h i w t t y w 7 3 < ",
", 6 e s z k k k x e = W W < f j z u 4 d k h h h h h h h h h h h x w J r 7 w y t t t t t y 4 u z j g - _ { $ a l k k k z s e 6 , ",
", 5 w a k h h h z t ; W Q , f j z u 4 d k h h h h h h h h h g k v 7 A u s i p p p p p a i 4 i z j g - _ { $ a k h h h k a w 5 , ",
", 5 w a l h h h z t ; W Q , f j z u 4 d k h h h h h h h h h z z u B e l l l k k k k k z h 4 u z j g - _ { # a l h h h l s w 5 , ",
", 5 w a j g g g z t ; W Q < f j z u 4 h z l l l l l l k l z a h x a x j h h h h h h h k f 4 u z j g - _ { $ a j g g g j a w 5 , ",
"< 3 5 0 e w w 0 u d 6 T W < f j z u 4 a a p p p p p p a h a j a x z h h h h h h h h h k f 4 u z j g - _ { 2 h u 0 w w e 0 5 3 < ",
", 4 q i g d d s j i < R W < f j z u 4 i p i p p i i a u 8 0 Z s x g h h h h h h h h h k f 4 u z j g = ' { * s h s d d g p q 4 , ",
", 5 e a l j j j x t ; W Q , f j z u 3 d x l l l l l x d 7 w F p l h h h h h h h h h h k f 4 u z j g = [ } @ a l j j j l s e 5 , ",
", 5 w a l h h h z t ; W Q , f j z u 3 s k h h h h h k a 7 w J p l h h h h h h h h h h k f 4 u z j g = ] } @ a l h h h l s w 5 , ",
", 5 w p h f f f l u > W Q , f j z u 4 h x l l l l l x d 5 w J p l h h h h h h h h h h k f 4 u z j g = ] } * s j f f f h p w 5 , ",
"< 3 7 w u t t e p s 4 E ! , f j z u 4 i u u u u u u i e 6 q J a l h h h h h h h h h h k f 4 u z j g = ] } , g p e t t u w 7 4 < ",
", 5 w a j g g g l y ; W ~ , f j z u 3 u p i i i i i i a d r z u v k g h h h h h h h h k f 4 u z j g = [ } @ a j g g g j a w 5 , ",
", 5 w a l h h h z t ; Q ~ , f j z u 2 d x l l l l l l l l k q J 7 k x h h h h h h h h k f 4 u z j g = [ } # a k h h h l s w 5 , ",
", 5 w a k h h h z t ; ! ~ , f j z u 2 s l h h h h h h h g k x i G d p l l k l l l l l z k 7 u z j g = [ } # a k h h h k a w 5 , ",
", 5 e a l j j j x t ; ! ~ , f j z u 2 s l h h h h h h h h h h x z s y u a p y y t t t y u 4 u z j g = [ } @ a l j j j l s e 5 , ",
", 4 0 i d s s s h u > Q ~ , f j z u 2 s l h h h h h h h h h h g x 0 B w 8 a s a p p p s p 4 u z j g = [ } & s g s s s d i 0 4 , ",
"< 3 7 w u t t e p s 4 W ~ , f j z u 2 s l h h h h h h h h h h h z 7 D e 0 h l k k k k z h 5 u z j g = ] } < g p e t t u w 7 3 < ",
", 5 e a l j j j z t ; Q ~ , f j z u 2 s l h h h h h h h h h h h z 7 H e 0 f j h h h h k f 4 u z j g - ' { $ a l j j j l s e 5 , ",
", 5 w a k h h h z t ; Q ~ , f j z u 2 s l h h h h h h h h h h h z 7 J e 0 f j h h h h k f 4 u z j g - ' { $ a k h h h k a w 5 , ",
", 5 e a l j j j z t ; ! ~ , f j z u 3 s k h h h h h h h h h h h z 7 J w 0 j z l l l l z h 5 u z j g - ' { @ a l j j j l s e 5 , ",
", 4 q i f s s s k t ; ~ ~ , f j z u 3 s l h h h h h h h h h h h z 7 H r 6 u p i i i i p i 4 u z j g - _ { * s g s s s f i q 4 , ",
"< 2 6 0 r w w 0 i d 6 W ~ , f j z u 3 s l h h h h h h h h h g h v s p w t u y t t t t y y 4 u z j g - _ { 2 h u 0 w w r 0 6 3 < ",
", 5 w a l h h h l u , ~ ~ , f j z u 3 s k h h h h h h h h g l x t S 5 d l z l l l l l x k 6 u z j g - _ [ % s k h h h l a w 5 , ",
", 5 w a k h h h z t - ~ ~ , f j z u 3 f z j j j j j j j j z h 5 J q l l h h h h h h h k g 5 u z j g - ) [ $ a k h h h k a w 5 , ",
", 5 w a k h h h z t ; ~ ~ , f j z u 4 s s a a a a a a a h d < J d x j g h h h h h h h k g 5 u z j g - ) [ $ a k h h h k a w 5 , ",
", 5 w a l h h h z t - ~ ~ , f j z u 4 u u u u u u u u i w 9 n i c h h h h h h h h h h k g 5 u z j g ; ( [ $ a l h h h l s w 5 , ",
", 5 w p j g g g l i , Q ~ , f j z u 4 h z k k k k k k x w 7 C u z h h h h h h h h h h k g 5 u z j g ; ^ ' & a k g g g j a w 5 , ",
"< 2 5 0 e w w 0 u d 4 W ~ , f j z u 3 f k h h h h h h k w 8 S u z h h h h h h h h h h k g 5 u z j g ; ~ ] 2 h u 0 w w e 0 5 2 < ",
", 4 q i g d d s l t - W ! , f j z u 4 g l h h h h h h l w 8 G u z h h h h h h h h h h k g 5 u z j g ; ^ ' - s h d d d g p q 4 , ",
", 5 e a l j j j z t ; Q ! , f j z u 4 d g d d d d d d g 9 7 H i z h h h h h h h h h h k g 5 u z j h ; ~ ' $ a l j j j l s e 5 , ",
", 5 w a k h h h z t ; W ! , f j z u 4 t e w w w w w w w t r S u v h g h h h h h h h h k g 5 u z j h ; ~ ' & a k h h h k a w 5 , ",
", 6 r s x l l l x t ; Q ! , f j z u 4 f j g g g g g g g l k 8 J t x k g h h h h h h h k g 5 u z j h ; ~ ' & a z l l l x d r 6 , ",
"< 3 7 w y t t e p s 4 E ! , f j z u 4 f l h h h h h h h h k x t J 0 z k h h h h h h h k g 5 u z j h ; ~ ' 1 h i e t t y w 7 3 < ",
"< 4 9 t a p p i f u , T E 1 l x b p 4 d k h h h h h h h h g h x h G 0 l z l l l l l l z j 5 a b x z : ~ ' - s s i p p a y 9 4 < ",
", 6 r s z k k l x t ; Y Y : r w e 3 3 h k h h h h h h h h h h g c 8 J u i y t t t t t y u 3 4 e w r & ~ ' $ a z l k k z d r 6 , ",
", 5 w a k h h h z r - Y U $ 4 q e w a k h h h h h h h h h h h h z 7 J q 7 s a a a a a p s s e e q 5 o R ` % a k h h h k a w 5 , ",
", 5 w a k h h h k a 6 Y U # 7 u p p g h h h h h h h h h h h h h z 7 G q w l l k k k k k k g p p u 8 o Y ` * a k h h h k a w 5 , ",
"> 6 t d x z z z l c a L Y ; w q q 4 3 d l h h h h h h h h h h h z 7 G w q h h h h h h k d 4 4 w q e % R Q 8 x z l l l x d r 5 > ",
"2 > + = > > > > > <   A _ 2 z x v a 2 a l h h h h h h h h h h h z 7 G w q k k j j j j l s 2 a b x x > ^ ` X > > > > > < ; $ O ; ",
"@ l | [ ' ' _ _ _ ( W =.D : h h z u 2 a l h h h h h h h h h h h z 7 G q 7 d d s s s s d a 4 u z h h 2 y #.} ~ [ } } } { } ..| p ",
"@ l } [ [ ] ' ' ' _ { I ; w j h z u 2 a l h h h h h h h h h g h b 0 A t u y t t t t t y t 3 u z h j u + u { { } ..........X.| i ",
"4 > . + $ # # # # $ # % w h j h z u 2 a k h h h h h h h h h z z y H 6 j z h h h h h h l d 4 u z h j d u > # * & & & & * $ O O > ",
"2 w 9 i d s s s s s a s h l h g x i 4 j z l l l l l l l l z s u A r z k h h h h h h h k d 2 i x h h l h s a a a a a a s u 8 q 2 ",
"2 t w f c x x x x x x x z l l z l 6 6 a p i i i i i i i a p M r f x j g h h h h h h h j g 0 0 l z l l z x x z z z z z v g w t 2 ",
"2 6 6 9 q 0 0 0 0 0 0 0 0 w r w 7 5 i u t y y y y y y u t 8 S h x g h h h h h h h h h h j s 7 8 e t w q q q q q q q q w 0 6 5 1 ",
"2 0 q 0 0 0 0 0 0 0 0 0 0 0 0 9 0 d x l l l l l l l l x d 9 D s l h h h h h h h h h h h h k s q 9 0 0 9 0 0 0 0 0 0 0 0 0 q 0 2 ",
"2 e w a l j j j j j j j j j h j j j h h h h h h h h h k s 0 D s l h h h h h h h h h h h h h k h h h h h h h h h h h h l s w r 2 ",
"2 e w s z k k k k k k k k k k k k j j j j j j j j h h l s 0 D d z h h h j j j j j j j j j j j k k k k k k k k k k k k z d w e 2 ",
"2 e q a l h h h h h h h h h h h h h h h h h h h h j k z d 0 D s z k k k j h h h h h h h h h h h h h h h h h h h h h h l a q e 2 ",
"1 2 2 2 4 4 4 4 4 4 4 4 4 4 4 4 4 4 4 4 4 4 4 4 4 4 5 6 4 y G 3 4 5 5 5 4 4 4 4 4 4 4 4 4 4 4 4 4 4 4 4 4 4 4 4 4 4 4 4 2 2 2 1 "
};
