/* XPM */
static char *_bb73d53820940f4cb12d150758c7660YNaQmviqNmq8pryz[] = {
/* columns rows colors chars-per-pixel */
"64 64 157 2 ",
"   c None",
".  c #040404",
"X  c #050606",
"o  c #0C0E0E",
"O  c #0F1111",
"+  c #101212",
"@  c #121414",
"#  c #131515",
"$  c #141616",
"%  c #141617",
"&  c #151718",
"*  c #161819",
"=  c #17191A",
"-  c #181A1B",
";  c #191B1C",
":  c #1A1C1D",
">  c #1B1D1E",
",  c #1C1E1F",
"<  c #1C1F20",
"1  c #1D2021",
"2  c #1E2122",
"3  c #1F2223",
"4  c #202324",
"5  c #212425",
"6  c #222526",
"7  c #232627",
"8  c #242728",
"9  c #242829",
"0  c #25292A",
"q  c #262A2B",
"w  c #272B2C",
"e  c #282C2D",
"r  c #292D2E",
"t  c #2A2E2F",
"y  c #2B2F30",
"u  c #2C3031",
"i  c #2C3132",
"p  c #2D3233",
"a  c #2E3334",
"s  c #2F3435",
"d  c #303536",
"f  c #313637",
"g  c #323738",
"h  c #333839",
"j  c #34393A",
"k  c #343A3B",
"l  c #353B3C",
"z  c #363C3D",
"x  c #373D3E",
"c  c #383E3F",
"v  c #393F40",
"b  c #3A4041",
"n  c #3B4142",
"m  c #3C4243",
"M  c #3C4244",
"N  c #3D4345",
"B  c #3E4446",
"V  c #3F4547",
"C  c #404648",
"Z  c #414749",
"A  c #42484A",
"S  c #43494B",
"D  c #444A4C",
"F  c #454B4D",
"G  c #454C4E",
"H  c #464D4F",
"J  c #474E50",
"K  c #484F51",
"L  c #495052",
"P  c #4A5153",
"I  c #4B5254",
"U  c #4C5355",
"Y  c #4D5456",
"T  c #4D5557",
"R  c #4E5658",
"E  c #4F5759",
"W  c #50585A",
"Q  c #51595B",
"!  c #525A5C",
"~  c #535B5D",
"^  c #545C5E",
"/  c #555D5F",
"(  c #555E60",
")  c #596264",
"_  c #5A6365",
"`  c #646E70",
"'  c #656F71",
"]  c #656F72",
"[  c #677174",
"{  c #687275",
"}  c #6A7477",
"|  c #6B7578",
" . c #6C7679",
".. c #6D777A",
"X. c #6E797C",
"o. c #6F7A7D",
"O. c #707B7E",
"+. c #717C7F",
"@. c #727D80",
"#. c #747F82",
"$. c #758184",
"%. c #7D898C",
"&. c #818E91",
"*. c #828F92",
"=. c #849194",
"-. c #859295",
";. c #859396",
":. c #869497",
">. c #879598",
",. c #889699",
"<. c #89979A",
"1. c #8A989B",
"2. c #8B999C",
"3. c #8C9A9D",
"4. c #8D9B9E",
"5. c #8D9B9F",
"6. c #8E9CA0",
"7. c #8F9DA1",
"8. c #909EA2",
"9. c #919FA3",
"0. c #92A0A4",
"q. c #93A1A5",
"w. c #94A2A6",
"e. c #95A3A7",
"r. c #95A4A8",
"t. c #96A5A9",
"y. c #97A6AA",
"u. c #98A7AB",
"i. c #99A8AC",
"p. c #9AA9AD",
"a. c #9BAAAE",
"s. c #9CABAF",
"d. c #9DACB0",
"f. c #9DADB1",
"g. c #9EAEB2",
"h. c #9FAFB3",
"j. c #A0B0B4",
"k. c #A1B1B5",
"l. c #A2B2B6",
"z. c #A3B3B7",
"x. c #A4B4B8",
"c. c #A5B5B9",
"v. c #A5B6BA",
"b. c #A6B7BB",
"n. c #ABBCC0",
"m. c #ADBEC2",
"M. c #B1C3C7",
"N. c #B5C7CC",
"B. c #B7C9CE",
"V. c #BED1D6",
"C. c #C3D6DB",
"Z. c #C5D8DD",
"A. c #C6D9DE",
"S. c #C6DADF",
"D. c #C9DDE2",
"F. c #CADEE3",
"G. c #D6ECF1",
/* pixels */
"s s s s s s s s s s s s s s s s s s d s a d u y 0                         y a a d s s s s s s s s s s s s s s s s s s s s s s s ",
"Y Y Y Y Y Y Y Y Y Y Y Y Y Y Y Y Y Y Y Y Y R V x 0                         V Q Y Y Y Y Y Y Y Y Y Y Y Y Y Y Y Y Y Y Y Y Y Y Y Y Y ",
"Y Y Y Y Y Y Y Y Y Y Y L L L L L L L L L I U M k 0                         M Q L L L L L L L L L L L L L L U U U U U U U U U U U ",
"V V V V V V V V V M C I I L L L L L L L L I M k 0                         M R L L L L L L L L L L L L I Y F m M M M M M M M M M ",
"u u u u u u u u a s a V R Y U U U U U U Y Y M k 0                         M R L L L L L L L L L L L I I V d s a u u u u y y u y ",
"H H H H H F S F F L M t c b x c c c c c v b l k 0                         C Q K L L L L L L L L L L U V t m L F F S F J H H H H ",
"C C C V S Y R U U Y R l u C F S S S S S S F F m 3                         k Q R L L L L L L L L L I K g c R Y U U R I H J J J J ",
"t t y t 6 l Y U L K Y K k J R U U U U U U I Y Y b 4                         / S Q U L L L L L L L I H x L U L L U Y l @ o O + + ",
"Z.Z.Z.G.f.- d Y I L U F k H U L L L L L L L L L Q L s                         X.x L Y U I I I I I Y J x H I L I Y u x 3.w.9.9.7.",
"#.#.@.X.N.>.4 b R Q Q L k H I L L L L L L L L L L Y / d                         ) b V M b v v v v b c s K ! Q R v w %.B.F.Z.Z.C.",
"0 0 0 , b M.Q 4 m b b k d L I L L L L L L L L L L L Q x                         ] v d C H S S S S S L c g m b m a k / a s a s s ",
"Y Y Y ! M ) { < y x b x C I L L L L L L L L L L L L R k                         } b k J R I I I I I R H x v x u & [ X.k I I L L ",
"I U R m 0 @.-.& u C F F L L L L L L L L L L L L L L R k                          .b k H U L L L L L L L F F C a . r.n.% C Y U I ",
"S S K V 0 >.-.> g h k y a K U L L L L L L L L L L L R k                         X.b k F U L L L L U L d u k h h % q.f., F H S S ",
"b x C F u -.<.t U R ! C t H U L L L L L L L L L L L R k                         +.b g L R Y Y Y Y Q I u V ! R Y 4 w.f.0 L V x b ",
"U U Q c , <.<.0 J I R M u H U L L L L L L L L L L L Q x                         +.v d x m b b b b b m u M R I K < r.z.* S Y U U ",
"L L R b 3 <.1.8 J I R M u H U L L L L L L L L L K U / s                         } M F V C C C C C S V u V R I K < r.z.* S U L L ",
"L L R b 3 <.1.8 J I R M u H U L L L L L L L L L R R d                         ] c Y Y Y U U U U U R L u M R I K < r.z.& S Y L L ",
"K K R b 3 <.1.0 J I R M u L R Y Y Y Y Y Y U Y R S w                         Q S Q I L L L L L L L U J u M R I K < r.z.* S I K K ",
"x k M H s -.<.0 J I R M u S S C C C C C C S L S 6                         S Q R L L L L L L L L L U J u M R I K < r.z.t L M k x ",
"H F I V 0 :.<.0 J I R M u V C V C C V V S M g k 0                         F Q K L L L L L L L L L U J u M R I K , i.z.> F L F H ",
"I I Q b 3 <.1.8 J I R M y H Q Y Y Y Y Y Q H d x 0                         C Y L L L L L L L L L L U J u M R I K , f.c.% S Y I I ",
"L L R b 3 <.1.8 J I R M y F U L L L L L U S d x 0                         C Y L L L L L L L L L L U J u M R I K , s.c.% S Y L L ",
"J J Y M 6 <.1.8 J I R M u L Q Y Y Y Y Y Q H a x                         +.C Y L L L L L L L L L L U J u M R I K , s.c.> F I J J ",
"b c C F u >.2.8 J I R M u V M M M M M M V c s l                         +.S Y L L L L L L L L L L U J u M R I K , s.c.8 K C c b ",
"K K Y m 3 <.3.8 J I R M y M C V V V V V V S H v 3                         M / U K L L L L L L L L U J u M R I K , f.c.% S I K K ",
"L L R b 3 1.3.8 J I R M t H Q Y Y Y Y Y Y Y Y U l 6                         d U Q L L L L L L L L U J u M R I K , f.c.& S U L L ",
"L L R b 3 2.3.8 J I R M t F Y L L L L L L L K U Q V 6                         H C Y Y U Y Y Y Y Y R U d M R I K , f.c.& S U L L ",
"I I Q b 3 2.3.8 J I R M t F Y L L L L L L L L L L Q R w                         m M S C m m b b b m M u M R I K , f.c.% S Y I I ",
"F F L M 6 1.3.8 J I R M t F Y L L L L L L L L L L K Q k                         ] x g S F S C C C F C u M R I K , f.c.; F K F F ",
"b c C F u <.3.8 J I R M t F Y L L L L L L L L L L L R d                          .c k L Y U U U U R L a M R I K , s.c.0 K C c b ",
"I I R b 3 1.3.8 J I R M t F Y L L L L L L L L L L L R d                         O.c k J I L L L L U J u M R I K < i.z.* S Y I I ",
"L L R b 3 1.3.8 J I R M t F Y L L L L L L L L L L L R d                         +.c k J I L L L L U J u M R I K < i.z.* S U L L ",
"I I R b 3 2.3.8 J I R M y F U L L L L L L L L L L L R d w                         x k I R Y Y Y Y R L a M R I K < i.z.% S Y I I ",
"F F U b 3 3.3.8 J I R M y F Y L L L L L L L L L L L R d w                         v s M C V V V V C V u M R I K < r.z.> F K F F ",
"x k V H s <.3.8 J I R M y F Y L L L L L L L L L K L / k                         C x b M m b b b b m m u M R I K < r.z.t L M k x ",
"L L Y M 8 3.3.8 J I R M y F U L L L L L L L L K Y Q b                         | a H Y R Y Y Y Y Y Q U s M R I K < r.f.- F U L L ",
"L L R b < 3.3.8 J I R M y J R I I I I I I I I R L a 3                         l Y Y L L L L L L L U K a M R I K < w.f.* S U L L ",
"L L R b 3 3.3.8 J I R M u F F S S S S S S S L H 0                         +.H Q I K L L L L L L L U K a M R I K < w.f.* S U L L ",
"L L R b < 3.3.8 J I R M u M M M M M M M M V x h 6                         V ! L L L L L L L L L L U K a M R I K 3 q.f.* S Y L L ",
"K K Y V 8 1.3.8 J I R M u L R U U U U U U Q x d 0                         M R L L L L L L L L L L U K a M R I K 3 7.i.; S U K K ",
"x k M H u <.3.8 J I R M y J U L L L L L L U x g 0                         M R L L L L L L L L L L U K a M R I K 3 3.s.t L M k x ",
"H F Y b < <.2.8 J I R M u K Y L L L L L L Y x g 0                         M R L L L L L L L L L L U K a M R I K 3 7.i.< F L H H ",
"I I R b 3 1.2.8 J I R M u H K H H H H H H K h d 0                         V R L L L L L L L L L L U K a M R I L 3 3.i.* S Y I I ",
"L L R b 3 <.2.8 J I R M u b c x x x x x x x b v 3                         M / L K L L L L L L L L U K a M R I L 3 3.i.; S U L L ",
"Y Y Q b 3 1.2.8 J I R M u J I K K K K K K K Y U g                         +.b Q U K L L L L L L L U K a M R I L 3 3.i.; S R Y Y ",
"b c C F u >.2.8 J I R M u J Y L L L L L L L L U Q b 3                         k R U L L L L L L L U K a M R I L 3 3.i.w L V c b ",
"C V J M 8 -.>.w Y Q ( C u H U L L L L L L L L K L Q L 8                         k Y R Y Y Y Y Y Y R I a S ( Q R 4 3.i.< F F V C ",
"U Y Q b 3 *.*.4 v x c y y L U L L L L L L L L L L K ! g                         +.M V m b b b b b m M y u c x v ; 3.i.* S R Y U ",
"L L R v < *.%.* u l c x S U L L L L L L L L L L L L R d w                         l d F S S S S S C F F c c l a O :.u.- S U L L ",
"L L U S s *.%.& d M C C K L L L L L L L L L L L L L R d w                         l x Y Y U U U U U U K C C M g O *.u.> S U L L ",
"R R Y ! S #.*.3 x l l u y H Y L L L L L L L L L L L R d w                         x l L L L L L L U H u u x l c - :.1.g Q R Y Y ",
"6 6 6 0 . } r.t R Q / S t S Y L L L L L L L L L L L R d w                         x l U U I I I I Y F t S ( Q Q 6 7.u.o 6 6 6 6 ",
"r.r.r.q.<.F. .4 L L R M t S Y L L L L L L L L L L L R d w                         l d H H F F F F H S u M R L L t m V.c.3.f.c.c.",
"i.i.i.r.z.$.3 x I L R M t S Y L L L L L L L L L K L ( g                         } b M m b b b b b m b y M R L I M @ M z.z.c.m.m.",
"& & & * & - x L I L R M t S U L L L L L L L L L R R m                         O.s I R L L L L L L Y H u M R L I H M 6 & > ; ; ; ",
"F F F F S F L Y L K Q V u I R Y Y Y Y Y Y Y Y R F 0                         } v R U L L L L L L L U H t V Q L L Y L F S S S S S ",
"Q Q Q Q Q Q R Y Y R Y s s S C V V V V V V V S C 0                         v J Q I K L L L L L L L I K k k Y R Y Y R Q Q R R R R ",
"k k k k k k k x v x d a V M b m m m m m m M b g w                         L Q K L L L L L L L L L L I F d g c b x l l l l l l l ",
"k k k k k k k k k h k H Q Y Y Y Y Y Y Y Y Q H h t                         F Y L L L L L L L L L L L L U F l h k k h k k k k k k ",
"I I I I I I I I L I I I L L L L L L L L L U F k t                         F Y L L L L L L L L L L L L L U L L L L L L L L L L L ",
"U U U U U U U U U U U I I I I I I I I L L Y F k t                         H R L L L I I I I I I I I I I I U U U U U U U U U U U ",
"L L L L L L L L L L L L L L L L L L L I U R H k t                         F R U U U I L L L L L L L L L L L L L L L L L L L L L ",
"u u u u u u u u u u u u u u u u u u u u a s u t w                         y u a a a u u u u u u u u u u u u u u u u u u u u u u "
};
