/* XPM */
static char *_7246ad703bf403ede8d0bfdf844b3fddVRNOpJYR0og7HIU[] = {
/* columns rows colors chars-per-pixel */
"64 64 152 2 ",
"   c None",
".  c #030201",
"X  c #0A0707",
"o  c #0B0806",
"O  c #0D0C0D",
"+  c #100F0D",
"@  c #1B0F0C",
"#  c #0F100E",
"$  c #12110F",
"%  c #120F11",
"&  c #141313",
"*  c #191613",
"=  c #171619",
"-  c #1B1B1B",
";  c #242424",
":  c #282827",
">  c #24242C",
",  c #282728",
"<  c #26282E",
"1  c #2A2A2A",
"2  c #302E2D",
"3  c #35312E",
"4  c #302F33",
"5  c #2D3139",
"6  c #333333",
"7  c #383234",
"8  c #34353A",
"9  c #3C3C3C",
"0  c #413F3D",
"q  c #45403C",
"w  c #3F3F40",
"e  c #403F40",
"r  c #434343",
"t  c #4B4040",
"y  c #434449",
"u  c #474848",
"i  c #4B4B4B",
"p  c #50504F",
"a  c #474851",
"s  c #4D4E56",
"d  c #524F50",
"f  c #535353",
"g  c #585757",
"h  c #54565A",
"j  c #5A5A5A",
"k  c #545761",
"l  c #5D616D",
"z  c #626262",
"x  c #696768",
"c  c #6D6C73",
"v  c #716F71",
"b  c #757474",
"n  c #7B7777",
"m  c #7B7A7B",
"M  c #847E7E",
"N  c #81807E",
"B  c #737685",
"V  c #747984",
"C  c #7F93B2",
"Z  c #838383",
"A  c #8C8783",
"S  c #8D8882",
"D  c #8E8D8D",
"F  c #918E8E",
"G  c #828690",
"H  c #868E9F",
"J  c #938F90",
"K  c #949394",
"L  c #828AA2",
"P  c #919CAF",
"I  c #8598B4",
"U  c #8E9EBB",
"Y  c #929DB5",
"T  c #9FA1A3",
"R  c #9DA4B3",
"E  c #94A2BC",
"W  c #9EA7BC",
"Q  c #A4A3A4",
"!  c #ABA5A6",
"~  c #AAAAAB",
"^  c #AFAEB1",
"/  c #B2B2B4",
"(  c #B2B6BD",
")  c #BCBBBC",
"_  c #C3C0BF",
"`  c #9AA9C3",
"'  c #A1ADC3",
"]  c #A1ADC9",
"[  c #A6B4C7",
"{  c #ADB7C6",
"}  c #A5B1CD",
"|  c #AAB6C9",
" . c #B6BAC3",
".. c #B3BBCB",
"X. c #A9B8D2",
"o. c #BEC3CD",
"O. c #B2C1D7",
"+. c #B8C1DA",
"@. c #BCC9DE",
"#. c #C5C4C5",
"$. c #CAC9C7",
"%. c #C8C7CA",
"&. c #CDCBCB",
"*. c #D1CFCE",
"=. c #CCCED6",
"-. c #D1CFD1",
";. c #D2D1D2",
":. c #DAD7D6",
">. c #DBDBDA",
",. c #C2CFE6",
"<. c #C3CFE9",
"1. c #C8D5E4",
"2. c #C5D1EA",
"3. c #C9D4EA",
"4. c #D4D6E1",
"5. c #D4D7E3",
"6. c #D8DAE3",
"7. c #D0D8E8",
"8. c #D5DEEA",
"9. c #DEE0E8",
"0. c #D6E0F4",
"q. c #DCE3F2",
"w. c #DAE5F6",
"e. c #DCE7F7",
"r. c #DFE6F5",
"t. c #DCE7FD",
"y. c #DFEAFB",
"u. c #E2E1E1",
"i. c #E1E5ED",
"p. c #EBEBE9",
"a. c #EEEDED",
"s. c #F0EFED",
"d. c #F0F0EF",
"f. c #E1E9F2",
"g. c #EAEDF5",
"h. c #EAEFF5",
"j. c #E4EDFE",
"k. c #F4F3F4",
"l. c #F3F4F4",
"z. c #F4F5F5",
"x. c #F5F4F4",
"c. c #F6F6F6",
"v. c #F7F7F7",
"b. c #F6F5F6",
"n. c #F2F2F2",
"m. c #F8F6F8",
"M. c #F6F8FB",
"N. c #F9FAFB",
"B. c #FEFDFF",
"V. c white",
"C. c #FFFFFE",
"Z. c #FDFDFE",
/* pixels */
"                                                                                                                                ",
"                                                                                                                                ",
"  1 1 1 6 6 6 6 6 1 4 6 6 6 1 1 1 1 1 1 1 1 1 1 1 1 1 1 1 1 1 1 1 1 1 1 1 1 1 1 1 1 1 1 1 1 1 1 1 1 1 6 6 6 6 6 6 6 6 6 1 1 1 1 ",
"  1 : 6 r r r r r r r r r i r : 1 1 1 1 1 1 1 1 1 1 1 1 1 1 1 1 1 1 1 1 1 1 1 1 1 1 1 1 : 1 1 1 1 6 i r r r r r r i i i 9 1 1 1 ",
"  1 6 9 r j j j g f f f f g j 6 6 i i i i i i i i i i i i i i i i i i i i i i i i i i i r i f r ; r j f f f f g i r r i r 9 1 1 ",
"  1 9 r f 9 6 9 f g f f f f j i 1 i j g j g f f f f f f f f f f f f f f f f f f f g j g g j g 1 1 g g f f f f j 9 : ; 9 f r 6 : ",
"  1 6 f i 6 9 ; i j f f f f f j 9 1 f j 9 9 r r r r r r r r r r r r r r r r r r r 1 r g g g 9 : i j f f f f f g 6 r 9 6 j r 6 1 ",
"  1 6 f r r g 1 i g f f f f f g f 1 9 j 1 6 i i i i i i i i i i i i i i i i i i r - 6 j g r : 9 j f f f f f f g 6 r 9 6 j r 6 : ",
"  1 6 f i r f 1 i g f f f f f f j r 1 f r 1 6 6 6 6 6 6 6 6 6 6 6 6 6 6 6 6 6 6 6 1 r j i 6 1 f g f f f f f f g 6 r 9 6 g r 6 : ",
"  1 6 f i r f 1 i g f f f f f f f g 9 9 g g f f f f f f f f f f f f f f f f f f g g j g r 1 r j f f f f f f f g 6 r 9 6 g r 6 , ",
"  1 6 f i r i 1 i g f f f f f f f j r 1 r i i i i i i i i i i i i i i u r r r r r r r 9 1 6 g g f f f f f f f g 6 r 9 6 j r 6 1 ",
"  1 6 f i r f 1 i g f f f f f f f j i ; 1 4 6 6 6 6 6 6 6 6 1 1 1 1 1 1 1 1 1 1 1 1 1 1 6 i j f f f f f f f f g 9 r r 6 j r 6 1 ",
"  1 6 f i r i , i g f f f f f f f g i r r r i i i i i u i i i i i i i i i i i i i i i i f g f f f f f f f f f g 6 i r 6 j r 6 1 ",
"  1 6 f i : : : i g f f f f f f f f g j g g g g g g g g g g g g g g g g g g g g g g g g g f f f f f f f f f f j 6 6 1 6 j r 6 1 ",
"  1 6 i g r r r p f f f f f f f f f f f f f f f f f f f f f f f f f f f f f f f f f f f f f f f f f f f f f f g r 1 1 r j r 6 1 ",
"  1 6 i g j j j f f f f f f f f f f f f f f f f f f f f f f f f f f f f f f f f f f f f f f f f f f f f f f f f g g g g f r 6 1 ",
"  1 6 i g f f f f f f f f f f f f f f g g g g g g g g g g g g g g g g g g g g g g g g g f f f f f f f f f f f f f f f f f r 6 1 ",
"  1 6 i g f f f f f f f f f f f f f f i i i i i i i i i i i i i i i i i i i i i i i i i f f f f f f f f f f f f f f f f f r 6 1 ",
"  1 6 i g f f f f f f f f f f f f f j 9 ; 1 1 1 1 1 1 1 1 1 1 1 1 1 1 1 1 1 1 1 1 1 1 1 i g f f f f f f f f f f f f f f f r 6 , ",
"  1 6 i g f f f f f f f f f f f f f j 6 - ; ; ; ; ; ; ; ; ; ; ; ; ; ; ; ; ; ; ; ; ; ; ; i j f f f f f f f f f f f f f f f r 6 : ",
"  1 6 i g f f f f f f f f f f f f f g r 9 9 9 9 9 9 9 9 9 9 9 9 9 9 9 9 9 9 9 9 9 9 9 9 i g f f f f f f f f f f f f f f f r 6 : ",
"  1 6 i g f f f f f f f f f f f f f f g j j j j j j j j j j j j j j j j j j j j j j j j f f f f f f f f f f f f f f f f f r 6 : ",
"  1 6 i g f f f f f f f f f f f f f g 9 1 6 6 6 6 6 6 6 6 6 6 6 6 6 6 6 6 6 6 6 6 6 1 6 i g f f f f f f f f f f f f f f f r 6 1 ",
"  1 6 i g f f f f f f f f f f f f f j 6 - ; ; ; ; : 9 r e 0 0 e w e e r e r 1 ; ; ; - ; i j f f f f f f f f f f f f f f f r 6 1 ",
"  1 6 i g f f f f f f f f f f f f f g 9 1 6 6 6 6 9 - o + O O + $ O # $ + o r 6 6 6 6 6 i g f f f f f f f f f f f f f f f r 6 1 ",
"  1 6 i g f f f f f f f f f f f f f f g g g g g 1 j  .{ >.>.>.>.>.>.>.>.o.` s 6 g g g g f f f f f f f f f f f f f f f f f r 6 1 ",
"  1 6 i g f f f f f f f f f f f f f g r 1 6 6 6 6 8 @.q.B.B.B.B.B.B.B.B.h.,.h r 9 6 6 6 i g f f f f f f f f f f f f f f f r 6 1 ",
"  1 6 i g f f f f f f f f f f f f f j 6 - ; 9 O  .2.B.B.B.B.B.B.B.B.B.B.B.B.0.E 1 9 ; ; i j f f f f f f f f f f f f f f f r 6 1 ",
"  1 6 i g f f f f f f f f f f f f f g 9 1 6 i . Y <.B.B.B.B.B.B.B.B.B.B.B.B.r.} > 9 6 4 i g f f f f f f f f f f f f f f f r 6 1 ",
"  1 6 i g f f f f f f f f f f f f f f g j j z . Y ,.B.B.B.B.B.B.B.B.B.B.B.B.w.] > i j j g f f f f f f f f f f f f f f f f r 6 1 ",
"  1 6 i g f f f f f f f f f f f f f g i 9 r f . E 2.B.B.B.B.B.B.B.B.B.B.B.B.y.} < r r r f g f f f f f f f f f f f f f f f r 6 1 ",
"  1 6 i g f f f f f f f f f f f f f j 6 - ; r . Y +.l.c.c.c.c.v.c.c.c.c.c.c.7.E > 9 ; ; i j f f f f f f f f f f f f f f f r 6 : ",
"  1 6 i g f f f f f f f f f f f f f j 9 : , r X y h z z z j g g g g j z z z h a & 9 : : i j f f f f f f f f f f f f f f f r 6 : ",
"  1 6 i g f f f f f f f f f f f f f f f f i j O = & & & & ; 2 2 6 7 2 = + $ $ * O u i i f f f f f f f f f f f f f f f f f r 6 : ",
"  1 6 i g f f f f f f f f f f f f f f g g j z O 2 0 - : ; Q p.a.d.a.#.9 6 - 3 q & i j j f f f f f f f f f f f f f f f f f r 6 1 ",
"  1 6 i g f f f f f f f f f f f f f g 9 1 6 i X k c & 9 n -.B.>.;.B.p.M d % h c = 9 6 6 i g f f f f f f f f f f f f f f f r 6 1 ",
"  1 6 i g f f f f f f f f f f f f f j 6 - ; r . P ... j B.B.B.n 9 N.B.B.K . L +.> 9 ; ; i j f f f f f f f f f f f f f f f r 6 1 ",
"  1 6 i g f f f f f f f f f f f f f g r 1 6 i . ( 9.K ) B.$.A j r M ! B.-.J =.4.4 9 6 6 i g f f f f f f f f f f f f f f f r 6 1 ",
"  1 6 i g f f f f f f f f f f f f f f g g g z . ;.B.B.B.B.S @ 3 9 @ t B.B.B.B.s.9 r g g f f f f f f f f f f f f f f f f f r 6 1 ",
"  1 6 i g f f f f f f f f f f f f f f f z r n &.{ X.B.>.j Q ;.>.u.:._ j / B.1.E ;.N r g f f f f f f f f f f f f f f f f f r 6 1 ",
"  1 6 i g f f f f f f f f f f f f f g r 9 & K B.| E M.%.i ~ k.u.u.n.>.r T N.O.I N.&.; 9 i g f f f f f f f f f f f f f f f r 6 1 ",
"  1 6 i g f f f f f f f f f f f f f j 6 - & V t.h.m.U [ n.*.D r 9 Z ^ k.4.C 8.N.j.W = 6 i j f f f f f f f f f f f f f f f r 6 1 ",
"  1 6 i g f f f f f f f f f f f f f g r 6 ; s H 6.h.| ..#./ v : - x D )  .' f.i.R B 9 i i g f f f f f f f f f f f f f f f r 6 , ",
"  1 6 i g f f f f f f f f f f f f f f g j i 1 - ' 3.B.) ; r F i r b b & D B.r...5 r n j f f f f f f f f f f f f f f f f f r 6 : ",
"  1 6 i g f f f f f f f f f f f f f f f f i 1 - k V / m 1 9 g i i f p : x / G l - 1 g i f f f f f f f f f f f f f f f f f r 6 : ",
"  1 6 i g f f f f f f f f f f f f f g 9 1 1 9 9 - + 1 7 9 1 1 1 1 1 1 6 9 7 - - : , 1 1 i g f f f f f f f f f f f f f f f r 6 : ",
"  1 6 i g f f f f f f f f f f f f f j 6 - ; : i 1 ; x n i ; ; ; ; ; ; : r f 1 ; ; ; - ; i j f f f f f f f f f f f f f f f r 6 1 ",
"  1 6 i g f f f f f f f f f f f f f g i 9 9 9 9 9 9 9 9 9 9 9 9 9 9 9 9 9 9 9 9 9 9 9 9 i g f f f f f f f f f f f f f f f r 6 1 ",
"  1 6 i j j j j f f f f f f f f f f f g j j j j j j j j j j j j j j j j j j j j j j j j f f f f f f f f f f f f f f f f f r 6 1 ",
"  1 6 i f 9 6 r f f f f f f f f f f f f f f f f f f f f f f f f f f f f f f f f f f f f f f f f f f f f f f f f f f f f f r 6 1 ",
"  1 6 f r : 1 1 f f f f f f f f f f f f f f f f f f f f f f f f f f f f f f f f f f f f f f f f f f f f f f f g j g g g f r 6 1 ",
"  1 6 f 9 r g 6 f f f f f f f f f f f f f f f f f f f f f f f f f f f f f f f f f f f f f f f f f f f f f f g i 6 6 9 f g r 6 1 ",
"  1 6 f r 9 i 6 f g f f f f f f f f f j g g g g g g g g g g g g g g g g g g g g g g g g j g f f f f f f f f j r 1 6 : f g r 6 , ",
"  1 6 f r 9 i 6 f g f f f f f f f g i 6 9 9 9 9 9 9 9 9 9 9 9 9 9 9 9 8 9 9 9 9 6 9 9 6 9 f g f f f f f f f g r 9 f 6 i g r 6 1 ",
"  1 6 f r 9 i 6 f g f f f f f f f j r ; 6 6 1 1 1 4 6 6 1 1 6 1 1 1 1 1 1 1 1 1 1 1 6 6 : r j f f f f f f f g r 9 p 1 i g r 6 1 ",
"  1 6 f r 9 i 1 f g f f f f f f f j 9 6 f j g g g g g g g g g g g g g g g g g g g g j i 9 1 f g f f f f f f j r 9 i 1 i g r 6 1 ",
"  1 6 f r 9 i 6 f g f f f f f f j i 1 i i r 9 9 9 9 9 9 9 9 9 9 9 9 9 9 9 9 9 9 9 9 i g r 1 9 j f f f f f f j r 9 i 1 i g r 6 1 ",
"  1 6 f 9 r g 6 f g f f f f f g g 6 6 g 6 1 9 9 9 9 9 9 9 9 9 9 9 9 9 9 9 9 9 9 9 6 6 g i 9 1 i g f f f f f g r 9 g 6 i g r 6 1 ",
"  1 6 f r 1 6 1 f f f f f f f j 9 1 i j 6 9 i i i i i i i i i i i i i i i i i i i 9 6 g g r 1 9 j f f f f f j r 6 r 1 i j i 6 : ",
"  1 6 f i 1 1 9 f f f f f f g f 1 9 g g i 9 r r r r r r r r r r r r r r r r r r r w i g g f 9 1 r j f f f f g i 1 1 6 g f r 6 1 ",
"  1 6 r g j j j g g g g g g j 6 6 g j g j j j j j j j j j j j j j j j j j j j j j j j g g j i 6 6 g j g g g g g f g j f r 9 1 1 ",
"  1 1 9 r i i i i i i i i i i 1 6 6 6 6 6 6 6 6 6 6 6 6 6 6 6 6 6 6 6 6 6 6 6 6 6 6 6 6 6 6 6 6 : r f i i i i i i i i r 9 1 1 1 ",
"  1 1 6 9 6 6 6 6 6 6 6 6 6 9 6 : : : : : : : : : : : : : : : : : : : : : : : : : : : : : : : 1 1 6 9 6 6 6 6 6 9 6 9 6 1 1 1 1 ",
"  1 1 1 1 1 1 1 1 1 1 1 1 1 1 1 1 1 1 1 1 1 1 1 1 1 1 1 1 1 1 1 1 1 1 1 1 1 1 1 1 1 1 1 1 1 1 1 1 1 1 1 1 1 1 1 1 1 1 1 1 1 1 1 "
};
