/* XPM */
static char *result[] = {
/* columns rows colors chars-per-pixel */
"64 64 76 1 ",
"  c #3E3E3E",
". c #3F5F1E",
"X c #3D641E",
"o c #3E691D",
"O c #3D6421",
"+ c #3F6A21",
"@ c #3E6628",
"# c #415F1F",
"$ c #41651E",
"% c #426B1E",
"& c #43721E",
"* c #49721F",
"= c #4F7C1F",
"- c #415F21",
"; c #426521",
": c #486724",
"> c #436B22",
", c #496D23",
"< c #476C29",
"1 c #4A6D29",
"2 c #467223",
"3 c #4A7424",
"4 c #477925",
"5 c #4C7B25",
"6 c #457429",
"7 c #4C7528",
"8 c #4D7B29",
"9 c #507725",
"0 c #517C26",
"q c #517728",
"w c #527C2A",
"e c #464646",
"r c #4C4C4C",
"t c #535353",
"y c #5A5A5A",
"u c gray40",
"i c #6F6F6F",
"p c #757575",
"a c #7D7D7D",
"s c #4D8226",
"d c #4E832A",
"f c #4F8829",
"g c #538326",
"h c #598627",
"j c #548A26",
"k c #5A8B26",
"l c #53842B",
"z c #59852B",
"x c #548B2C",
"c c #5A8C2C",
"v c #579027",
"b c #56922B",
"n c #5B912D",
"m c #56982C",
"M c #558331",
"N c #598531",
"B c #568C30",
"V c #5A8D31",
"C c #569230",
"Z c #5C9131",
"A c #608E2C",
"S c #61922F",
"D c #608E32",
"F c #609233",
"G c #848484",
"H c #8C8C8C",
"J c #939393",
"K c #9B9B9B",
"L c #A3A3A3",
"P c #ABABAB",
"I c #B4B4B4",
"U c #BBBBBB",
"Y c #C3C3C3",
"T c #CBCBCB",
"R c #D2D2D2",
"E c #DADADA",
/* pixels */
"zzzz**23gjlgww5w79933777zbkxoOOX+222dBfBxlll477qzjxk+Xo%cnSV*<,*",
"zzzw3223gllgw50w99993777zkczoOOX24<4Bffldlll599qjjxj+>>+nnnV3,,:",
"zzzz3*,7ldlsww0799993373jccjoXOO2>22dxfBlldl7977jjkj++X>xnnN,:,,",
"zzNw7326ljlhwqqw*9997873cjcl%X$;2424Mxflllzl7997zcck>X++VVnc**,,",
"2445gsllkcck;XX$9,93g8lg8s5g7qqq7777MdxlzBBz3373nnSc>o++93300zwg",
"4444dgddkSSk@O.O,113zlzlwssw0wq95078xxfxzBBz3137cFFn>XO+3997zlh0",
"4434gMlMSnccO...9,32ldgg88dd79w03975lxBlBccz5333SSnc+OO+3999gggz",
"344*8wdwnkSk@X;O,,3,zsgdgs850qq95054MBdxzcBl3333cSSc>>++3937wggw",
"2323>><6lxBdlfxf$-$:$$+%NBcN3,,,zkzzwzwwMldMw990nxZckkAkXXO@&8gw",
"3333+>++ffBfjxxf::#:;$;;zxcz*,**kkAcglMzlddlqqqwbnnncAAkXX.Osgww",
"2332>><>fddfxjxf:$$$#;X;cczD*%*,zczNzMM8dddlw0wwcBcncASc-OOOg0dd",
"3334+<>>llMdxxxx$$$$XX$%NNNz3*22zkhkwgdsMMdw000wVbnVcDcV@XXX8w88",
"lxzl48683422fldg9,,,2332$$$$8wd8:,%>O@@O2337zljxxjjxl8w8kcDz,$:1",
"xxll86863323gzwM3*933332--.XMlds$$$%.XXO1733xjxxxxvxw8wwSkAA>$;;",
"dxxl48383223wlzl33233732#-#$l8sl%%$$XXOO39,3xvbjfjfxd8wwncSA:$::",
"flfM877432,4MllM99333773;##%88f8%%%>OOOO33q3ljxjbfjfgw80AAAk1;;:",
"<<:,22,2,,7%ccjczzkzlxhjlffj3348BcnAwwwzZnnV4>62xcbx22,3vZZD4873",
"::>:,2+2,,<*cccckLKLLKKKKLLLLJHHJHGGHHHHJKKKKKKKJbjx22<3ZnFF5788",
">:%>2>22,,:2zccckKLLKKJKKLLLKKHJJGGGHHHJJJKKJKKKKbnc2,,3ZFFV4337",
"*%*>>2%2,3,3NccBxKLKKKKKKLLLKJHHHHGGHJHHJJKKKJJKJBxz22,2VFDVw878",
"09w03232%X;X&&&2lLLKLKKKKLLLLKJKJJHHJJJJJKKKJKJJK235wldg=sg53373",
"0000*&33;;O;2&&,xLKKKKKKKKKKLLLLLUUUUUUUUKKKKJJJJ323djfs54504888",
"0=00**3*>XO>2*&4jKKKKKKKJKJKKLPPPUYUUUYUIKKKKJHHJ735dffgs5558873",
"g500,*9,>$Xo2*>2xKKJKKLKKKKKLPPPPYYYYYYUULKKKJHJJ2238lgg5=554367",
"vvmZd6646666o>>>8KKKKLLKKLLKLPIIIUYYUUYUULKKKKJJJ>>>6464>;;>>>;>",
"mbbb+864d884%+o>7KKKLUYYYYYYTTRRRRTTTRRRTIUUIPLPP<>>6266;>$>;;;>",
"mmmC+4d+4686%o>>3KKJLUTYYTTYTREEETTTTTTTTIIUIPPPP2:>2446$X;O;$$X",
"BbbBdd+@8874%>o>7KKJLUTTTRTTREEEERRRRRRRRYUUIIPLP>>>2466>;>$%%>%",
"4435dddM2&23388q;LLKPYTYYTYYTRERRTTTTRTRTUUIIPPPP345MBxB>>>2><,>",
"3723wdd832*38ww7;UIPIYYYYUUUYYYYYIIIUYTYYPPPPPPPP445xBCf<><>,>,%",
"2337dddd,**%w8w8;UUUUYYYYUUUUYYUUPPPIYRTYIPPPPPPP445BBxx2>>>,%%>",
"43248d8M333,w78q;IUUUYYYYUUIUUYYYIPIIYTTYIPPLPPPL885fBxx>2>>,,,,",
"OOOo8sddBxBBllljxUUUUUUIUPPPIUYYYIIIIUUUULLKLPPPPjfg;;$>gzzz0w00",
"X-OX8888BBxCfxxlcYUYUytytytruIYTUYYRPiryytttyIUUUMfM$$$$zkAzhw0z",
"X-OX88d8xCCBljlxnYYYUtrreereyPYUYTYYIyrreeeetIUUUfxBo$$;zcDzh00g",
"XXOX8555BBMMjjjxxYYYIterrrteyURYTRTRYtetrrrryIUUIlll%$XXzzzwwgww",
"<,13zzzlXXX%xjncjYYUPuttrtytuPYIUYUYPutttrrtuLIUI+ooghlx33333333",
"2312zhzh;.$ocvnjfLPPIPIUUUUUIJHHHHHHJUYUUPLLKKJJJ>oozjgj2,2,9770",
"3133zhzh$X$XxjjcxLLLIUYYYTYRYGaGaGGaaTTTYPLPLJHJH$ooljlj32,39373",
",193zzz0o$X$cvvcfLPPPUYYYRTTYHGGGaGGJYTTRIPPPHHJH>o>gggg3,327373",
"kzlzg0ww7834xllx>LPPLIIPIIUUIGapGappHPYUILKKLHHKHggdO;>$4555,,,,",
"jhkj00h0w888zjxj>KLKKyytyttttttttrrttttytttttJHJHllwOOOX5555,,,,",
"klczhww08785zxxl+KKKJtrrrrrrrreeeeeeerrrrrrrtHJJJxzM+OOO5545,%,*",
"zzhl0w00885sllxl+LLLJre eeereereeeeeeeeee  erGJJJlgd%X+X40g5*3,,",
"+=&&%>>okczzgggsXJKJHyyrttrrrttrtttttttrtttyyHHHJdfB88w895009919",
"++++>;>+cnncgs05>GHHHppppaGaGaGGGHGHGGaGaHGHGHHHHdMdg5d500509qqq",
"++++>+++zckcgdgs$aaaaGGaGGGGGGGHGHJHHHGGHJJJJHGHHdfd8sgs09909qq9",
"+=+++6++xccc5ggs;GGGGGaaGGGGHGGHGJJJHHGGGJJJJGGGGfBdd58595303qq9",
"44432,32:>>+dfds8aGGaGaaGGGHGGGGGHJHHGGGHJJJJGGHG8d8%>,%X$.o8ssd",
"4483633<>++>dfdd8885gzwgzlgwoO>O2+22322,O;>+BxxxMddw%;$$.;XX8sss",
"47332133++++dddf8550gwzzldlMXXOX2+2%222*+@OoNBzz0sg8%>>>##.odssd",
"54542326>XO+dfddd555llz0wMww%oo+&+&*,,33o>>>zzllwww8%%>>XXXX4ssd",
"zxNMlzww$$X+dfdlghgsBfxx2<**wzdlf855%,%%zzwM05s05455lxBd>;;>858w",
"cccczzzz;$X;glMzhhlhxCff,,*%Bxxx555w>:>%zzDN54453735fjff++;>849q",
"ccccgzlwX$XOglllgggfxCxx,,,*ljfj0000%>:$AwwA0555*354xfxf>O;>q5w9",
"zxlxzlzl$XXOlfMdgggsBfxc2::*lxxzws50%::,qAww07504573BxBM>>;>w58w",
"X;;;kAAA>;:>>,2<%$:%0545VBBVcnnngg003237:$:;w0ww+42&xcccfxfBBxCx",
"X#$$Ancc<>:>2>2,:>%%5354CVbBnnnv0zzz2222-:-;wwzw++++xzccCdxfxbbx",
"--#XAASA%;>>,,,>%$$%75w8CVnbZbvvzzw03322-#-;www0s++2zkcjBBxBBBbB",
";;$%kAck,%>>>>,>%%%%5555VBVBVVcc0ggg,123$$;;whz0++2*lxcxfMfBxBBB",
"ccNc00993422>:>,BBNVVVCBd8s88050xZbx>XXX13q3ccxbfs=+s544*3434243",
"nmnF53073373>:>:xZnnxBxx88887580jcmxoXXO99q3cbjxs&=s55s553733,23",
"FZZn790*32*4:::,bCnZxZBB8888875wbCbxXXXX39q5vbxb4s=+s55433333371",
"FnSkw9073423:::>xZxVBVCdd8880758BVffXXXX19q7cvbv44ss44s=*5333<36"
};
