/* XPM */
static char *a0d221a126e04fa6d04067c224df74c7iA3jhEaiMtuIGd5c[] = {
/* columns rows colors chars-per-pixel */
"64 64 181 2 ",
"   c None",
".  c #181818",
"X  c #191919",
"o  c gray10",
"O  c gray11",
"+  c gray12",
"@  c #202020",
"#  c gray13",
"$  c #222222",
"%  c #232323",
"&  c gray14",
"*  c #252525",
"=  c gray15",
"-  c #272727",
";  c #282828",
":  c gray16",
">  c #2A2A2A",
",  c gray17",
"<  c #2C2C2C",
"1  c #2D2D2D",
"2  c gray18",
"3  c #2F2F2F",
"4  c #322722",
"5  c gray19",
"6  c #313131",
"7  c #323232",
"8  c gray20",
"9  c #343434",
"0  c #353535",
"q  c gray21",
"w  c #373737",
"e  c gray22",
"r  c #393939",
"t  c #3A3A3A",
"y  c gray23",
"u  c #3C3C3C",
"i  c gray24",
"p  c #3E3E3E",
"a  c #3F3F3F",
"s  c #4D2D1E",
"d  c #5D321D",
"f  c #46342C",
"g  c #45362E",
"h  c #49352A",
"j  c #48352E",
"k  c #4F382E",
"l  c #583C2C",
"z  c #533B30",
"x  c #523D31",
"c  c #593F32",
"v  c #513F38",
"b  c #643E23",
"n  c #633D26",
"m  c #58402F",
"M  c #504037",
"N  c #564034",
"B  c #5B4334",
"V  c #684126",
"C  c #6F422D",
"Z  c #6F482D",
"A  c #7C4223",
"S  c #714129",
"D  c #74472B",
"F  c #744A2D",
"G  c #76492F",
"H  c #624636",
"J  c #624736",
"K  c #6C4530",
"L  c #664937",
"P  c #6A4834",
"I  c #6B4934",
"U  c #694937",
"Y  c #6F4B34",
"T  c #6A4D39",
"R  c #694D3B",
"E  c #724C32",
"W  c #734D33",
"Q  c #744F35",
"!  c #7B5032",
"~  c #75513A",
"^  c #7B5138",
"/  c gray25",
"(  c #414141",
")  c gray26",
"_  c #434343",
"`  c #444444",
"'  c gray27",
"]  c #464646",
"[  c gray28",
"{  c #484848",
"}  c #494949",
"|  c gray29",
" . c #4B4B4B",
".. c #4C4C4C",
"X. c gray30",
"o. c #4F4E4D",
"O. c #4E4E4E",
"+. c gray31",
"@. c #505050",
"#. c #515151",
"$. c gray32",
"%. c #535353",
"&. c gray33",
"*. c #555555",
"=. c #565656",
"-. c gray34",
";. c #585858",
":. c gray35",
">. c #5A5A5A",
",. c #5B5B5B",
"<. c gray36",
"1. c #5D5D5D",
"2. c gray37",
"3. c #62564F",
"4. c #7F5B41",
"5. c #7A5A44",
"6. c #7B5C47",
"7. c #7B5D47",
"8. c #7C5F49",
"9. c #7C5E4D",
"0. c #615F5D",
"q. c #7D6049",
"w. c #7B6554",
"e. c #6F6661",
"r. c #696765",
"t. c #6D6863",
"y. c #6E6A67",
"u. c #7B6D62",
"i. c #796E66",
"p. c #75706B",
"a. c #7B7169",
"s. c #8B4E2C",
"d. c #875735",
"f. c #8D5E3F",
"g. c #9C6438",
"h. c #9B653D",
"j. c #B06C3A",
"k. c #835F46",
"l. c #876144",
"z. c #876348",
"x. c #936342",
"c. c #9A6944",
"v. c #936C4B",
"b. c #976C49",
"n. c #9B704D",
"m. c #816454",
"M. c #A46C41",
"N. c #A06D45",
"B. c #A9744A",
"V. c #B27647",
"C. c #B17947",
"Z. c #BF7E4D",
"A. c #A27451",
"S. c #A17552",
"D. c #A67B54",
"F. c #816E61",
"G. c #8D7663",
"H. c #89786A",
"J. c #947F6C",
"K. c #857F7C",
"L. c #8D837A",
"P. c #C68349",
"I. c #C38856",
"U. c #CB8A50",
"Y. c #CC8950",
"T. c #CE8A50",
"R. c #D18F54",
"E. c #CC915B",
"W. c #D89356",
"Q. c #D5935B",
"!. c #D8955B",
"~. c #D9945C",
"^. c #CC9867",
"/. c #D89860",
"(. c #DA9A63",
"). c #DC9B61",
"_. c #E4A367",
"`. c #E3A369",
"'. c #E9A468",
"]. c #988E85",
"[. c #AC9E8F",
/* pixels */
"                                                                                                                                ",
"                                                                                                                                ",
"  , , , 5 5 5 5 5 5 5 5 5 5 2 , , , , , , , , , , , , , , , , , , , , , , , , , , , , , , , , , 2 , , 5 5 5 5 5 5 5 5 5 2 , 2 , ",
"  , - 5 ( ` ` ` ` ( ` ` (  .( - 2 , , , , , , , , , , , , , , , , , , , , , , , , , , , - , , 2 , 5  .` ` ` ` ( `  ... .t , , , ",
"  , 5 i ` >.>.>.=.$.$.$.$.=.>.5 5 .... ............................................... .(  .$.( $ ( <.$.$.$.$.=...( (  .` t 2 , ",
"  , t ` $.i 9 t $.=.$.$.$.$.>. .2  .>.=.>.=.$.$.$.$.$.$.$.$.$.$.$.$.$.$.$.$.$.$.$.=.>.=.=.<.=.2 2 =.=.$.$.$.$.>.i - $ t =.( 5 - ",
"  , 9 $...9 i $  .>.$.$.$.$.$.>.t 2 $.>.i t ` ( ` ` ` ` ` ` ` ` ` ` ` ` ` ` ` ` ( 2 ( =.=.=.t -  .>.$.$.$.$.$.=.9 ( t 9 >.` 5 , ",
"  , 9 $.` ` =.,  .=.$.$.$.$.$.=.$.2 i >.2 5 .. . . . . . . . . . . . . . . . ...` + 9 >.=.` - t >.$.$.$.$.$.$.=.9 ` i 9 >.( 5 , ",
"  , 9 $. .( $.,  .=.$.$.$.$.$.$.>.( 2 $.( 2 5 5 5 5 5 5 5 5 5 5 5 5 5 5 5 5 5 5 5 2 ( <...9 2 $.=.$.$.$.$.$.$.=.9 ` i 9 =.( 5 , ",
"  , 9 $. .( $.,  .=.$.$.$.$.$.$.$.=.t i =.=.$.$.$.$.$.$.$.$.=.$.$.$.$.$.$.$.$.$.=.=.>.=.( , ( >.$.$.$.$.$.$.$.=.9 ` i 9 >.( 5 , ",
"  , 9 $. .( ..,  .=.$.$.$.$.$.$.$.>.` , ( .... ............. . . . . . .` ( ` ` ` ` ` i 2 5 =.=.$.$.$.$.$.$.$.=.9 ` i 9 >.( 5 , ",
"  , 9 $. .( $.,  .=.$.$.$.$.$.$.$.>. .$ , 5 5 5 5 5 5 5 5 5 5 2 2 2 2 2 2 2 2 2 2 2 2 , 5 ..>.$.$.$.$.$.$.$.$.=.t ` ( 9 >.` 5 , ",
"  , 9 $. .( ..,  .=.$.$.$.$.$.$.$.=...`  .`  . . . . . . . . . . . . . . . . . . . . . .$.=.$.$.$.$.$.$.$.$.$.=.9 ..` 9 >.` 9 , ",
"  , 9 $...- - -  .>.$.$.$.$.$.$.$.$.=.>.=.=.=.=.=.=.=.=.=.=.=.=.=.=.=.=.=.=.=.=.=.=.=.=.=.$.$.$.$.$.$.$.$.$.$.>.9 9 2 9 >.( 5 , ",
"  , 9 ..=.( ( ` $.=.$.$.$.$.$.$.$.$.$.$.$.$.$.$.$.$.$.$.$.$.$.$.$.$.$.$.$.$.$.$.$.$.$.$.$.$.$.$.$.$.$.$.$.$.$.=.( , , ( >.( 5 , ",
"  , 9  .=.>.>.>.$.$.$.$.$.$.$.$.$.$.$.$.$.$.$.$.$.$.$.$.$.$.$.$.$.$.$.$.$.$.$.$.$.$.$.$.$.$.$.$.$.$.$.$.$.$.$.$.=.=.=.=.$.` 5 , ",
"  , 9 ..=.$.$.$.$.$.$.$.$.$.$.$.$.$.$.=.=.=.=.=.=.=.=.=.=.=.=.=.=.=.=.=.=.=.=.=.=.=.=.=.$.$.$.$.$.$.$.$.$.$.$.$.$.$.$.=.$.( 5 , ",
"  , 9 ..=.$.$.$.$.$.$.$.$.$.$.$.$.$.$... ........................................... ...$.$.$.$.$.$.$.$.$.$.$.$.$.$.$.$.$.( 5 , ",
"  , 9 ..=.$.$.$.$.$.$.$.$.$.$.$.$.$.>.t $ , , , , , , , , , , , , , , , , , , , , , , , ..=.$.$.$.$.$.$.$.$.$.$.$.$.$.$.$.( 5 , ",
"  , 9 ..=.$.$.$.$.$.$.$.$.$.$.$.$.$.>.9 X $ $ $ $ $ $ $ $ $ $ $ $ $ $ $ $ $ $ $ $ $ $ $  .>.$.$.$.$.$.$.$.$.$.$.$.$.$.$.$.( 5 , ",
"  , 9 ..=.$.$.$.$.$.$.$.$.$.$.$.$.$.=.` t i i i i i i i i i i i i i i i i i i i i i t t ..=.$.$.$.$.$.$.$.$.$.$.$.$.$.$.$.( 5 , ",
"  , 9 ..=.$.$.$.$.$.$.$.$.$.$.$.$.$.$.=.>.>.>.>.>.>.>.>.>.>.>.>.>.>.>.>.>.>.>.>.>.>.>.>.$.$.$.$.$.$.$.$.$.$.$.$.$.$.$.$.$.( 5 , ",
"  , 9 ..=.$.$.$.$.$.$.$.$.$.$.$.$.$.=.i 2 5 5 5 5 5 5 5 5 5 5 5 5 5 5 5 5 5 5 5 5 5 5 5 ..=.$.$.$.$.$.$.$.$.$.$.$.$.$.$.$.( 5 , ",
"  , 9 ..=.$.$.$.$.$.$.$.$.$.$.$.$.$.>.9 X $ $ $ $ $ $ $ $ $ $ $ $ $ $ $ $ $ $ $ $ $ + $  .>.$.$.$.$.$.$.$.$.$.$.$.$.$.$.$.( 5 , ",
"  , 9 ..=.$.$.$.$.$.$.$.$.$.$.$.$.$.=.i 2 5 5 5 5 5 5 5 5 5 5 5 5 5 5 5 5 9 5 5 5 5 5 5 ..=.$.$.$.$.$.$.$.$.$.$.$.$.$.$.$.( 5 , ",
"  , 9 ..=.$.$.$.$.$.$.$.$.$.$.$.$.$.$.=.=.=.=.=.=.=.=.=.=.=.=.=.=.=.=.=.=.=.=.=.=.=.=.=.$.$.$.$.$.$.$.$.$.$.$.$.$.$.$.$.$.( 5 , ",
"  , 9 ..=.$.$.$.$.$.$.$.$.$.$.$.$.$.=.( 2 9 5 5 5 5 5 5 9 5 5 5 5 5 5 5 5 5 5 5 5 5 5 5 ..=.$.$.$.$.$.$.$.$.$.$.$.$.$.$.$.( 5 , ",
"  , 9 ..=.$.$.$.$.$.$.$.$.$.$.$.$.$.>.9 X $ $ $ $ $ $ $ $ $ $ $ $ $ $ $ $ $ $ $ $ $ $ $  .>.$.$.$.$.$.$.$.$.$.$.$.$.$.$.$.( 5 , ",
"  , 9 ..=.$.$.$.$.$.$.$.$.$.$.$.$.$.=.i 2 5 5 5 5 5 5 5 5 5 5 5 5 5 5 5 5 5 5 5 5 5 5 5 ..=.$.$.$.$.$.$.$.$.$.$.$.$.$.$.$.( 5 , ",
"  , 9 ..=.$.$.$.$.$.$.$.$.$.$.$.$.$.$.=.<.>.>.>.>.>.>.>.>.>.>.>.>.>.>.>.>.>.>.>.>.>.>.>.=.$.$.$.$.$.$.$.$.$.$.$.$.$.$.$.$.( 5 , ",
"  , 9 ..=.$.$.$.$.$.$.$.$.$.$.$.$.$.=. .i ( ( ( ( ( ( ( ( ( ( ( ( ( ( ( ( ( ( ( ( ( i ( $.=.$.$.$.$.$.$.$.$.$.$.$.$.$.$.$.( 5 , ",
"  , 9 ..=.$.$.$.$.$.$.$.$.$.$.$.$.$.>.9 X $ $ $ $ $ $ $ $ $ $ $ $ $ $ $ $ $ $ $ $ $ $ $  .>.$.$.$.$.$.$.$.$.$.$.$.$.$.$.$.( 5 , ",
"  , 9 ..=.$.$.$.$.$.$.$.$.$.$.$.$.$.>.i - , - - - - - - - - - - - - - - - - - - - - - -  .>.$.$.$.$.$.$.$.$.$.$.$.$.$.$.$.( 5 , ",
"  , 9 ..=.$.$.$.$.$.$.$.$.$.$.$.$.$.$.$.$. . . . . . . . . . . . . . . . . . . . . . . .$.$.$.$.$.$.$.$.$.$.$.$.$.$.$.$.$.( 5 , ",
"  , 9 ..=.$.$.$.$.$.$.$.$.$.$.$.$.$.$.=.=.>.>.>.>.>.>.>.>.>.>.>.>.>.>.>.>.>.>.>.>.>.>.>.$.$.$.$.$.$.$.$.$.$.$.$.$.$.$.$.$.( 5 , ",
"  , 9 ..=.$.$.$.$.$.$.$.$.$.$.$.$.$.=.i , 5 5 5 5 5 5 5 5 5 5 5 5 5 5 5 5 5 5 5 5 5 5 5 ..=.$.$.$.$.$.$.$.$.$.$.$.$.$.$.$.( 5 , ",
"  , 9 ..=.$.$.$.$.$.$.$.$.$.$.$.$.$.>.9 X $ $ $ $ $ $ $ $ $ $ $ $ $ $ $ $ $ $ $ $ $ + $  .>.$.$.$.$.$.$.$.$.$.$.$.$.$.$.$.( 5 , ",
"  , 9 ..=.$.$.$.$.$.$.$.$.$.$.$.$.$.=.( 2 5 5 5 5 5 5 5 5 5 5 5 5 5 5 5 5 5 5 5 5 5 2 5 ..=.$.$.$.$.$.$.$.$.$.$.$.$.$.$.$.( 5 , ",
"  , 9 ..=.$.$.$.$.$.$.$.$.$.$.$.$.$.$.=.=.=.=.=.=.=.=.=.=.=.=.=.=.=.=.=.=.=.=.=.=.=.=.=.$.$.$.$.$.$.$.$.$.$.$.$.$.$.$.$.$.( 5 , ",
"  , 9 ..=.$.$.$.$.$.$.$.$.$.$.$.$.$.$.$.=.=.$.$.$.$.$.$.$.$.$.$.$.$.$.$.$.$.$.$.$.$.$.$.$.$.$.$.$.$.$.$.$.$.$.$.$.$.$.$.$.( 5 , ",
"  , 9 ..=.$.$.$.$.$.$.$.$.$.$.$.$.$.=.( 2 5 2 2 2 2 2 2 2 2 2 2 2 2 2 2 2 2 2 2 2 2 , 2 ..=.$.$.$.$.$.$.$.$.$.$.$.$.$.$.$.( 5 , ",
"  , 9 ..=.$.$.$.$.$.$.$.$.$.$.$.$.$.>.9 X $ $ $ $ $ $ $ $ - F.f.x.m.5 - $ $ $ $ $ $ + $  .>.$.$.$.$.$.$.$.$.$.$.$.$.$.$.$.( 5 , ",
"  , 9 ..=.$.$.$.$.$.$.$.$.$.$.$.$.$.=.` 5 9 9 9 9 ..t.a.u.J.k.d A G G.H.i.y.0.i 9 9 9 9 ..=.$.$.$.$.$.$.$.$.$.$.$.$.$.$.$.( 5 , ",
"  , 9 ..=.$.$.$.$.$.$.$.$.$.$.$.$.$.$.=.>.>.>.>.].^.T.W.P.g.Y C s.M.U.T.R.C.D.[.<.>.<.>.$.$.$.$.$.$.$.$.$.$.$.$.$.$.$.$.$.( 5 , ",
"  , 9 ..=.$.$.$.$.$.$.$.$.$.$.$.$.$.$.$.$.$.$...w.j.~.`.).I.V.Z.Q.!././._.'.E.v.........$.$.$.$.$.$.$.$.$.$.$.$.$.$.$.$.$.( 5 , ",
"  , 9 ..=.$.$.$.$.$.$.$.$.$.$.$.$.$.=.t , 2 2 , 3.s S ^ l.b.n.S.S.B.N.c.h.d.U m , , , , ..=.$.$.$.$.$.$.$.$.$.$.$.$.$.$.$.( 5 , ",
"  , 9 ..=.$.$.$.$.$.$.$.$.$.$.$.$.$.>.9 X $ $ $ e.g v j h J L U U ~ 4.T J x N M $ $ + $  .>.$.$.$.$.$.$.$.$.$.$.$.$.$.$.$.( 5 , ",
"  , 9 ..=.$.$.$.$.$.$.$.$.$.$.$.$.$.=. .i i i i r.c z g 4 B 5.7.8.q.7.T k l b p.i i i i ..=.$.$.$.$.$.$.$.$.$.$.$.$.$.$.$.( 5 , ",
"  , 9  .>.>.>.>.$.$.$.$.$.$.$.$.$.$.$.=.>.>.>.>.>.K.9.K n V Z W Q W ! G D z.L.>.>.>.>.>.$.$.$.$.$.$.$.$.$.$.$.$.$.$.$.$.$.( 5 , ",
"  , 9 ..$.t 9 ( $.$.$.$.$.$.$.$.$.$.$.$.$.$.$.$.$.$.$.$.$.$.$.$.$.$.$.$.$.$.$.$.$.$.$.$.$.$.$.$.$.$.$.$.$.$.$.$.$.$.$.$.$.( 5 , ",
"  , 9 $.( - 2 , $.=.$.$.$.$.$.$.$.$.$.$.$.$.$.$.$.$.$.$.$.$.$.$.$.$.$.$.$.$.$.$.$.$.$.$.$.$.$.$.$.$.$.$.$.$.$.=.>.=.=.$.$.( 5 , ",
"  , 9 $.i ( =.5 $.=.$.$.$.$.$.$.$.$.$.$.$.$.$.$.$.$.$.$.$.$.$.$.$.$.$.$.$.$.$.$.$.$.$.$.$.$.$.$.$.$.$.$.$.$.=...9 9 t $.=.( 5 , ",
"  , 9 $.( i ..5 $.=.$.$.$.$.$.$.$.$.=.>.=.=.=.=.=.=.=.=.=.=.=.=.=.=.=.=.=.=.=.=.=.=.=.=.>.=.$.$.$.$.$.$.$.$.>.( , 9 - $.=.( 5 , ",
"  , 9 $.( i ..5 $.=.$.$.$.$.$.$.$.=. .9 t t t t t t t t t t t t t t t t t t t t t t t 9 t $.=.$.$.$.$.$.$.$.>.( t $.5 ..=.( 5 , ",
"  , 9 $.( i ..5 $.=.$.$.$.$.$.$.$.>.( $ 5 5 2 2 2 5 5 5 2 2 5 2 2 2 5 2 , 2 2 2 2 2 5 5 - ( >.$.$.$.$.$.$.$.>.( t $.5 ..=.( 5 , ",
"  , 9 $.( i ..5 $.=.$.$.$.$.$.$.$.>.i 9 $.>.=.=.=.=.=.=.=.=.=.=.=.=.=.=.=.=.=.=.=.=.>...t 2 $.=.$.$.$.$.$.$.>.( t ..2 ..=.( 5 , ",
"  , 9 $.( i ..5 $.=.$.$.$.$.$.$.>. .2  ...( i i i i i i i i i i i i i i i i i i i i  .=.( 2 i >.$.$.$.$.$.$.>.( t ..2 ..=.` 5 , ",
"  , 9 $.i ( =.2 $.=.$.$.$.$.$.=.=.5 9 =.9 2 i i i i i i i i i i i i i i i i i i i 5 5 =...t 2 ..=.$.$.$.$.$.>.( i =.5 ..=.` 5 , ",
"  , 9 $.( 2 9 2 $.=.$.$.$.$.$.>.i ,  .>.5 t .. . . . . . . . . . . . . . . . . ...i 5 =.=.` 2 t >.$.$.$.$.$.>.( 5 ( , ..>. .5 - ",
"  , 9 $...2 2 i =.$.$.$.$.$.=.$., t =.=. .i ( ( ( ( ( ( ( ( ( ( ( ( ( ( ( ( ( ( ( i ` =.=.$.i 2 ` >.$.$.$.$.=. .2 2 9 =.$.` 9 , ",
"  , 5 ( =.<.>.>.=.=.=.=.=.=.>.9 5 =.>.=.>.<.<.<.<.<.<.<.<.<.<.<.<.<.<.<.<.<.<.<.<.<.<.=.=.>...9 5 =.>.=.=.=.=.=.$.=.>.$.` t , , ",
"  , , t ` .. . . . . . . ... .2 5 9 9 9 9 9 9 9 9 9 9 9 9 9 9 9 9 9 9 9 9 9 9 9 9 9 9 9 9 9 9 5 - ( $. . . . .........` t , , , ",
"  , , 5 t 9 9 9 9 9 9 9 9 9 t 5 - - - - - - - - - - - - - - - - - - - - - - - - - - - - - - - , , 9 t 9 9 9 9 9 t 9 t 9 , , 2 , ",
"  , , , , , , , , , , , , , , , , , , , , , , , , , , , , , , , , , , , , , , , , , , , , , , , , , , , , , , , , , , , , , , , "
};
