/* XPM */
static char *result[] = {
/* columns rows colors chars-per-pixel */
"64 64 240 2 ",
"   c #060607",
".  c #0A0602",
"X  c #0E0903",
"o  c #06090B",
"O  c #090B0B",
"+  c #160C03",
"@  c #1B0F03",
"#  c #150E08",
"$  c #1E1104",
"%  c #14120E",
"&  c #1C140C",
"*  c #040B14",
"=  c #0A0D13",
"-  c #0C041D",
";  c #060E19",
":  c #0B1215",
">  c #06121B",
",  c #0B131B",
"<  c #09161A",
"1  c #161718",
"2  c #251403",
"3  c #251608",
"4  c #23190D",
"5  c #371D02",
"6  c #381E03",
"7  c #261C11",
"8  c #281D11",
"9  c #3E2307",
"0  c #2C2215",
"q  c #2F2518",
"w  c #312515",
"e  c #3A2A17",
"r  c #352A19",
"t  c #3C2C1C",
"y  c #0C1422",
"u  c #0B1B23",
"i  c #181C26",
"p  c #120A36",
"a  c #2D153A",
"s  c #172228",
"d  c #0D2A34",
"f  c #262827",
"g  c #312E2E",
"h  c #3B3628",
"j  c #252932",
"k  c #36393A",
"l  c #452606",
"z  c #4A2806",
"x  c #482808",
"c  c #552E06",
"v  c #473211",
"b  c #42311B",
"n  c #4B3718",
"m  c #473D1D",
"M  c #4B3C1D",
"N  c #543B16",
"B  c #533E1A",
"V  c #463C21",
"C  c #463926",
"Z  c #4B3C22",
"A  c #533E22",
"S  c #593F24",
"D  c #463D38",
"F  c #4C401D",
"G  c #594017",
"H  c #54411C",
"J  c #5B431C",
"K  c #5E501F",
"L  c #624C1F",
"P  c #4B4126",
"I  c #554222",
"U  c #5B4324",
"Y  c #5D4D25",
"T  c #56472C",
"R  c #5C4D2C",
"E  c #5E5125",
"W  c #5E512C",
"Q  c #484438",
"!  c #5B4C32",
"~  c #5C5338",
"^  c #634E25",
"/  c #6A4B26",
"(  c #634E2B",
")  c #635125",
"_  c #6A5425",
"`  c #63512B",
"'  c #6B542B",
"]  c #6D582B",
"[  c #72562A",
"{  c #755B2D",
"}  c #7B5C2D",
"|  c #614D32",
" . c #675535",
".. c #6C5331",
"X. c #755531",
"o. c #735C32",
"O. c #7C5C33",
"+. c #745F39",
"@. c #7B612E",
"#. c #7A6134",
"$. c #7B673D",
"%. c #023A48",
"&. c #0E2B58",
"*. c #393A45",
"=. c #29086B",
"-. c #280174",
";. c #2C007E",
":. c #330D77",
">. c #0D3061",
",. c #024D5E",
"<. c #09505E",
"1. c #3C4345",
"2. c #015164",
"3. c #015E77",
"4. c #046177",
"5. c #01627B",
"6. c #10667C",
"7. c #2E777D",
"8. c #454B4B",
"9. c #5B5544",
"0. c #4E5255",
"q. c #4D5158",
"w. c #515C5C",
"e. c #645C45",
"r. c #6B6649",
"t. c #6D644A",
"y. c #786646",
"u. c #6B6551",
"i. c #726752",
"p. c #556F69",
"a. c #636B69",
"s. c #6C7966",
"d. c #76776D",
"f. c #777874",
"g. c #815E34",
"h. c #8E632E",
"j. c #90642F",
"k. c #826233",
"l. c #86663A",
"z. c #896438",
"x. c #846D3D",
"c. c #8A6E3E",
"v. c #966A33",
"b. c #87713E",
"n. c #8C713D",
"m. c #93733D",
"M. c #99753E",
"N. c #A5753B",
"B. c #AC7B3F",
"V. c #876743",
"C. c #846C42",
"Z. c #8C6D43",
"A. c #906E42",
"S. c #857144",
"D. c #8C7244",
"F. c #8F7844",
"G. c #8D7349",
"H. c #927344",
"J. c #9B7645",
"K. c #957A45",
"L. c #9B7A46",
"P. c #93754A",
"I. c #9A774B",
"U. c #967A4B",
"Y. c #9B7A4B",
"T. c #867756",
"R. c #967A51",
"E. c #9B7A50",
"W. c #A37A46",
"Q. c #A67945",
"!. c #A37C4A",
"~. c #A17950",
"^. c #885A60",
"/. c #807E6E",
"(. c #788471",
"). c #AC824C",
"_. c #A6884B",
"`. c #AC8A4D",
"'. c #B78648",
"]. c #B58B4E",
"[. c #BB894C",
"{. c #A78855",
"}. c #AD8B54",
"|. c #AD8B5B",
" X c #B18B54",
".X c #BA8A50",
"XX c #B28C5A",
"oX c #AF9057",
"OX c #8D8667",
"+X c #A58C68",
"@X c #AB9665",
"#X c #AA956B",
"$X c #B4966B",
"%X c #AF9871",
"&X c #B39673",
"*X c #B39A72",
"=X c #B99D76",
"-X c #C58F4D",
";X c #C6904D",
":X c #C8924E",
">X c #CB9755",
",X c #CF9855",
"<X c #D69D57",
"1X c #D89F57",
"2X c #D49E59",
"3X c #D89F58",
"4X c #D7A05B",
"5X c #DBA159",
"6X c #E9AA5D",
"7X c #2D0488",
"8X c #350C87",
"9X c #340098",
"0X c #281B93",
"qX c #1D3597",
"wX c #2C1BA3",
"eX c #135196",
"rX c #016D89",
"tX c #02738E",
"yX c #017794",
"uX c #3D7786",
"iX c #0973A6",
"pX c #047FA9",
"aX c #3C8E92",
"sX c #0184A5",
"dX c #0286A9",
"fX c #0089AA",
"gX c #188FAD",
"hX c #51918C",
"jX c #6AA5AD",
"kX c #57AAC0",
"lX c #96958D",
"zX c #939392",
"xX c #A69B8F",
"cX c #ADA595",
"vX c #D1B895",
"bX c #C6C3B2",
"nX c #DACBB7",
"mX c #E8CFAC",
"MX c #BCCFD4",
"NX c #D8D9D9",
/* pixels */
"; * ; , : s u < y d d > ; * * * o * * * ; * - * * ; * ; ; * * ; ; * * ; ; ; ; * ; * * * ; , > > s > * > i ; * * * * * * * * ; y ",
"* C C Z V Z M Z V V P C C C C C V m m m V Z C C Z C M M m V V C Z V V m m V P V V V m V P M F M V C C C C Z C Z V V V Z C Z Z Z ",
"> Z V Z M Z m I V V V Z C Z V Z M n m M M C Z Z C M V m M M Z C Z Z M Z m Z m m M Z Z m m M m m Z C C C C Z V V Z P V V C A Z C ",
"; V V Z n m n m m M F Z A M M M M M M Z Z A A Z M Z Z Z M Z M B Z M M Z Z Z M Z Z Z Z Z M Z Z Z A Z A A A B M M n M n M M M Z A ",
"* M m M N H H J H I J H I H B H G H I B A U I I S S I U I I H J H G H H H H I I I I A I I H H H B S J J I I I H H G H U U n M A ",
"* W W R ` $.x.y.y.G.G.G.S.C.C.x.x.C.C.C.C.S.G.S.G.G.G.G.G.G.F.F.n.x.x.l.x.G.G.G.G.C.C.C.C.y.C.C.x.H.F.G.S.S.S.y.C.G.G.G.Z.' ( R ",
"; W W ` ' y.F.G.G.R.OXU.U.F.n.n.n.Z.D.n.F.K.F._.U.U.Y.R.U.U.L.K._.b.c.c.F.G._.F.U.S.D.S.n.D.b.D.c.L.L.U.K.G.S.S.D.U.Y.Y.P.' ( R ",
"< W ` E ' S.G.D.G.U.R.R.P.D.D.n.c.G.Z.Z.D.P.F._.U.Y.R.I.U.Y.Y.K.K.b.H.n.G.K.U.R.U.Z.D.D.D.Z.D.D.n.L.L.U.U.G.S.G.G.U.K.I.K.' ` W ",
"* Y E K _ y.C.C.D.S.H.G.D.Z.x.x.c.Z.V.x.Z.F.F.K.P.P.P.I.E.I.I.U.K.H.H.Z.A.P.G.I.P.V.V.C.x.C.x.x.x.m.m.K.D.S.C.Z.n.L.J.J.K.( ( R ",
"* F F F H o.O.O.X.^ J J H ' _ _ _ _ ` ' _ ) _ _ / O.g.g.g.E.I.I.Y.Y.Y.Y.P.L B B J ' ' ' ] ' ) ] _ [ _ _ ] o.#.O.} Z.m.H.k.J M V ",
"* m m N H ] +.o.X.B N n B ( ` ` ( ( ^ ) ) K E ) ' X.X.} O.I.E.I.Y.Y.U.E.G.G N N B ( ( R ` ` E E ) ^ _ ` ` o.o.o.#.c.m.H.l.J B F ",
"o m M M F o.o.o.X.B N M I T R ! ! W Y W W E E ) ^ { } } g.I.I.I.U.Y.Y.E.D.G N v N R ` W W W E W W Y | R R o.o.{ } c.A.Z.$.B m m ",
"> F M m H o.#.+.o.B B Z Z t.i.i.t.t.r.t.r.r.r.$.+.+.o.} g.A.J.I.U.P.P.U.C.U H F I  . .9.9.9.~ r.r.r.u.t.y.+.#.g.k.n.n.G.y.U F F ",
"< ! W ) ' D.G.U.G.' ( ! e.k , y : O X O % : 1 f Q r r r e w w w q q 0 0 0 & & 4 7 1   o   O   X   o O O D #X|.{._.n.b.D.C.` Y R ",
"* W ( ^ ' G.U.U.G.' ( T e.i * * . . . + X . . X + @ @ X X $ $ 2 2 2 2 2 2 2 2 2 3 3 2 3 2 2 2 3 2 $ $ X i #X|.oX}.m.b.S.S.' ` ` ",
"* ` ^ ^ _ D._.U.P.'  .| u.s y =   X @ @ @ @ @ # 2 5 6 @ + l z z c c c c c c c c c c c c c c c c z z l + 0 *XXX X_.m.b.F.y.` ^ ^ ",
"* ` ) L [ m.U.U.F.' E R i.j s , O + @ @ @ @ @ @ 2 6 6 @ @ c c c c c c c c c c c c c c c c c c c c c c @ f &X|.`.}.m.b.b.y.` ) _ ",
"; K K ) _ c.D.G.S.' W W r.i < <   X @ @ $ @ $ @ 2 5 6 @ @ z c c c c c c c c c c c c c c c c c c c c z + 8 $X}.|.{.F.n.b.b.' ` ) ",
"* ) K ) ' V.G.Z.S.] E W r.i : u o . @ $ @ $ @ + 2 6 6 @ + l c c c c c c c c c c c c c c c c c c c z l @ f +X}.|.|.F.c.n.x. .W ) ",
"; ` ) ( ' V.Z.G.S.) E W r.s ; *   + @ @ $ + $ $ 2 5 6 @ + l l z z z z z z z l z z z z z z x x x z z l + f $X X X}.H.c.n.x...| ( ",
"; ` ( ( ' V.Z.G.x.) ) W t.i y >   X @ @ + $ $ + 2 6 6 @ + l / g.X.X.X.X.X.X.X.X.X.X.X.X._ [ X.X.X./ l # g $X}. X}.m.m.m.n. .W ` ",
"; ( ^ ^ _ x.D.c.b._ ) W u.k ; >   . $ @ $ + @ $ 2 6 6 @ + l g.~.!.!.!.!.!.Q.!.!.!.!.!.Q._._.Q.Q.J.g.x + g &X X X X_.M.M.n...W W ",
"; ` ) ^ _ x.D.n.b.) ) | u.1.< <   X @ @ @ @ @ @ 2 6 9 @ + x z.~.1X1X1X1X1X<X1X2X<X2X4X3X1X<X<X,XQ.g.x # k =XXX X].W.M.L.F.] W ) ",
"* ` ` ) _ x.D.n.x.) ) ` t.0.< <   X @ @ $ @ @ @ 2 9 X.t 7 g.Q.,X1X1X1X1X1X1X1X<X1X6X6X6X6X6X1X<X<X'.O.7 D =XXXXX}.L.K.L.F.` W E ",
"* R R R / $.Z.C.x.' ) ` +.bXw.8.1 X $ $ @ @ @ @ 2 l V.t 0 Q.<X2X$X&XOXd.s.s.{.4X<X6X>X(.(.(.(.#X$X$X!.w e.$X{.{.{.U.P.K.Z.| W Y ",
"* Z V F A | ' ' ^ { { o.$.#X%X#Xr X @ @ $ @ @ @ 2 c V.t b ,X3X=XzXzXuX3.4.5.p.4X<X5X+X4.4.4.6.zXzXxX2Xe Q L.m.m.c.] ' '  .Z V P ",
"* V Z Z Z ( ( ' ^ o.o.@.@.{.oX{.w X @ @ @ @ @ @ b V.V.t x ,X1XvXNXNXkXdXsXsXhX5X<X<X#XdXsXsXgXMXNXnX>Xe Z M.v.n.Z.'  .( | Z Z Z ",
"; V m M M ( ( ' ^ o.{ { @._.`._.w X @ $ @ @ @ # Z Z.Z.t l :X1XvXNXNXkXfXfXfXhX5X2X2X#XdXsXsXgXMXNXnX2Xe Z M.c.D.x.` ( ( | Z P Z ",
"* F M F G ` ' ..' O.O.O.k._.`.`.w X @ @ @ @ # 3 S V.V.b b ,X<XvXnXnXjXaXhXaX(.oX-X-X+XhXaXaXhXbXnXmX,Xe Z J.m.H.S.] ......F F I ",
"> W E Y _ S.F.G.P.Z.Z.Z.Z.E.!.J.w X $ $ $ $ 2 b X.V.V.t e ,X3X3X5X5X5X,X>X2X].P.A.A.E.>X2X2X2X<X4X4X,Xe Z J.J.P.R.R.G.P.Z.` E Y ",
"> R ) ^ _ G._.U.R.H.Z.Z.G.U.I.H.0 & m n n n C B ..V.A.t e ,X<X<X1X<X<X5X5X5X].Z.Z.V.I.3X4X2X<X<X<X<X,Xe b I.Y.Y._.R.Y.E.P._ K ) ",
"> ` ` ^ ' K.K.P.U.D.Z.G.P.I.Y.I.0 8 H I A I A A ..V.A.b e ,X<X3X5X<X;X'.'.'.'.)..X!.Q.'.'.'.-X,X3X<X,Xe C !.Y.K.K.F.L.U.P._ ) ) ",
"y ( ' ^ [ H.U.K.Y.H.H.Z.P.H.I.H.q 8 A A A A A A ..Z.Z.t e ,X5X<X<X<XB.h.h.h.B.<X<X4X;Xj.h.h.v.>X5X<X>Xe b U.L.L.L.L.K.I.A._ ( ( ",
"y ( ( / [ P.Y.Y.Y.I.I.Y.Y.!.I.J.8 8 I A S I A A ..Z.Z.t e <X<X<X<X1XB.h.h.h.B.<X1X4X;Xj.h.h.v.>X5X<X,Xe C H.A.D.S.D.Z.m.c.' ` ` ",
"* ( ^ ^ [ P.E.Y.Y.I.I.Y.Y.!.Y.L.0 8 I A A A A A ..V.Z.t e ,X5X<X1X<XB.h.h.j.v.B.B.B.N.h.h.h.v.,X1X1X,Xe C c.c.S.S.S.D.H.c.` R ` ",
"* ( ( ( _ P.Y.Y.Y.E.Y.R.Y.I.Y.P.8 8 A A A I A A X.V.Z.t e ,X<X<X<X5XB.h.h.h.h.h.h.h.h.h.h.h.v.,X1X1X,Xe V D.c.b.G.D.c.c.c.` ( ` ",
"= ` ` ) ' G.U.L.P.U.H.G.G.K.P.G.0 7 A A A A A A ..V.A.b e ,X4X5X<X5XB.h.j.j.j.j.j.j.j.j.j.j.v.,X1X1X,Xe h c.c.c.Z.G.A.H.c.' W ` ",
"> ` ( ^ _ Z.H.D.Z.J N H U ( ` ` 4 7 U A S A A A ..A.V.b e <X4X5X5X5X,X;X;X;X;X;X;X;X;X;X;X;X:X1X5X5X2Xe w { } @.} K.I.J.H.' W ^ ",
"> E ) ^ ^ x.D.c.x.G N N H Y ! ! & # e r e w e e C S S 8 8 k.z.l.l.z.z.z.z.l.h.l.l.z.z.z.z.z.z.z.h.l.g.7 w [ @.} O.U.I.L.P.' ^ ) ",
"; ` ` ^ _ c.H.Z.x.G N v M ! ! T & . . . . . . . . X X     X   o   O O O O & & & & % O O O O O O . . . X r [ } } } L.I.!.K.' E ) ",
"o R ` ( _ Z.H.Z.V.J M M T e.~ % . . . + + + + + + + + + 1 d d %.%.,.,.,.<.T.-X[.[.w.,.,.,.2.,.%.1 + & ! +.#.@.k.k.J.J.W.H.' ^ ) ",
"u ( ( ( _ P.Y.Y.P.' U R e.; , . 4 0 r A / g.} g.g.} g.x 1 %.3.5.4.tXtXtXyXp.s.s.(.7.tXtXtXtXrX2.8.^ $ 1 f.+X{.{._.!.Y.W.I.' W ` ",
"u | ( ' ' P.P.U.P.o.| | i.* = X b A U V.[.1X1X1X3X3X3X/ < %.tXfXfXfXfXfXfXrX5.5.4.sXfXfXfXfXsX4.OXB.3 : j *X$XXX|.J.L.L.K.` ` ( ",
"* W | ` ' P.E.E.P./ R ! i.= = . b I U V..X1X1X<X3X<X3X^ > ,.yXfXfXfXfXfXfXdXsXsXsXfXfXsXdXfXsX4.(.B.3 : j *X|.|.{.Y.L.I.I. .W ` ",
"; ! R ^ ( P.Y.U.G.' ( ! u.o * X b S S V.'.3X3X<X<X1X3XU * %.yXdXfXfXdXfXfXdXfXfXsXsXdXdXfXfXsX2.OXQ.@ : k %X|.|.|.L.J.J.H.` R R ",
"* Z M M J C.D.G.Z.J B Z e.* * O b A S V..X3X<X3X3X<X3XU * &.eXiXfXfXdXdXfXfXfXdXfXfXdXdXdXpXeX>.S.M.X * 1.+XR.U.L.H.H.H.V.U I Z ",
"* m m m H $.Z.c.x.B n C 9.> = X t I U V..X1X3X<X<X1X2XU - =.7XqXsXpXpXpXdXdXpXpXsXdXsXdXdXeX9X-.^.M.# < 8.+XU.L.L.n.c.c.C.H M m ",
"; V P M J x.D.D.x.G M V 9.s > X b A T g..X3X<X3X1X<X1XU - -.7X8X0X0X0X0XwXwXwXwXwXwX0X0X0X8X7X-.a 4 O < w.+XI.L.L.m.H.c.y.A Z M ",
"> Z V M H C.S.b.x.G F P 9.d < X b A S V..X3X3X3X3X3X3XU - =.;.7X;.-.;.7X9X9X9X9X9X9X9X7X;.;.;.-.p o : u 0.+XY.Y.L.m.m.Z.C.I I m ",
"* ! W ` ( x.D.b.x.E E T r.j : X e Z Z X.Q..X[.[.[.[.[.A - =.=.=.=.:.=.=.8X8X9X8X8X8X:.:.=.=.=.=.p > d d a.&X|.}.`.W.L.U.P._ Y Y ",
"* | ` ( ' x.D.D.S.' ` ! i.*.* . X + + # # 3 & & & & & X i q.q.*.g g.D j *.*.1.q.q.q.w.q.q.1.i y y > < y s.*XoXoX`.W.L.Y.G.] E E ",
"u ` ( (  .C.Z.D.C.) ` R t.f.; = O = : 1 i f 8.8.8.8.8.8.q.a.a.0.g Z.P s j j 1.a.a.a.a.a.a.8.i i i = * ; lX*X@X].XX!.!.E.P.' ( ` ",
"> W ` ( ' C.F.G.Z._ ' ` y.nXlXlXf.a.a.*.k 0.f.f.zX/./././.d.d.u.Q D.~ h h h Q s.d.zXf.f.f.a.q.zXzXlXxXcXmX=XoX`.}.W.I.P.G...| | ",
"; ) ) ) _ D.K.Y.P.} { [ +.+X+X+X+X*X$X$X%X%X%X$X$X{.!.Q.!.W.I.Y.U.n.x.D.x.{ ] ] $.OX+X+X+X&X&X=X=X=X*X*X=XoXoX].`.M.m.H.S.' ) ` ",
"; ) ) K [ K.L.Y.K.k.{ { k.G.G.R.Y.}.`.oXoX}.oXoX).L.W.I.W.W.E.E.U.D.n.n.b.{ } { O.P.R.R.I.|.|.XX|.|.|.{.].`.].].).v.n.n.C.' ) ` ",
"* E K ) _ G.Y.U.K.} } { O.P.E.E.Y. X`.oXoX`.`.}.{.W.I.W.I.E.I.E.U.D.D.D.x.@.@.{ O.U.Y.I.~.|.XXXXXX|.|.XXoX].].].].m.Z.Z.C.' ` ( ",
"; W ) ) ..G.R.R.I.g.g.O.k.Y.I.I.~.|.).XX|._.`.}. XW.I.~.I.Y.Y.U.U.D.b.D.b.{ @.@.k.I.U.I.!.XX X X X X X X). X X X}.H.G.S.S. .` ` ",
"o E E ` ( G.A.P.A.P.I.P.P.L.I.W.W.~.~.~.Y.W.L.K.I.A.A.Z.H.J.U.J.K.D.D.Z.D.K.K.K.K.U.U.Y.Y.L.L.L.W.W.I.W.W.W.W.!.Y.F.F.y.S.` ` ( ",
"< ` E ` ( Z.Z.G.A.R.U.U.U.I.I.L.!.E.E.Y.Y.Y.L._.U.A.Z.A.P.I.E.I.K.H.n.D.F.K.U.U.U.Y.Y.Y.Y.!.L.W.I.W.W.W.!.Y.I.Y.Y.D.S.S.S.` ) ^ ",
"< E E ) ` S.C.G.A.R.U.U.U.L.U.L.I.Y.I.L.L.L.L.L.Y.A.A.A.P.P.E.I.L.Z.c.m.H.K.L.Y.U.I.Y.Y.U.I.I.L.J.I.Y.L.Y.Y.I.I.U.D.F.S.y.) ) Y ",
"> W E ` ( $.y.C.y.G.G.S.G.G.G.H.H.G.H.P.H.G.G.P.P.Z.V.C.C.G.R.R.G.V.x.x.n.D.G.H.P.G.G.G.G.G.G.H.G.G.G.H.P.P.G.G.G.x.y.y.$.E E E ",
"; V M M M U U I Y I I I J I U U U I H I J I H I I F Z I H I S S I I B H F H H J H U I I I U I I I U A U S S S S I I I I Y F F P ",
"> Z V Z Z M M V Z M Z m M Z M Z A Z M Z V V V Z V m P m m M Z Z Z Z V P P M P F Z Z Z Z Z Z V Z M V Z Z C A Z A Z V M m M Z P V ",
"* V M Z Z M M M M m m m m M Z Z Z M M Z Z Z V V P m m F m m M M Z Z V V m V M M Z Z Z Z Z C Z M M V M Z Z A Z Z Z M M m m V V Z "
};
