/* XPM */
static char *result[] = {
/* columns rows colors chars-per-pixel */
"64 64 213 2 ",
"   c #0A0602",
".  c #070807",
"X  c #0F0A03",
"o  c #080C0C",
"O  c #160C03",
"+  c #1B0F03",
"@  c #140E08",
"#  c #1E1104",
"$  c #12110A",
"%  c #1C140B",
"&  c #161E09",
"*  c #0B041C",
"=  c #091515",
"-  c #171A17",
";  c #251403",
":  c #2B1907",
">  c #25190C",
",  c #381E03",
"<  c #271C10",
"1  c #281D11",
"2  c #1A240C",
"3  c #1C2A0D",
"4  c #322515",
"5  c #372916",
"6  c #3A2A17",
"7  c #3C2C1C",
"8  c #243412",
"9  c #273B14",
"0  c #293C15",
"q  c #262B29",
"w  c #2B3925",
"e  c #282637",
"r  c #452606",
"t  c #4A2806",
"y  c #482808",
"u  c #552E06",
"i  c #452E15",
"p  c #4C3012",
"a  c #42311B",
"s  c #49351C",
"d  c #4F3B22",
"f  c #543F22",
"g  c #314918",
"h  c #3A5A1D",
"j  c #3D641E",
"k  c #3E691D",
"l  c #334728",
"z  c #375222",
"x  c #3D6321",
"c  c #3F6A22",
"v  c #3E6329",
"b  c #41641E",
"n  c #426B1E",
"m  c #43721E",
"M  c #4B751F",
"N  c #554022",
"B  c #5C4426",
"V  c #5A442C",
"C  c #415F22",
"Z  c #43553D",
"A  c #6A4A26",
"S  c #7D592F",
"D  c #6C5131",
"F  c #755431",
"G  c #7D5B35",
"H  c #426521",
"J  c #486724",
"K  c #446B22",
"L  c #496D23",
"P  c #496C29",
"I  c #467223",
"U  c #4A7425",
"Y  c #477925",
"T  c #4C7B25",
"R  c #457429",
"E  c #4C7628",
"W  c #4D7B29",
"Q  c #507725",
"!  c #517C26",
"~  c #517728",
"^  c #527C2A",
"/  c #4C7032",
"(  c #023A48",
")  c #0E2B58",
"_  c #373946",
"`  c #27056B",
"'  c #2C0D6D",
"]  c #280174",
"[  c #2F0F72",
"{  c #2C007E",
"}  c #0D3061",
"|  c #024D5E",
" . c #09505E",
".. c #015164",
"X. c #015E77",
"o. c #046177",
"O. c #01627B",
"+. c #10667C",
"@. c #454C4B",
"#. c #495A44",
"$. c #4B5252",
"%. c #50535E",
"&. c #516651",
"*. c #60745D",
"=. c #4F5160",
"-. c #547A6E",
";. c #626D6C",
":. c #637563",
">. c #667C62",
",. c #6D7C64",
"<. c #805D37",
"1. c #8E632E",
"2. c #90642F",
"3. c #85623A",
"4. c #896438",
"5. c #966A33",
"6. c #A5753B",
"7. c #AC7B3F",
"8. c #856540",
"9. c #8D6B44",
"0. c #9B7548",
"q. c #867756",
"w. c #A97A43",
"e. c #A47C4A",
"r. c #885A60",
"t. c #4D8226",
"y. c #4E832A",
"u. c #4F8829",
"i. c #538226",
"p. c #598627",
"a. c #548926",
"s. c #5A8B26",
"d. c #53842B",
"f. c #59852B",
"g. c #558B2C",
"h. c #5A8C2C",
"j. c #56922B",
"k. c #57942A",
"l. c #5B912D",
"z. c #588631",
"x. c #568C30",
"c. c #5A8D31",
"v. c #569230",
"b. c #5D9131",
"n. c #608E2C",
"m. c #61922F",
"M. c #608E32",
"N. c #609233",
"B. c #788365",
"V. c #748F77",
"C. c #9A8B5E",
"Z. c #AC814C",
"A. c #B98646",
"S. c #B5854B",
"D. c #B7884F",
"F. c #BB894C",
"G. c #A28F5F",
"H. c #B88950",
"J. c #838665",
"K. c #AB9166",
"L. c #A5976C",
"P. c #B79872",
"I. c #C58F4D",
"U. c #C6904D",
"Y. c #C8924E",
"T. c #C29052",
"R. c #CD9752",
"E. c #CF9855",
"W. c #CE9B5A",
"Q. c #D69D57",
"!. c #D89F57",
"~. c #D49E59",
"^. c #D89F58",
"/. c #D7A05B",
"(. c #DBA159",
"). c #E9AA5D",
"_. c #D1A670",
"`. c #2E0185",
"'. c #2C0D8F",
"]. c #350C87",
"[. c #340096",
"{. c #37009E",
"}. c #271B91",
"|. c #2A1B99",
" X c #1D3597",
".X c #2C1BA3",
"XX c #135196",
"oX c #016D89",
"OX c #02738E",
"+X c #017794",
"@X c #3D7786",
"#X c #0973A6",
"$X c #047FA9",
"%X c #3C8E92",
"&X c #0184A5",
"*X c #0984A1",
"=X c #0186AA",
"-X c #0089AA",
";X c #188FAD",
":X c #51918C",
">X c #56A4B8",
",X c #7DA6A1",
"<X c #57AAC0",
"1X c #849396",
"2X c #999A9B",
"3X c #AA9B8A",
"4X c #D7B68C",
"5X c #DAC09E",
"6X c #C6C3B2",
"7X c #DACBB7",
"8X c #BCCFD4",
"9X c #D8D9D9",
"0X c #DFDFE1",
/* pixels */
"f.f.f.f.M I I U i.p.d.a.W ^ E ^ ~ Q Q U U E E E p.a.s.g.k x x j c Y I I y.x.u.g.d.d.g.d.Y E U ~ h.g.a.a.c j k n h.l.l.c.L J L I ",
"f.f.f.^ I M I U i.d.d.i.^ W Q ^ U Q Q Q U E E E h.h.s.g.k x x j R Y L Y x.u.g.y.y.d.d.d.E ~ ~ ~ a.g.a.s.c K c K l.l.l.c.M L P L ",
"p.f.f.f.Y L U E d.t.d.i.^ ^ Q ^ Q Q Q Q U U U E a.h.s.f.k j x j K K I I y.u.y.x.d.d.d.d.U Q E E g.h.g.i.c n k K h.l.b.z.M L L L ",
"f.f.z.^ E I U E d.a.d.a./ ~ ^ ^ U Q Q Q E E E E g.h.h.d.n j b b I Y I Y z.g.y.g.g.d.d.d.T Q Q E a.s.s.s.c j c c h.c.l.h.U L n L ",
"I Y M T T d.^ y.s.l.h.s.K j j b L L Q Q d.W i.d.t.T t.T W ~ ~ ~ E W U T g.g.y.g.f.x.g.f.U U U U l.l.m.l.K j x c U Q Q ! ! p.f.^ ",
"E Y Y Y t.d.z.y.s.n.m.s.x j h j L L P U d.d.p.d.y.t.W d.^ Q ! Q T Q E U z.u.y.g.g.x.z.h.E U U E h.m.N.h.K j x c Q Q L U ! f.d.i.",
"Y Y Y Y ^ d.d.y.l.n.h.h.H h x j Q Q Q I d.i.d.i.W T t.^ W ~ ~ ~ U Q E W y.x.x.d.z.h.h.f.U I U U m.m.b.h.c x c c I ~ Q Q ! i.i.^ ",
"Y Y M Y y.W ^ y.l.l.m.h.H x H H L L L I d.t.t.d.d.W t.W Q ^ Q ^ T Q W Y z.g.d.g.f.g.x.f.U U U E n.l.m.h.K K c c I Q U U f.d.i.d.",
"U I I U K K c P d.g.x.y.u.u.a.u.J C b J b b c n z.z.h.f.Q L n U h.s.f.f.^ f.f.^ z.y.y.z.^ ^ ~ Q j.h.b.h.s.s.h.s.H j x v M ^ d.W ",
"U E I U K v R K t.u.x.y.g.g.g.u.J b C b b b b H f.h.h.f.M L L M h.s.s.h.f.^ ^ y.y.y.y.z.Q ~ ~ ! l.h.l.l.h.n.n.s.j j j x t.t.W W ",
"U U U L c R K K u.y.u.u.j.a.a.u.J b b b b b H H g.h.z.M.n n n L f.n.n.z.d.f.z.y.y.y.y.d.^ ^ ~ ^ x.h.l.l.n.n.m.n.x x x x d.! d.d.",
"M I U Y c K K R d.d.z.y.g.g.g.g.b b b b H j j n f.z.z.f.M M M I p.p.p.f.d.^ ^ W y.z.y.^ ! ! Q ^ x.j.l.l.z.h.z.h.H x j x W ^ ! T ",
"f.f.d.d.W Y E E Y U Y Y t.d.d.t.M L L L I K L L j C b j E ^ W W K b b K j x x x L L P Y ^ p.g.h.u.g.a.u.^ W ^ t.s.s.M.f.L b K P ",
"g.g.x.d.T E Y Y U I L I y.z.z.^ 8 2 2 2 2 2 2 2 & & & & 3 < 2 3 & 2 2 & & & & & 2 2 2 2 3 3 3 3 3 3 3 3 z W ^ ^ m.n.n.n.n b J H ",
"u.g.y.d.Y E Y E I U I U ^ z.^ ^ &     X   X   O O + +     # # ; ; ; ; ; ; ; ; ; ; ; ; ; ; ; ; ; ; ; #   0 ^ ^ ^ l.h.n.n.K b J b ",
"u.y.u.z.W E E E U I I I z.y.f.y.2 O + + + + + + ; , , + O r t t u u u u u u u u u u u u u u u u r r r + 0 W W ! n.n.n.p.P b J J ",
"J P L K L I K I L U P n h.h.h.g.2 X + + + + # + ; , , + + u u u u u u u u u u u u u u u u u u u u u u + 8 L I I b.b.N.N.E E W Y ",
"J J L L L I K I L L L I h.h.h.p.2 X + + + + + + ; , , + O t u u u u u u u u u u u u u u u u u u u u t O 8 I L I h.b.c.N.W Y E ~ ",
"K K K L K K I I L L L I z.h.h.g.2 X + + + + + + ; , , + O r u u u u u u u u u u u u u u u u u u u u r O 8 L L U b.N.N.N.T W Y E ",
"L n n n I I m K L L L U f.h.h.z.3 O + + + + # + ; , , + O r r t r t t t t t r t t t t r t t t r r r r O 9 K I I b.b.c.c.W E E E ",
"Q ! ^ ^ Y I U U b H j k Y m m m 2 X + # + + + + ; , , + O y A F F F F F F F F F F F F F F F F F F A r O 9 z.d.i.M t.i.T Y U U E ",
"! ! ! ! M n L M n x H x m m k K 2   + # # + + + ; , , + O y <.0.e.e.e.e.e.e.e.e.e.e.e.e.e.e.e.e.0.G y O 9 d.t.t.t.t.M ! E W E W ",
"t.! i.Q M M U U H H x K I m I I 2 X + O O + # + ; , , # + p <.e.!.Q.!.Q.Q.Q.Q.Q.Q.^.^.^.^.Q.Q.Q.e.<.t O 9 t.d.u.t.T T T E E Y E ",
"i.M ! Q M L Q n H b j n I M m L 2 X + # # + + + ; r F 4 > G D.~.!.!.!.!.!.!.^.Q.!.).).).).).^.^.Q.F.G < 9 t.d.i.t.M T T W U Y E ",
"k.k.j.b.t.Y Y Y R Y R R k K K x 2 X # # + # + + ; r 3.7 4 e.Q.W.P.P.J.,.,.,.C.!.Q.).W.J.B.B.B.L.P.K.Z.4 8 Y Y R n b H K K K H K ",
"k.k.k.j.c R R R Y y.W E n k k K 2 X + + + + + + : p 3.7 6 E.^.P.2X2X@XX.o.X.-.!.!.(.C.o.O.O.+.1X2X3XW.5 8 R R R H K j K H H H H ",
"k.k.k.v.c y.W R Y E E Y K k K H 2 X + + + + + O s 8.9.7 6 Q./.4X9X9X>X$X&X*X:X!.Q.!.L.&X&X&X;X8X9X7XE.5 8 R R Y H j b H b n n b ",
"v.v.j.x.y.R R W E E E Y n k n n & X + # + + + + s 9.9.7 6 ~.(.4X9X9X<X=X=X*X:X!.Q.^.L.=X-X=X;X8X0X7XW.5 8 I R Y K H K b K b K n ",
"Y T Y W T y.y./ I I L I E E E E &   + + + + + > f 9.9.7 7 E.^._.7X7X,X%X%X%XV.H.T.T.G.:X%X%X:X6X7X5X~.6 9 x.x.x.K K K L K L K L ",
"R E U Y ^ y.y.W U I M m ^ ^ ^ E & O # # # # ; a D 9.9.7 6 E.Q.^././.~.W.Q./.H.9.9.9.e.W.~.~.~.^.^.~.E.6 9 v.x.g.R K K K K K L K ",
"I Y U E y.y.y.y.m L n M E ^ W E & > s s s s s d D 9.9.7 6 E.Q.Q.Q.(.Q.(.(.(.H.9.9.9.0.Q.~.^.Q.Q.Q.Q.E.6 9 x.x.g.K K K K L L n K ",
"Y Y L I y.y.W y.U U E U ^ E ^ E & > f f f N N f D 9.9.7 6 ~.Q.Q.Q.Q.U.A.A.A.S.Z.Z.Z.w.A.F.S.F.Q.Q.Q.E.6 9 x.g.u.L I K I K n L L ",
"j x x j E t.y.y.x.g.x.x.d.d.g.t.2 1 f N f f f f D 9.9.7 5 R.Q.!.Q.(.7.1.1.1.7.Q.Q.(.Y.2.1.1.5.R./.(.R.5 8 C b K p.f.p.f.! ^ ! ! ",
"j x x c W W W ^ x.v.g.x.g.g.d.t.3 1 f f f f f f D 9.9.7 6 Q.!.Q.Q.Q.7.1.1.1.7.Q.Q.^.I.2.1.1.5.R.Q.Q.Q.5 3 b b b f.s.n.f.^ i.^ p.",
"x x x x W y.t.W g.v.x.x.u.a.a.d.3 < N f N f f f D 9.9.7 6 Q.Q.!.Q.Q.7.1.1.1.5.7.7.7.6.2.1.2.5.R.!.^.R.6 8 j b H p.f.h.f.! i.! p.",
"j h x j W Y T E z.x.x.d.d.a.d.t.2 < f f N f f f D 9.9.7 5 E.!.Q.(.Q.7.1.1.2.1.1.1.1.1.1.1.1.5.R.!.Q.E.6 3 b j j p.z.z.f.p.! ^ ^ ",
"U P E L z.p.f.f.k k b n p.h.j.g.2 < f f f f f f D 9.9.7 6 Q.Q.Q.(.(.7.1.2.2.2.2.2.2.2.1.2.2.5.R.!.!.E.5 9 d.d.a.Q U U U E U U U ",
"L U L I p.f.f.p.x h b k h.k.j.a.2 < N N f f N f D 9.9.7 5 Q.(.(.(.(.R.Y.U.U.U.U.Y.Y.Y.I.U.Y.Y.(.(.^.~.6 0 p.a.a.I I n I E E E ~ ",
"L U Q L f.p.f.i.b j b b h.a.s.g.2 % 5 5 5 5 5 5 s V V 1 > 3.4.4.4.4.4.4.4.4.4.4.4.4.4.4.4.4.4.4.4.4.3.> 0 a.d.d.U L U L ~ U U E ",
"U P ~ U f.s.p.i.j b j j g.k.a.W 2               .     X   . .   . o o o o % % % % $ o o o o o . .     X g i.i.i.U U U I E U U U ",
"f.f.g.f.! ! ^ ! E E E T g.g.I &       + O + O O O O O O % ( ( ( ( | | |  .q.I.F.F.*. . ...| | ( = O # h h H K k Y T T T L L L L ",
"s.a.g.f.i.! ^ ! ^ W E W f.a.L o > 1 4 f A G S S S G <.i - ( X.O.O.OXOXOXOX-.,.,.,.+.OXOXOXOXOX..#.A > P x x x j Y T T T n U L L ",
"h.p.h.p.i.^ i.! W W W W d.g.L X a N B 8.H.(.!.!.^.(.Q.A = ( OX=X-X-X=X-X=XoXO.o.O.+X=X-X-X-X&XO.J.w.: K c x x H W T T T M L n M ",
"d.d.p.p.^ ! ^ ! T W T W d.d.L X a N B 8.D.!.!.Q.Q.Q.Q.A o | +X=X-X-X-X=X=X&X=X=X=X=X-X=X=X=X&Xo.J.w.> K K j x c T T ! T L L L L ",
"t.k m m n n L n h.h.p.g.i.i.c $ 7 N B 8.D.Q.!.Q.!.Q.^.B . | +X=X-X-X=X=X-X-X-X=X-X-X=X-X-X-X&X..q.w.@ P W W ^ W T T T ! Q Q Q ~ ",
"k c c c K H K c h.l.h.h.i.t.c X 7 N B 8.D.(.Q.!.Q.^.^.B o ) XX#X-X-X=X=X-X-X-X-X-X-X=X=X-X#XXX} q.w.$ H t.T t.T ! ! ! Q Q ~ ~ ~ ",
"c c c c c c c c p.h.s.h.i.t.K X a N B 8.D.(.!.Q.Q.Q.Q.B * ` `. X&X&X$X$X&X&X$X$X&X&X$X$X=XXX`.] r.0.$ K d.T T i.! ! ! ! Q ~ P Q ",
"m m c c K R c c x.h.s.h.T d.n $ 7 N B 3.D.Q.(.Q.!.Q.!.B * ] `.'.}.}.}.|..X.X.X.X.X.X.X}.}.'.`.] e < X v u.T W W Q M M ~ Q ~ ~ ~ ",
"Y Y Y Y L I U I K K K c y.y.c X a f B 8.H./.^.^.^.^.^.A * ] ] { ] ] { `.{.{.{.[.[.[.[.{ { ] { ` e 0 g I n b L n j j j j T T t.u.",
"T Y E U R U U P c H K c y.u.c o 5 s d F e.H.F.S.F.F.S.d * ' [ ' ` ' ' ` ].].].].].].[ [ [ ' ` ' @.! i.Q n K K b b C j k d.t.t.t.",
"U W E E L R U U c K c c y.u.c X . O @ + @ > % % % % % X - %.%._ q v w e e _ _ =.%.=.%.%.%._ q / ^ T t.^ K H J K j b h j Y t.t.y.",
"T M E Y U I U U K x x c u.u.W h h h g - - q @.@.@.@.@.@.$.;.;.@.q K l q q q @.;.;.;.;.;.;.@.q ^ ^ d.^ E m n c c b h b j y.t.y.y.",
"g.f.x.f.f.d.^ ^ b b j K t.d.y.d.i.i.^ l l Z B.B.:.:.:.>.>.>.>.&.l E h w w 0 Z :.>.,.,.>.>.#.l I Y W U T p.g.x.y.K K H K E T ^ W ",
"h.s.h.z.f.f.f.d.b b j H d.d.z.d.a.i.i.i.v.u.u.u.L J J n h.p.g.g.T W W W K J H K p.^ z.f.T T T T U Y I T u.g.u.u.c x K n E Y Q Q ",
"h.h.h.g.d.d.f.^ x j x x d.d.z.y.a.a.y.u.v.u.u.g.L L L n p.u.g.g.! i.! ! n K J n n.^ n.^ T T ! W M U E T g.u.g.u.K j K x E T ^ ^ ",
"g.g.p.f.d.f.d.d.b b j x t.f.y.t.t.d.d.y.u.u.g.g.Y L L M d.g.g.d.^ T T ^ n J J J ^ ^ n.^ ! T W Q T Y U Y x.g.g.z.L c K L Q W ^ ^ ",
"j b H H s.l.n.s.L H P H L K I L n L b n Q T T t.c.x.x.x.j.l.l.s.i.i.^ ! E I U U C J J H ^ ! f.^ m c I m p.g.h.h.u.u.g.u.x.g.j.h.",
"j b C b n.n.h.m.L K K K L K I K H H b K W T T T h.c.v.h.h.l.l.k.! d.p.d.I I I U J b C b ^ ^ ^ ^ Y c c c g.h.h.g.x.x.u.g.g.v.v.u.",
"C C C b n.m.n.s.n c K K L L L K b n j n T W Q W v.v.b.v.b.l.l.s.p.f.^ ! U L I I C b C H ^ p.^ ^ c Y R m f.h.h.a.g.x.u.x.x.x.v.j.",
"H H b n s.n.s.s.K n K K K K L L m n n K U T T T c.x.x.v.c.h.k.s.! p.d.i.U U L U b b H H ^ i.^ i.c c k I p.g.h.h.y.x.y.x.x.x.x.x.",
"h.c.c.h.i.! ! ~ U U U L K L H L z.h.c.x.c.x.x.x.t.y.W W T Q ! ! h.v.v.g.c j j j L Q P U h.h.h.h.u.t.Y m t.T T Y Y M E Y I Y Y U ",
"l.j.l.m.U U ~ E U U Y I K J J K x.l.l.l.h.x.h.g.E W W W W E W W a.h.j.j.j x h j U Q ~ ~ h.a.j.j.t.m M T Y t.Y t.U U U U U L L U ",
"b.b.l.l.W Q ! U U U Y Y J J J K g.v.j.b.x.x.v.x.W W W W W U W ^ j.v.k.u.k h j j U Q E E j.j.j.a.t.Y t.Y T Y T t.M U E U U R R U ",
"m.b.m.s.~ Q ! U U Y m E H J J L h.v.h.b.x.x.x.x.Y y.W W W W T W x.c.v.u.k j j j Q U ~ Y h.h.h.k.Y Y M t.Y t.T M M Q U U U L U P "
};
