/* XPM */
static char *_71c0a58187d43439b3ec36210dd8464GWO0p4GHDu3rxLiD[] = {
/* columns rows colors chars-per-pixel */
"64 64 211 2 ",
"   c None",
".  c #020D0D",
"X  c #090C0B",
"o  c #13110F",
"O  c #0A0F11",
"+  c #070F13",
"@  c #051614",
"#  c #0C1213",
"$  c #0A1718",
"%  c #131415",
"&  c #1A1616",
"*  c #14161A",
"=  c #191719",
"-  c #141A1B",
";  c #1B1B1C",
":  c #161917",
">  c #1F221C",
",  c #22231B",
"<  c #29251C",
"1  c #2D2B1E",
"2  c #342A1A",
"3  c #32311B",
"4  c #131B21",
"5  c #181F20",
"6  c #231722",
"7  c #1E2125",
"8  c #242424",
"9  c #2C2E22",
"0  c #24262B",
"q  c #242A2B",
"w  c #2A2A2A",
"e  c #2A2A24",
"r  c #342D2B",
"t  c #3E2D29",
"y  c #372A25",
"u  c #2D3123",
"i  c #2B322D",
"p  c #3B3429",
"a  c #37372B",
"s  c #2E2E32",
"d  c #2E3333",
"f  c #2A333C",
"g  c #343434",
"h  c #323638",
"j  c #383739",
"k  c #3C3C3C",
"l  c #3B3A33",
"z  c #4A3619",
"x  c #503A1C",
"c  c #463627",
"v  c #553A2B",
"b  c #57392C",
"n  c #4B3C34",
"m  c #443E3C",
"M  c #443E33",
"N  c #543F30",
"B  c #633E2E",
"V  c #464039",
"C  c #594136",
"Z  c #63412F",
"A  c #6B4532",
"S  c #6F4833",
"D  c #66473A",
"F  c #744932",
"G  c #7A4C34",
"H  c #724636",
"J  c #6D5239",
"K  c #7E563A",
"L  c #2D3A46",
"P  c #2E3E4C",
"I  c #2F3742",
"U  c #313E4C",
"Y  c #383E44",
"T  c #2C3F50",
"R  c #413F42",
"E  c #2E414E",
"W  c #3F4243",
"Q  c #31404D",
"!  c #3B4A58",
"~  c #434343",
"^  c #494546",
"/  c #4C4C4C",
"(  c #44484C",
")  c #544A46",
"_  c #5B504E",
"`  c #544F50",
"'  c #4E5252",
"]  c #535353",
"[  c #5A5758",
"{  c #5A5A5A",
"}  c #595858",
"|  c #604F40",
" . c #675144",
".. c #785B47",
"X. c #605F5F",
"o. c #605954",
"O. c #79665A",
"+. c #6B6251",
"@. c #5D5D60",
"#. c #605F60",
"$. c #636263",
"%. c #6B6664",
"&. c #69686A",
"*. c #706460",
"=. c #757275",
"-. c #814E35",
";. c #855336",
":. c #8A5436",
">. c #865439",
",. c #8C553A",
"<. c #8A5539",
"1. c #855C3C",
"2. c #8D583B",
"3. c #90553A",
"4. c #935A3C",
"5. c #9B5B3D",
"6. c #965A37",
"7. c #C17034",
"8. c #895B43",
"9. c #9B5E43",
"0. c #945D42",
"q. c #896146",
"w. c #9D6244",
"e. c #966648",
"r. c #956B52",
"t. c #997154",
"y. c #8A6E58",
"u. c #A3644A",
"i. c #A86848",
"p. c #B16949",
"a. c #AE7447",
"s. c #B27349",
"d. c #A77553",
"f. c #B77955",
"g. c #867F7C",
"h. c #A37D64",
"j. c #D07D4B",
"k. c #AD815D",
"l. c #8F816C",
"z. c #9E8B6F",
"x. c #81807A",
"c. c #978E76",
"v. c #9A9079",
"b. c #AE9F7D",
"n. c #BA947D",
"m. c #CA8951",
"M. c #C98956",
"N. c #D48C51",
"B. c #D78F59",
"V. c #CE945F",
"C. c #D69257",
"Z. c #CD834A",
"A. c #E39859",
"S. c #C78C64",
"D. c #C68D68",
"F. c #CC946A",
"G. c #CD946B",
"H. c #D39C6B",
"J. c #D59466",
"K. c #DB9B72",
"L. c #C69C75",
"P. c #E79D74",
"I. c #E39F67",
"U. c #DAA277",
"Y. c #EAA475",
"T. c #ECA57B",
"R. c #E3AB7F",
"E. c #FCAD75",
"W. c #F0A578",
"Q. c #F5AD7D",
"!. c #F9AE7E",
"~. c #F4A974",
"^. c #F7B17E",
"/. c #FAB17E",
"(. c #F9B274",
"). c #989799",
"_. c #828383",
"`. c #A39C97",
"'. c #AF9787",
"]. c #B2A383",
"[. c #BAB6B5",
"{. c #AFB3B3",
"}. c #C79A83",
"|. c #C2A08F",
" X c #D9AB89",
".X c #DAB88D",
"XX c #CCB397",
"oX c #F7AE80",
"OX c #F9AF80",
"+X c #F6B181",
"@X c #FAB180",
"#X c #F2B189",
"$X c #E8B18B",
"%X c #D0BDAD",
"&X c #DFC79F",
"*X c #DDC3A8",
"=X c #DAD7BC",
"-X c #CEC4A8",
";X c #EAD9B6",
":X c #F5CBB2",
">X c #C9C8C8",
",X c #DECFC7",
"<X c #E3DBC7",
"1X c #FADECB",
"2X c #EFE7C5",
"3X c #F6EDCB",
"4X c #F8E6DB",
"5X c #F7F5D5",
"6X c #FAF3CE",
"7X c #FEFDFE",
"8X c #F2F5F1",
/* pixels */
"                                                                                                                                ",
"                                                                                                                                ",
"  w w w g g g g g r w d g g w w w w w w w w w w w w w w w w w w w w w w w w w w w w w w w w w w w w w g g g g g g g g g w w w w ",
"  w 8 g ~ ~ ~ ~ ~ ~ ~ ~ ~ / ~ 8 w w w w w w w w w w w w w w w w w w w w w w w w w w w w 8 w w w w g / ~ ~ ~ ~ ~ ~ / / / k w w w ",
"  w g k ~ { { { } ] ] ] ] } { g g / / / / / / / / / / / / / / / / / / / / / / / / / / / ~ / ] W 8 ~ { ] ] ] ] } / ~ ~ / ~ k w w ",
"  w k ~ ] k g k ' } ] ] ] ] { / w / { } { } ] ] ] ] { R ~ ~ ~ ~ } ] ] Y ~ ~ ~ ~ ~ $.{ } } { } w w } } ] ] ] ] { k 8 8 k } ~ g 8 ",
"  w g ] / g k 8 / { ] ] ] ] ] { k w ] { k k ~ ~ ~ ~ ^ % % % # % k ~ ~ % % % % # % ~ ~ } } } k 8 / { ] ] ] ] ] } g ~ k g { ~ g w ",
"  w g ] ~ ~ } w / } ] ] ] ] ] } ] w k { w g ] ] ] ' ) S S F A A C ' / D S F F A A n k $.} ~ 8 k { ] ] ] ] ] ] } g ~ k g { ~ g 8 ",
"  w g ] / ~ ] w / } ] ] ] ] ] ] { ~ w ] ~ w % % + $ A :.>.>.:.3.F $ : 3.:.:.:.,.3.b . $./ g w ] } ] ] ] ] ] ] } g ~ k g } ~ g 8 ",
"  w g ] / ~ ] w / } ] ] ] ] ] ] ] } k k #.$.C Z Z B G >.>.>.>.>.-.b Z >.:.:.>.2.5.B . X.~ w ~ { ] ] ] ] ] ] ] } g ~ k g } ~ g w ",
"  w g ] / ~ / w / } ] ] ] ] ] ] ] { ~ s : ; ,.3.:.>.<.>.>.>.>.>.>.>.>.<.,.,.<.w.p.D . ] w g } } ] ] ] ] ] ] ] } g ~ k g { ~ g w ",
"  w g ] / ~ ] w / } ] ] ] ] ] ] ] { } m c c 4.6.>.>.>.>.>.>.>.>.>.>.>.>.,.2.4.4.9.H 2 ) ~ } { ] ] ] ] ] ] ] ] } j ~ ~ g } ~ g w ",
"  w g ] / ~ / w / } ] ] ] ] ] ] ] $.% y 4.3.i.p.<.>.>.,.>.>.,.>.>.>.>.:.,.i.p.4.<.>.:.A @ ] ] ] ] ] ] ] ] ] ] } g / ~ g { ~ g w ",
"  w g ] / 8 8 8 / } ] ] ] ] ] ] ] { # t :.>.w.w.2.<.,.,.,.>.>.>.2.i.w.:.:.5.9.2.>.>.>.A O ] ] ] ] ] ] ] ] ] ] { g g w g { ~ g w ",
"  w g / } ~ ~ ~ ' ] ] ] ] ] ] ] ] { # t :.>.>.<.u.i.i.i.9.>.:.>.i./.Q.;.>.,.,.,.>.>.>.S # ] ] ] ] ] ] ] ] ] ] } ~ w w ~ } ~ g w ",
"  w g / } { { { ] ] ] ] ] ] ] ] ] { # t :.>.>.>.u.u.u.u.4.>.3.1.s.!.T.2.1.>.<.>.>.>.<.H % / ] ] ] ] ] ] ] ] ] ] } } } } ] ~ g w ",
"  w g / } ] ] ] ] ] ] ] ] ] ] ] ] { O t :.>.>.>.<.>.>.<.<.;.f.@XOX+X^././.0.>.:.>.<.>.<.:.J * d ] ] ] ] ] ] ] ] ] ] ] ] ] ~ g w ",
"  w g / } ] ] ] ] ] ] ] ] ] ] ] ] X.O t >.:.:.<.:.:.<.>.>.K f.!.!.!.!.!.!.5.3.:.,.>.>.>.<.F % g ] ] ] ] ] ] ] ] ] ] ] ] ] ~ g w ",
"  w g / } ] ] ] ] ] ] ] ] ] ] #.s V -.-.:.:.:.>.K.T.W.W.W.W.Q.oX!.!././.!.Y.Y.Y.Y.f.2.>.>.F % h ] ] ] ] ] ] ] ] ] ] ] ] ] ~ g w ",
"  w g / } ] ] ] ] ] ] ] ] ] ] { # c :.:.:.:.:.,.Q.!.@X/.!.!.OX!.!./././.!.+X!./.!.f.,.>.>.G * h ] ] ] ] ] ] ] ] ] ] ] ] ] ~ g 8 ",
"  w g / } ] ] ] ] ] ] ] ] ] ] { # v :.:.:.8.,X<X .n J./.!.@X@X!.!.^.^.^.!.D m %X4Xn.,.:.:.G * h ] ] ] ] ] ] ] ] ] ] ] ] ] ~ g 8 ",
"  w g / } ] ] ] ] ] ] ] ] ] ] { O v :.:.>.e.7X7Xj - D./.@X@X/.!.!./.+X+XQ.r 4 >X7X|.4.>.:.G % h ] ] ] ] ] ] ] ] ] ] ] ] ] ~ g 8 ",
"  w g / } ] ] ] ] ] ] ] ] ] ] @.. v :.:.s.f.7X7Xl * D./.!.^.!.!.!.@X+X^.!.r * >X7XXXa.6.:.G % g ] ] ] ] ] ] ] ] ] ] ] ] ] ~ g w ",
"  w g / } ] ] ] ] ] ] ] ] ] ] { . v :.6.B.H.7X7Xh $ n.!.!.^.^.!.!.!.+X@X!.r * >X7X*XB.s.:.F o h ] ] ] ] ] ] ] ] ] ] ] ] ] ~ g w ",
"  w g / } ] ] ] ] ] ] ] ] ] ] { } o.v G Z.M.1X1Xy...K.!.!.!.^.Y.Q.!.!./.!.r...*X1X Xm.e.v  .} { ] ] ] ] ] ] ] ] ] ] ] ] ] ~ g w ",
"  w g / } ] ] ] ] ] ] ] ] ] ] ] ] @.# p N.C.(./.Q.Q.!.!./.!.Y.i.J.!.!.!.!.~.Q.^./.I.C.1.$ ( ] ] ] ] ] ] ] ] ] ] ] ] ] ] ] ~ g w ",
"  w g / } ] ] ] ] ] ] ] ] ] ] ] ] { ~ / J d.E.E.!.!././.!.!.~.J.Y./.!.!.!.!.!.Q.Q.S.e.| W @.] ] ] ] ] ] ] ] ] ] ] ] ] ] ] ~ g w ",
"  w g / } ] ] ] ] ] ] ] ] ] ] ] ] ] { g % 8 E././.!.!.!.!.!.Q./.@X!.!.!.!.!.!.!.!.q.. ~ / { ] ] ] ] ] ] ] ] ] ] ] ] ] ] ] ~ g w ",
"  w g / } ] ] ] ] ] ] ] ] ] ] ] ] ] } / % e Y.P.Q.!.!.!.!.!.+X#X#X/.!.!.!././.T.T.D - / / } ] ] ] ] ] ] ] ] ] ] ] ] ] ] ] ~ g w ",
"  w g / } ] ] ] ] ] ] j ; ; ; ; ; ; ; ; % ; ; 6 P./.OXOX!./.:X7X4X^.^.!.!./.OXD + $.{ { } ] ] ] ] ] ] ] ] ] ] ] ] ] ] ] ] ~ g w ",
"  w g / } ] ] ] ] ] ] g ; ; % = % % % % = : : 5 U.~.Q.!.!.Q.:X7X4XoXQ.Q.Q.W.W.C O / k ~ ] } ] ] ] ] ] ] ] ] ] ] ] ] ] ] ] ~ g w ",
"  w g / } ] ] ] ] ] ] g % g k ~ x./ / / / / { $.M l c l q.C.M.H.V.B.M.c l V M 8 * 8 0 0 s ] ] ] ] ] ] ] ] ] ] ] ] ] ] ] ] ~ g 8 ",
"  w g / } ] ] ] ] ] ] g % g g ~ g.` / ^ ^ / %.*.9 e 9 u J C.m.m.m.N.a.u 9 9 9 > * & % % % ~ ] ] ] ] ] ] ] ] ] ] ] ] ] ] ] ~ g 8 ",
"  w g / } ] ] ] ] ] ] g % &.).%.@.O.k.h.%.%. XR.e - < u l.;X.Xm.H.;X-X1 9 9 9 > - 8.F.G.G.O.W ' ] ] ] ] ] ] ] ] ] ] ] ] ] ~ g 8 ",
"  w g / } ] ] ] ] ] ] g % _.[.`.( n.A.S.' X.E.~.e - < u c.5X.XZ.U.2X=X2 9 9 9 > - d.(.(.E.G.% d ] ] ] ] ] ] ] ] ] ] ] ] ] ~ g w ",
"  w g / } ] ] ] ] ] ] { X.} ` k w n C  .L.K./.Q.y : < u c.3X*X.X&X2X=X1 9 u u > 4 r.j.Y.!.D.% g ] ] ] ] ] ] ] ] ] ] ] ] ] ~ g w ",
"  w g / } ] ] ] ] ] ] ] ] ^ % . X % $ n E.E.E./.e : 1 9 v.6X3X5X3X3X<X1 9 9 u , - e.7.~./.F.% h ] ] ] ] ] ] ] ] ] ] ] ] ] ~ g w ",
"  w g / } ] ] ] ] ] ] ] ] { X.X.X.] % m  X}.t.r.< , 9 1 +.].'.<XXXb.z.1 9 u 9 , - N 1.e.t.O.[ { ] ] ] ] ] ] ] ] ] ] ] ] ] ~ g w ",
"  w g / } ] ] ] ] ] ] ] ] ] ] ] ] { % d [.).- 5 9 1 1 3 2 x O.8X`.z z 1 9 u u , ; % @ @ @ W ] ] ] ] ] ] ] ] ] ] ] ] ] ] ] ~ g w ",
"  w g / } ] ] ] ] ] ] ] ] ] ] ] ] { / ] g.&.; : w i d d a p _ {.=.p a i d i i 7 % V } ] ] { ] ] ] ] ] ] ] ] ] ] ] ] ] ] ] ~ g w ",
"  w g / } ] ] ] ] ] ] ] ] ] ] ] ] ] } ~ o * * : U U U E P E T E U U E Q U P ! 7 % ~ w w / } ] ] ] ] ] ] ] ] ] ] ] ] ] ] ] ~ g w ",
"  w g / } ] ] ] ] ] ] ] ] ] ] ] ] ] { k w w w w f L U P P U L I L U E Q Q L f w q k ; 8 / { ] ] ] ] ] ] ] ] ] ] ] ] ] ] ] ~ g w ",
"  w g / } ] ] ] ] ] ] ] ] ] ] ] ] ] } ~ g g g g r % L U Q Q f & q P Q Q Q 8 % k g g h g / } ] ] ] ] ] ] ] ] ] ] ] ] ] ] ] ~ g w ",
"  w g / } ] ] ] ] ] ] ] ] ] ] ] ] ] ] } { { { { j % L U Q Q f & q E Q Q Q 7 % { { { { { ] ] ] ] ] ] ] ] ] ] ] ] ] ] ] ] ] ~ g 8 ",
"  w g / } ] ] ] ] ] ] ] ] ] ] ] ] ] ] ] } } } ] w % L U Q U f % 0 Q U Q Q 7 & { ] ] ] / ] ] ] ] ] ] ] ] ] ] ] ] ] ] ] ] ] ~ g 8 ",
"  w g / } ] ] ] ] ] ] ] ] ] ] ] ] ] } k k k k k 8 : I U L L f % 0 U L L L 7 % ~ g k k w / } ] ] ] ] ] ] ] ] ] ] ] ] ] ] ] ~ g 8 ",
"  w g / } ] ] ] ] ] ] ] ] ] ] ] ] ] { g ; 8 8 8 8 w 8 8 8 8 8 w 8 8 8 8 8 8 8 8 8 8 ; 8 / { ] ] ] ] ] ] ] ] ] ] ] ] ] ] ] ~ g w ",
"  w g / } ] ] ] ] ] ] ] ] ] ] ] ] ] } / k k k k k k k k k k k k k k k k k k k k k k k k / } ] ] ] ] ] ] ] ] ] ] ] ] ] ] ] ~ g w ",
"  w g / { { { { ] ] ] ] ] ] ] ] ] ] ] } { { { { { { { { { { { { { { { { { { { { { { { { ] ] ] ] ] ] ] ] ] ] ] ] ] ] ] ] ] ~ g w ",
"  w g / ] k g ~ ] ] ] ] ] ] ] ] ] ] ] ] ] ] ] ] ] ] ] ] ] ] ] ] ] ] ] ] ] ] ] ] ] ] ] ] ] ] ] ] ] ] ] ] ] ] ] ] ] ] ] ] ] ~ g w ",
"  w g ] ~ 8 w w ] ] ] ] ] ] ] ] ] ] ] ] ] ] ] ] ] ] ] ] ] ] ] ] ] ] ] ] ] ] ] ] ] ] ] ] ] ] ] ] ] ] ] ] ] ] ] } { } } } ] ~ g w ",
"  w g ] k ~ } g ] ] ] ] ] ] ] ] ] ] ] ] ] ] ] ] ] ] ] ] ] ] ] ] ] ] ] ] ] ] ] ] ] ] ] ] ] ] ] ] ] ] ] ] ] ] } / g g k ] } ~ g w ",
"  w g ] ~ k / g ] } ] ] ] ] ] ] ] ] ] { } } } } } } } } } } } } } } } } } } } } } } } } { } ] ] ] ] ] ] ] ] { ~ w g 8 ] } ~ g 8 ",
"  w g ] ~ k / g ] } ] ] ] ] ] ] ] } / g k k k k j k k k k k k k j k j j k k k k g k k g k ] } ] ] ] ] ] ] ] } ~ k ] g / } ~ g w ",
"  w g ] ~ k / g ] } ] ] ] ] ] ] ] { ~ 7 g g w w w w g g w w g w w w w w w w w w w w g g 8 ~ { ] ] ] ] ] ] ] } ~ k ' w / } ~ g w ",
"  w g ] ~ k / i ] } ] ] ] ] ] ] ] { k g ] { } } } } } } } } } } } } } } } } } } } } { / k w ] } ] ] ] ] ] ] { ~ k / w / } ~ g w ",
"  w g ] ~ k / g ] } ] ] ] ] ] ] { / w ^ / ~ k k k k k k k k k k k k k k k k k k k k / } ~ w k { ] ] ] ] ] ] } ~ k / w / } ~ g w ",
"  w g ] k ~ } w ] } ] ] ] ] ] } } g g } g w k k k k k k k k k k k k k k k k k k k g g } / k w / } ] ] ] ] ] } W k } g / } ~ g w ",
"  w g ] ~ w g w ] } ] ] ] ] ] { k w / { g k / / / / / / / / / / / / / / / / / / / k g } } ~ w k { ] ] ] ] ] { ~ g ~ w / { / g 8 ",
"  w g ] / w w k ] ] ] ] ] ] } ] w k } } / k ~ ~ ~ ~ ~ ~ ~ ~ ~ ~ ~ ~ ~ ~ ~ ~ ~ ~ ~ k / } } ] k w ~ { ] ] ] ] } / w w g } ] ~ g w ",
"  w g ~ } { { { } } } } } } { g g } { } { { { { { { { { { { { { { { { { { { { { { { { } } { / g g } { } } } } } ] } { ] ~ k w w ",
"  w w k ~ / / / / / / / / / / w g g g g g g g g g g g g g g g g g g g g g g g g g g g g g g g g 8 ~ ] / / / / / / / / ~ k w w w ",
"  w w g k g g g g g g g g g k g 8 8 8 8 8 8 8 8 8 8 8 8 8 8 8 8 8 8 8 8 8 8 8 8 8 8 8 8 8 8 8 w w g k g g g g g k g k g w w w w ",
"  w w w w w w w w w w w w w w w w w w w w w w w w w w w w w w w w w w w w w w w w w w w w w w w w w w w w w w w w w w w w w w w "
};
