/* XPM */
static char *f6cd282f9a594006b63e2e76d283ecd7o1jgRz62UOjksaxH[] = {
/* columns rows colors chars-per-pixel */
"64 64 217 2 ",
"   c #02070D",
".  c #03080E",
"X  c #040B14",
"o  c #060E19",
"O  c #080E19",
"+  c #061017",
"@  c #081116",
"#  c #06111A",
"$  c #0A131C",
"%  c #0C191E",
"&  c #10121E",
"*  c #0B1521",
"=  c #071820",
"-  c #0B1B23",
";  c #121523",
":  c #141B23",
">  c #191E24",
",  c #121C29",
"<  c #191E2F",
"1  c #0A242B",
"2  c #0B222C",
"3  c #162327",
"4  c #13242C",
"5  c #1C2229",
"6  c #152931",
"7  c #0C303A",
"8  c #153136",
"9  c #252A2F",
"0  c #32322D",
"q  c #252B33",
"w  c #2A2E33",
"e  c #283339",
"r  c #2E343A",
"t  c #32363A",
"y  c #363939",
"u  c #4A380E",
"i  c #4B3614",
"p  c #4D3B15",
"a  c #473D1D",
"s  c #4B3C1D",
"d  c #523B15",
"f  c #533E1B",
"g  c #593F1A",
"h  c #463C21",
"j  c #4B3C22",
"k  c #473C28",
"l  c #493B29",
"z  c #523D21",
"x  c #593F24",
"c  c #423F36",
"v  c #4D401D",
"b  c #54411C",
"n  c #59451A",
"m  c #5B431C",
"M  c #5E501F",
"N  c #62451F",
"B  c #61531F",
"V  c #4B4024",
"C  c #554322",
"Z  c #594222",
"A  c #574827",
"S  c #5D4D26",
"D  c #56492C",
"F  c #5C4E2C",
"G  c #5E5125",
"H  c #5E512C",
"J  c #5C4D32",
"K  c #5D5132",
"L  c #5F5039",
"P  c #634E25",
"I  c #684F26",
"U  c #634E2B",
"Y  c #635225",
"T  c #6A5325",
"R  c #6E5827",
"E  c #63512B",
"W  c #6B542B",
"Q  c #6D592D",
"!  c #705B26",
"~  c #72562A",
"^  c #745B2C",
"/  c #7A5D2D",
"(  c #614E32",
")  c #625232",
"_  c #6B5532",
"`  c #6A5836",
"'  c #735C32",
"]  c #735934",
"[  c #7C5D32",
"{  c #77602E",
"}  c #7B622E",
"|  c #776135",
" . c #7B6134",
".. c #75653B",
"X. c #7B653C",
"o. c #7D693E",
"O. c #343E41",
"+. c #3B3D42",
"@. c #1E4141",
"#. c #3B4244",
"$. c #36454A",
"%. c #324E4B",
"&. c #464848",
"*. c #4C4E4E",
"=. c #524F49",
"-. c #5D5543",
";. c #5F5942",
":. c #4B5454",
">. c #535554",
",. c #5B5B5B",
"<. c #655D43",
"1. c #675C46",
"2. c #6E6446",
"3. c #67614A",
"4. c #6D654B",
"5. c #6E684B",
"6. c #736442",
"7. c #7E6A41",
"8. c #71654D",
"9. c #77684B",
"0. c #6E6651",
"q. c #6C6758",
"w. c #716551",
"e. c #746A54",
"r. c #536966",
"t. c #686767",
"y. c #6D726C",
"u. c #75746E",
"i. c #757373",
"p. c #7C7A73",
"a. c #825E32",
"s. c #805E38",
"d. c #80622E",
"f. c #816332",
"g. c #8C6B36",
"h. c #826639",
"j. c #846D3D",
"k. c #8A6E3E",
"l. c #87703E",
"z. c #8C713D",
"x. c #93733D",
"c. c #99763D",
"v. c #846C42",
"b. c #8B6E42",
"n. c #8A6E4B",
"m. c #906E42",
"M. c #857144",
"N. c #8A7142",
"B. c #8C7243",
"V. c #8A7246",
"C. c #8F7844",
"Z. c #8D734A",
"A. c #8D7449",
"S. c #927344",
"D. c #9B7645",
"F. c #967A45",
"G. c #9B7A45",
"H. c #93754A",
"J. c #9B764B",
"K. c #957A4B",
"L. c #9B7A4B",
"P. c #927150",
"I. c #9C7650",
"U. c #967C52",
"Y. c #9B7A51",
"T. c #A07646",
"R. c #A27A46",
"E. c #A0764B",
"W. c #A27B4B",
"Q. c #A17952",
"!. c #837E76",
"~. c #9C8049",
"^. c #A8874C",
"/. c #AD8B4E",
"(. c #B28C4E",
"). c #A68551",
"_. c #AA8655",
"`. c #A58A53",
"'. c #AC8B53",
"]. c #A88659",
"[. c #A7895A",
"{. c #AC8B5A",
"}. c #B28C53",
"|. c #B28D5B",
" X c #A99155",
".X c #AB915A",
"XX c #B29056",
"oX c #9C8764",
"OX c #9C8863",
"+X c #A48D64",
"@X c #AC8E63",
"#X c #A48C6A",
"$X c #AD9262",
"%X c #A8956B",
"&X c #AC946C",
"*X c #B49566",
"=X c #B2966C",
"-X c #B59A6D",
";X c #AD9772",
":X c #B39774",
">X c #B39B73",
",X c #B99D76",
"<X c #B39C79",
"1X c #BBA06B",
"2X c #788381",
"3X c #8B8682",
"4X c #918B89",
"5X c #96938D",
"6X c #99958C",
"7X c #9E9B94",
"8X c #A29B94",
"9X c #ADA799",
"0X c #C5BBA8",
"qX c #DCCCB3",
"wX c #F3DEBC",
"eX c #E6D9C3",
"rX c #F0E0C6",
/* pixels */
"X X X $ @ 3 - # $ 7 1 $ o X X X   X X X + X X X o X X X o X X o X X X X o X X X o X X X X $ O + 4 $ X o - X X X X X X X X X O ; ",
"X k h l j j s j h h k k k k k k j s a a j j j k k j a a a j j k k l j h h j V j h j j j j a a a h k k k j j j j h h h k k k j j ",
"+ k h j j j s j a j j l l j j j s s a a j j j k j j j a a s j j j j a a h a a h h j j a a a a a j k k k j j j j j V j l j j j j ",
"o j h j s s p s s s s j j s s s s s s s j z z j j j j a a s j z j s s j s a a j j j j j j j j j j j z j j f s s s s s s s s j j ",
"X a s s p C b b b b C C b b f b b b b f z Z Z Z Z C C C C C Z m m b b b b C C C C z z z z b b b b m Z Z C C b b b b n m Z p p s ",
". H H F E X.7.v.v.A.A.A.V.v.v.j.j.v.v.v.v.B.A.A.A.A.A.A.A.B.B.B.B.j.j.h.j.B.A.A.B.v.v.v.v.v.v.v.j.B.B.A.V.v.v.v.v.B.B.B.v.W U F ",
"X H H E W v.Z.Z.V.U.U.U.K.B.N.z.N.N.N.N.B.F.K.K.K.K.K.K.K.K.F.F.F.z.z.k.N.K.K.K.K.B.B.N.N.N.N.N.z.F.L.K.K.A.M.B.B.K.L.K.H.W U H ",
"- H E E W v.B.B.B.U.U.U.K.B.N.z.z.b.b.b.N.F.F.L.K.L.L.L.L.L.L.G.G.S.S.N.S.K.K.K.K.B.B.B.N.N.N.N.z.F.G.L.K.A.M.B.B.H.L.L.F.T E H ",
"X F H S Y v.v.b.b.Z.Z.A.B.v.j.j.j.b.v.v.k.B.C.S.S.H.H.J.I.J.L.L.G.S.m.B.S.H.H.Z.Z.b.v.v.v.v.j.v.k.x.S.F.B.M.v.v.N.L.G.G.F.P U F ",
"X s v s b ' ' [ ' N m m n W T T T W W W T T T T T [ s.[ [ I.L.K.L.L.J.I.H.N m g m W W W W W Y W T T T T Q ' | [ / b.S.S.h.m s j ",
"X a s s b Q ' ' ' f d p f U E E U U P Y Y G Y Y Y ^ [ [ [ J.L.J.L.L.K.I.Z.m d d f U E U E P S E Y P E E E ' ' ^ [ k.b.S.h.m s j ",
"X a s s b Q ' ' ] f d s C D F J F H F H H G G Y Y ^ / / a.J.L.J.K.L.L.K.B.n p u p F E H H H S H H F K F U ' ' ^ / k.b.B.o.b a s ",
"# a s s b ' | ' ' b d s V 4.w.w.8.8.2.5.5.4.5.6...| / / f.S.L.L.K.L.K.K.B.m f s A ` <.;.;.;.;.<.3.4.0.8.9.'  .f.f.k.N.B.o.Z s j ",
"$ F H U W B.K.H.Z.W U J 1.y $ : : : : > e $.:.y.rX;X@X].].W.L.I.H.S.B.Z.n.U F J 1.#.$ * $ $ $ $ $ : 3 5 q.&X[._.).z.z.B.v.E S F ",
"X E U P W B.K.K.A.W U J -.> X X X X X X + * - 3 eX<X@X{.|.W.L.Y.I.S.N.b.v.) ) L w.5 X X X X X X X X X X t &X{.}.'.x.z.N.M.E E E ",
"X E P P W S.L.L.S.W E ) 0.5 * + + + + X $ o X X y.<X$X}.}.R.G.L.G.x.z.z.v.E F J 0.5 X X + $ X X X o X X #.=X|.}.^.x.z.M.v.W P P ",
"X Y P P T N.L.K.B.W F F e.q , $ = = - - - o X X +.&X{./.}.G.G.R.D.z.z.z.l.T F F 0.: X X X + $ $ $ # o # *.=X'.}.'.z.z.M.M.W P P ",
"X B B Y T j.B.B.B.W E H 5.> % % $ $ + - - X X X t %X'.}.'.L.L.G.G.x.N.k.j.T E F 8.$ X X O $ $ o X o + o &.&X'.'.'.B.z.l.j.E E Y ",
"X Y Y Y W v.Z.b.v.W E H 5.> @ - = X X X X . X X #.&X}.}.'.L.L.G.G.m.S.k.j.T Y F 8.X X X o + X X X X X $ *.&X'.{.{.S.b.z.j._ U Y ",
"X E E U W v.Z.B.v.T G H 2.> X X X X X X X X o = %.&X/.(.'.L.I.L.L.m.S.k.j.T Y F 5.$ X X X X X X X X X X >.&X'.'.'.S.z.z.j.) ( E ",
"X E U U W v.B.N.j.T Y H 5.5 * + X X X X X + = 2 r.=X/.}./.L.I.L.L.m.N.k.j.T Y H 5.* $ X X X X o + X X X ,.=X'.}.'.S.x.x.b._ J E ",
"o U P P W j.N.z.j.T Y K 4.r X # = - X X X # + + O.%X'.(./.L.L.L.L.N.N.k.j.T H F 4.: X o X X X - 6 # X + i.>X}.}.}.G.G.c.z._ H Y ",
"o E Y P W j.N.z.j.T Y H 4.#.$ $ $ - $ . X o o + t &X'.'./.L.L.L.L.N.N.l.j.T E F 8.> o * X   X $ # $ = 1 2X,X|.}.}.R.G.G.S.Q H G ",
"X E Y Y T j.N.N.j.Y Y H 8.:.$ * $ X X X X X X o +.&X'.'./.W.J.L.L.N.N.l.j.T E F 8.9 X X X X X X X X # + 5X>X'.'.'.G.G.G.B.E H G ",
"X F F S Y o.v.j.h.W Y E 6.0X,.&.#.$.r w r r r +.t.-X'.'.'.L.J.L.L.N.N.j.j.T Y U 6.*.w O.$.&.*.t.3X7X8X9XqX*X_.'.'.H.S.S.B.E F F ",
"X V j j C U W W I ^ ' ' X.%X>X>X;X#XOXOXOXoX%X:X-X~.G.G.L.L.L.G.G.B.B.N.j. .Q ^ | &X>X>X>X:X>X>X>X>X:X>X$XG.x.S.b.^ W W _ j l C ",
"X h a j j U U W P ' ' ^ } `..X X`.L.L.F.~.`.'.'.`.G.G.G.J.J.L.G.G.B.B.B.j. .^ / f.`.{..X'.'.'.'.'.'.'..X`.c.g.N.v.W U U ( k l j ",
"o h a a s U U U P ' ^ ^ } ^./././.W.J.G.G./.}.}.'.G.L.L.L.J.L.G.F.N.B.B.j. .^ / d.'.'.XX}.(.(.}.}.}.(.'.^.c.g.z.v.E U U ( j j j ",
"X v s s b W W W W [ [  .h.)./././.W.E.G.R.^.}.}.'.L.L.J.J.J.L.G.G.N.B.N.j.f./ / f.).'.}.'.(.(.(.(.}.(.'.).D.x.N.M.Q _ _ _ s s b ",
"+ G G S W M.A.H.H.b.v.b.b.L.W.R.W.E.I.J.L.L.R.W.W.S.B.B.S.J.L.L.G.N.N.N.N.b.b.m.S.L.G.W.W.W.W.W.W.W.R.G.G.D.J.K.K.K.A.H.V.W G Y ",
"+ G Y P T B.K.K.K.S.B.b.S.L.L.D.J.J.I.I.L.J.D.J.L.N.N.N.S.J.L.L.L.N.N.b.N.H.H.J.H.L.L.L.L.J.L.I.I.J.J.L.L.J.L.L.K.K.K.Y.H.T M Y ",
"$ U E P W S.L.F.L.N.b.b.H.J.L.L.L.D.G.K.K.G.G.G.L.B.B.N.S.J.L.I.K.N.N.b.N.B.H.S.S.L.L.L.L.L.L.L.L.Y.Y.K.L.L.L.G.G.G.L.L.S.W Y Y ",
"* U W P W S.L.G.L.S.N.B.H.H.J.J.L.G.F.K.K.F.G.L.F.N.l.l.N.J.L.Y.L.S.S.S.B.S.H.F.F.L.L.L.L.L.K.K.L.L.L.K.K.L.L.G.G.G.D.J.S.W Y E ",
"* U U P ~ H.L.L.L.L.L.L.L.L.L.D.D.x.B.B.B.N.N.B.B.z.N.N.b.L.L.L.L.D.D.G.F.S.N.B.S.J.L.L.J.S.N.N.S.L.L.L.K.S.S.N.N.B.N.S.k.W E E ",
"X U U P ~ S.L.L.L.J.J.L.L.L.L.L.L.z.N.B.B.N.N.B.B.k.N.B.b.L.D.D.E.G.G.G.S.B.N.b.b.L.L.L.J.S.N.N.B.D.J.L.H.N.k.M.M.B.b.b.k.E F E ",
"X E E P W H.K.L.L.Y.L.L.L.L.L.L.F.z.N.B.N.N.N.b.B.N.B.Z.b.G.G.J.L.D.S.F.F.N.M.B.B.K.L.L.F.N.k.k.k.L.L.U.K.N.k.N.B.N.b.b.k.E F E ",
"X E E Y W B.K.L.H.H.Z.B.A.H.H.H.S.j.j.v.v.j.j.v.v.j.j.b.b.L.L.L.L.L.F.K.K.j.o.o.v.H.H.H.S.N.k.j.b.S.H.A.A.N.k.b.N.B.S.S.b.W H E ",
"# G E P T b.S.N.b.m n n Z P E W W T T W W T W W W  .} |  .K.L.L.L.N.N.N.j.M b b n W W W W T T T T W W _ Q ^ / / / H.F.D.S.W F E ",
"+ G E P Y j.N.k.j.n d p b F H H E P P P P P P U U ! ! ^ [ S.L.L.L.N.B.B.j.b u p d P U E E E P Y Y S F F E ~ / / [ L.L.L.F.W G Y ",
"X E E P T b.B.b.v.n p i s D K J J ) ) ( F H ) ) E ^ ^ ^  .H.L.L.L.k.N.M.j.b p p b S F F J J F H H K K K ) W / / / J.L.W.F.W G Y ",
". F E P T b.S.b.v.m d s D <.1.-.=.c 0 0 0 y c -.9.| }  .f.H.J.D.L.S.B.B.v.b d v C 2.4.8.w.8.8.8.5.5.4.5.6.| f.f.f.D.D.L.S.W G Y ",
"= U U U W H.L.L.H.W A D 1.o $ X X X X $ $ X X X @ %X`.[.].L.L.D.L.H.L.K.A.W S F 2.>.X X X X X # # X $ > p.+X`.'.).R.L.G.H.W E E ",
"= ( U U W H.K.K.H.] U ) e.X X o X X X X + + X + + ;X{.{.{.W.E.T.L.L.L.L.H.W U F 8.X X X X X X o * o o X 9 >X$X|.{.L.G.G.H.E E E ",
"X ) E E W H.L.L.H.W S J w.X X # # X o X X X o + * ;X.X|.|.W.E.D.R.L.L.L.H.W E ) 8.X X X X X # 2 $ + o X q :X{.{.'.L.G.L.H.E E E ",
"o F F U U H.L.K.H.W U J 0.X X X # X X X o X # * + #X`.{._.W.E.D.G.D.L.H.B.W E K 4.$ + X X + X + + o o + t :X{.{.'.G.G.D.H.U F F ",
"X j s f m v.B.N.b.m f j -.X X X $ + X X X X o * + +X~.G.W.J.J.G.G.S.S.N.b.T Y F 4.7 4 $ X X X X X X X X #.#XL.G.G.S.S.S.b.Z C C ",
"X h a s b j.b.b.j.f p a -.# + X o + X X X X $ # + +XF.G.L.J.L.L.F.N.N.N.k.T Y ) 4.8 @.4 o X X O X # $ $ &.#XL.G.G.z.b.k.v.C s s ",
"o k h s b v.B.N.j.b s h -.4 # X X X o X o o o $ # +XF.G.L.J.L.L.K.N.N.z.j.Y Y K 5.6 @.6 $ + X X X X = - r.#XL.G.G.S.N.N.v.C j s ",
"$ V a s b v.M.N.j.b v h -.6 $ X X X * $ $ + + , , +XG.G.W.J.L.L.L.B.N.l.j.Y Y H 5.e + + X X X X + $ - 1 >.#XL.G.G.x.S.N.v.C j s ",
"X F F U W j.N.N.j.Y S D 0.q + o X X X $ $ + - 8 r >X{.}.}.W.J.Q.J.S.k.z.j.W S H 4.r X X $ + X # o # 2 6 t.;X{.'./.G.G.L.B.W S S ",
"X E E U W v.B.N.j.W E K 5.+.X o X X # : * + $ % *.:X{.'.}.R.D.Q.J.S.k.N.v.W U ) 8.*.X X = $ o $ $ # * = y.>X@X'.(.R.G.L.H.W P G ",
"= E U U W v.Z.b.v.W E F 4.p.X $ X X ; & $ O X X !.>X$X}.'.G.G.L.K.B.B.B.v.E F K 5.5X.   X + # ; < X X o 6X,X{.}.|.W.L.I.H._ U E ",
"+ E U U W v.A.Z.b.W W ) 9.eX3X4Xi.t.t.t.t.t.t.u.wX=X{.'./.G.G.F.K.B.B.B.v.W E ) 2.eXp.6X5X7X8X8X6X5X8X9XwX-X'.'.}.G.J.H.Z._ U E ",
"X Y Y Y R N.K.L.F./ ^ W ' OX#XOX#X>X-X,X>X:X>X-X*X).R.W.W.G.L.L.K.N.z.N.j.^ ^ ^ X.OX#X#X#X:X:X:X>X<X>X-X1X'.(.}./.c.x.S.B.W P E ",
"o Y Y Y R B.L.L.F.} / ^ h.A.U.U.L.'.}.}.'.'.'.'.'.R.D.T.E.J.L.L.L.N.k.z.k./ / ^  .H.I.H.J.{.{.|.{.{.[.'.'./.(.(.^.x.z.k.v.W P E ",
"X G G P W B.L.L.H./ / ~ [ H.Y.Y.L.}.}.}.}./.'.'.'.G.L.J.J.L.L.L.K.B.N.N.j.{ / ^ [ K.L.J.L.|.|.|.|.{.{.}.}.(.(.(.'.x.k.b.v.W U E ",
"X Y Y Y W Z.I.I.H.a.a.[ [ L.J.J.W.}._.}.'././.'.'.G.L.J.J.L.L.K.K.N.N.N.z.{  .} f.H.L.L.L.|.'.}.}.}.'.}./.}.}.}._.S.N.M.v.W E E ",
". G G E Y b.b.H.H.H.H.H.J.J.L.L.L.Q.Q.W.L.G.G.G.G.S.m.m.S.J.L.G.F.N.N.N.N.S.F.F.S.L.L.L.L.G.G.G.R.R.R.R.R.R.R.G.G.N.B.v.M.E E U ",
"$ E G E E M.b.Z.B.L.L.L.L.L.L.G.L.Y.Y.L.L.L.G.L.L.S.m.m.S.J.G.G.G.N.N.N.S.F.L.L.L.L.L.L.L.L.L.G.G.L.L.W.W.W.L.L.L.N.B.M.M.Y Y P ",
"$ G G Y Y v.B.Z.B.K.K.K.K.L.L.G.G.L.L.L.G.G.G.G.L.m.b.m.H.J.I.L.L.S.b.z.S.F.G.L.L.L.L.L.L.L.L.G.G.L.L.L.L.L.L.L.K.A.A.M.M.Y Y P ",
"+ H G E E X.7.v.7.A.A.A.A.A.B.B.B.S.S.S.S.B.B.B.A.v.v.v.n.n.P.H.H.v.v.j.k.N.B.B.B.Z.Z.Z.Z.Z.Z.B.B.A.H.H.H.H.Z.Z.A.7.7.o...E E S ",
"o j a j s A C A A C C C C C Z Z Z C C C C C C C C C v v C C C Z C C b b b b C C C C C C C C C C C C C Z x x x x C C A C C a s j ",
"o j j j j j s s a a a j a j j j j a a j j j j j j h j a a a a j j j j j j j a a j j j l j j j a a j j j j j j j j j s s s j j l ",
"X j a j j s s a a a a a a h j j j s s j j j j j j a a a a a a s j j j j a a a a a j j j j j j s s j j j j j j j j a a a a j j j "
};
