/* XPM */
static char *_1fb47734b8742c6bacd3f8868e55a6cyp6y1b0q6Dxq6JTl[] = {
/* columns rows colors chars-per-pixel */
"64 64 98 2 ",
"   c #010307",
".  c #02060D",
"X  c #03080F",
"o  c #030710",
"O  c #040B14",
"+  c #080E16",
"@  c #060E19",
"#  c #090F19",
"$  c #061017",
"%  c #081116",
"&  c #06121B",
"*  c #08131D",
"=  c #0A121C",
"-  c #0B131C",
";  c #0D121E",
":  c #08141C",
">  c #08151D",
",  c #09151E",
"<  c #0D141F",
"1  c #07191F",
"2  c #09181E",
"3  c #0B191E",
"4  c #10121E",
"5  c #12141F",
"6  c #071620",
"7  c #0B1521",
"8  c #0A1723",
"9  c #071823",
"0  c #061A24",
"q  c #061C25",
"w  c #081923",
"e  c #081B23",
"r  c #0B1B23",
"t  c #0D1821",
"y  c #0C1E23",
"u  c #0D1827",
"i  c #0B1D27",
"p  c #0E1C25",
"a  c #061F28",
"s  c #091E28",
"d  c #0B1E29",
"f  c #111322",
"g  c #111523",
"h  c #121623",
"j  c #101A24",
"k  c #111A25",
"l  c #181B27",
"z  c #121C2A",
"x  c #1A1C2D",
"c  c #181D30",
"v  c #0F2025",
"b  c #0F2227",
"n  c #07212A",
"m  c #07262F",
"M  c #0B222B",
"N  c #0A252F",
"B  c #08262F",
"V  c #112223",
"C  c #112327",
"Z  c #132727",
"A  c #102129",
"S  c #12242B",
"D  c #10232C",
"F  c #11272C",
"G  c #1A202D",
"H  c #12292B",
"J  c #112A2F",
"K  c #15282D",
"L  c #152B2D",
"P  c #0B2631",
"I  c #0A2933",
"U  c #082E38",
"Y  c #132331",
"T  c #122731",
"R  c #1C2234",
"E  c #132B31",
"W  c #132C3E",
"Q  c #0B333C",
"!  c #0C313C",
"~  c #163135",
"^  c #153236",
"/  c #193434",
"(  c #1B3937",
")  c #1D3936",
"_  c #10343D",
"`  c #193738",
"'  c #1C3A3A",
"]  c #23313A",
"[  c #1F403E",
"{  c #20413E",
"}  c #0E3642",
"|  c #1E4141",
" . c #234B46",
".. c #254944",
"X. c #254E48",
"o. c #2A534C",
"O. c #2B5B54",
"+. c #265758",
/* pixels */
"O O O = % V p = , U m , @ O O O . O O O $ O O O @ O O O @ O O @ O O O O @ O O O @ O O O O ; # $ D , O @ p O O O O O O O O O + h ",
"O O O O = + O O O O O $ $ @ = O . O $ O O O O O @ = , 0 9 O O $ @ O $ O , , O O O O @ O = f # , S , X O O O O O O O O O = @ O O ",
"$ O O O = # O = , a q @ O O = O O O = O O = O O $ B Q , @ O O + = t w @ O , $ O O , @ = # O O p [ L O X O O O $ $ O O O = = O O ",
"@ O O O O O O = @ 0 9 @ O O O O O O @ = A T , X O O O @ i w O @ $ 9 w @ O @ O O O = @ @ O O O = J v = O O O O O O O O y y O O O ",
"O O O O O X O O O O O O O O O O O O O = p ~ y O O O O = w w $ O O O O O O O O O $ 7 w $ O O O $ w B d @ O O O O O % 2 t = @ $ 7 ",
"X O O O o o O O O @ O O @ O O O = O O $ J  .H O O O O @ $ O O X O O O + O O @ O O $ i , O O O @ @ 6 , , O O O O 7 C ) t O = < = ",
"O $ @ O O O O O O O O O O O X O = O O @ , 2 $ O O O O O @ O O O O O O O O @ = O + + $ $ $ $ = O O O # = O O $ O = C X.L < O O = ",
"t t @ @ O O # h O O O = < ; # O = @ O O O O O $ $ O O O O O O O O O O O = = = O O O $ , 7 O O O O # 5 O O O O O X X % t = # , k ",
"O O O O O O # # O O O 7 7 k = $ O O O O @ O O = $ O @ O O = @ O O O O O $ 9 q $ O O O O O O O O @ @ @ = O @ O O o O @ @ O @ = = ",
"O o O @ , O O O O O O = = @ O O O O = k = @ O O O O t t , O O $ $ w $ O O $ = @ $ @ O $ O X O O # 7 = = O @ O O O = # O O O X . ",
"O O O $ w $ O @ 7 O = , O @ @ O O O = 7 $ = O O O O $ y v O O = O O O O O $ t 7 y , O @ O X O O O @ 7 = O O O O O O @ O O O O O ",
"O O O O X O @ O O o O O O O @ O O O O O = Z 2 $ O O w ( / % $ , O O O O O O , 2 / C O $ @ O O O $ O @ O O X O O O O O O O @ = @ ",
"= @ O O     O O .   X O O = @ O O O O O p ` F t O $ w ' / = @ , w O # 7 h O O = ( E $ O O O O O O O O O O O O O O O O O O O @ O ",
", , $ O     O O O O O O O O O O O @ O @ D T L / , O O O @ 7 @ O $ $ p Y z 6 = @ $ = @ @ @ O O O O O $ O O O X O O O O O O O O @ ",
"O @ = O . . O = O + % = @ O O O O O X X $ 7 p C = O O O O $ @ O O O $ 6 q Q I @ O O O O O O O O O O O O O O 7 $ @ O O O O O O O ",
"O O = 6 $ O O , O + = , $ = 7 $ $ $ $ O = @ O O O O O O O O O O @ = @ $ $ O $ O O O O O $ , O O O @ O O O $ , , 7 @ @ O O O O O ",
"O O O O $ O O O O = = $ = h z , w w i p t @ O O O O $ O O O O @ u p = @ O $ O O O O O O O $ , = < = @ , = O O O O O O O O O O @ ",
"O O O O O O O O O O O X O O 2 2 = ; $ p y O O O $ , y $ O @ $ = 7 = O O O O O @ O O O O # , , @ O @ $ $ O O O 7 @ O O O . O @ $ ",
"O O O O O = O O O O O O = O % p w O O O O X O O 2 E { y O O w p = @ $ O O O O @ O O O O @ $ O O O O O , = O $ , = @ @ @ O O # O ",
"O O O O O @ @ O O O O O O O O O O O O O O O @ w / / L , O @ T ~ = @ O O O O O $ $ < O O O O O O O O O O $ $ $ < = O 7 = O O O O ",
"O O O O O O = O @ = @ O O O 7 $ O O O O O $ w v O.+._ z h = = , $ , 6 @ @ @ $ = $ $ , O O O O @ $ O O O = @ O $ , O O @ O = 7 = ",
"@ O O O O @ $ $ $ = = = # O O = 9 i O O O & $ $ v v p k = @ O @ $ = 6 $ = $ O O O O @ @ O O O p T = O $ O O O O $ O O O O = , w ",
"@ = O = = # ; @ = , , @ = $ = , , w = X O @ @ $ O O O O O $ , @ $ O $ @ O O O O O O @ 7 O . O ; = , 6 M I 6 7 = = O O @ $ O O O ",
"O O O = p @ O O O @ @ O O O = 7 = O O O O O O @ O O O O @ = , $ O @ O @ @ O O = O O O @ O O O O O O = $ w 7 , , $ O O O $ O O O ",
"O O O O O O O O , O O , w , O O w v $ O $ , O O O O $ < , d M $ O O O = = O = t O O O $ 9 O O O O O O O , , z k < O @ @ O O O O ",
"O = 7 = O O O O O @ O p d w $ $ t w @ O @ = $ $ = 7 $ O @ w d @ @ , = O O O O O O @ $ 6 $ O . O O O O = & , A ] G # # @ O O O O ",
"O O O @ $ O O O O O O = A p & p ' Z , $ k c = M p + O O # @ O @ @ = = @ O O O = O O $ $ O O O O O @ , 7 $ $ 7 < @ , p = $ M w O ",
"@ 6 O O O X O O O O O , w $ @ y ../ , 7 p @ O O & $ O # z = O @ O O O = = = = , + O O O O , @ O O , S p , i @ O O O @ O @ 7 7 @ ",
"O O @ O O O O O O $ , 6 O O O O $ = O + = O O O O O + + # O O = = O O O O d S = O O O $ 2 n 9 @ = y L 2 O & $ O O $ O O = # O O ",
"$ @ O O O O O O O O O O @ O O O = @ O O X O # O O O O , O O # O @ O O O O w v $ O O O $ , a 9 $ @ O O O O X O # h @ @ 7 7 = O O ",
"$ $ O O O = = O O . X O @ $ = k = $ = O . O = @ = $ $ w $ O = O O O , $ O w i = = $ 9 O O O O O O O O O O O O h z O O O O @ O O ",
"; w $ = = , = @ O O @ $ v d w , = i w @ , O + $ @ $ 7 , $ = z 7 O $ , $ O O $ = p Y 6 $ = O O O # O + ; @ O O = O . . O O $ $ O ",
"7 w , O O O @ = 0 W R h l x = O O O O = i , O O O O O O O , p $ O $ O O , @ @ 7 d } a @ @ O @ 7 h O O + O O O O , O @ O O O O $ ",
"7 @ O O X X O O @ p = = ; # O O O O @ $ @ $ = O O O 7 k 7 $ O O O O O O O O O @ $ @ O O O O O @ @ O O O O O O O O O O O O O O O ",
"O w = O O O @ @ O X O O O O O O , , O O $ 0 P 7 = 6 7 P } w @ O O = $ @ @ O O O $ O O = = = $ = t = O O O # h + O . O O O O O O ",
"O 7 , @ # @ @ = O O O O = O O O 7 = O O O O @ = 6 6 @ @ = $ = = @ $ @ O O O = z d $ O O # ; , $ O O O O O ; 7 O O O O O O O O O ",
"O = , = O O O O O $ O O @ O O O O O = @ O O O 7 6 @ @ O   X O = 9 M $ , , @ # 7 = O O O O O O O O O O O O O O @ O w p $ O O O X ",
"& , @ O O O O O $ , = O O O @ w O O O O O X O w w O O @ O O O O ; 7 O O O O O O @ O O O O X O O O O O O O O O O . O y = O O O O ",
"$ = O O O O O O @ = w w 0 $ $ , 7 @ @ @ $ = , @ O O w w $ @ = @ O O O $ , @ # O O O O O O O O @ O O O O . X O O O = L t O O O O ",
"O O O O $ , $ O O = $ = w $ O = 7 @ O $ w G 7 $ @ O $ $ @ = 7 = 7 O O A L 7 7 $ O O O O O O O O O O O O @ O O $ $ F O.` , O O O ",
"X O O $ 1 q I i # O @ # = O @ $ @ O O O , , O O O O O O @ , , @ = $ $ , y $ & $ O O O O O @ $ @ $ O X O O $ $ w , y ~ v $ O O O ",
"w $ @ = X X = $ O X X 7 , @ = O O O O , , O O O % O O O , L S = = & , $ 6 , $ O O O O O O O O = = O O O O O , v $ @ O O @ O O O ",
"w , O @ O O O O O = = O X O O @ O O O O $ $ O $ $ O O $ 2 { L O O = 7 @ = , $ $ = O O O O O O @ 7 @ O O O & , , O O X O O O O . ",
"O O O O O O @ @ O # O O O O O = = O @ O O @ @ $ 7 7 , = , , $ O O O # O # = , , @ O O O O O = B , $ O O $ 9 d P q O O O @ i w @ ",
"@ O $ O O O = = O O O O O O O O = O O O @ O = 7 $ = , i O @ O . O # O O # 7 , , = , $ O O $ O $ $ @ @ $ $ O , M 9 O O $ $ w d 6 ",
"O @ = $ O O O O O # O $ = O O O = $ O O O O @ 7 $ O O w & 2 O O O = O O + O $ p M ! S , O O O O O O O O O $ O O O X O $ $ O O O ",
"O O @ $ , q O O ; ; @ = = = $ O @ $ O O O O = = $ O O O O 2 t = = O @ @ O O O t M ~ | S @ O O @ @ = , , $ $ O O O , O O O     O ",
"@ O O # @ O O @ O O O = , w = O O O @ O @ O @ , = # O O X X = O O O O = , O . O 7 v ..T , $ O O O O w i P I $ O O $ O @ = O O ; ",
"= O O O O O X O O O O O O , , O O O 7 ; = $ $ z k 7 , @ , O O O O . . O @ O O O , , $ $ O O O O $ , i M 2 $ O O O $ $ = 7 O O $ ",
"O @ @ @ = O O O $ w , O O @ $ @ O O O = = $ y / p = w $ @ O O w i O O O @ O O # = @ O O , $ O = @ $ M T L O O $ $ M d 7 7 $ $ $ ",
"O $ = $ O O O O O $ , = O @ O @ O O = h 7 $ , 2 $ O = @ O O O O $ = $ = p + O O O O O O w , @ = ; = 7 w t O O O $ E M 7 @ @ $ , ",
"w 7 $ $ O O O O O O O @ O O O = O O f 4 ; # O O O = z M 7 w q n @ O @ = , O O @ O O X . O $ = h x O O O $ = O O O O # # O @ @ O ",
"$ O O @ = $ @ = 9 O O O O . # l = O @ = , $ O O w , ; G k , 6 6 O O = @ O O O O @ O O $ , y t = O O O O $ v , 7 7 O O O O O $ @ ",
"O O O O O @ @ O O O O $ O O + @ @ 7 = 9 M 7 ; = w w = h 7 O O O O O O O O O X O @ @ , B M v 2 O O O O O @ y w p p $ = O O O O $ ",
"@ O O O O h h # O = O O O F k = $ O @ $ $ ; f O O O $ @ O O O $ < O O O O X X O @ = = = O @ O @ , O O = p ../ p d = O O = @ O @ ",
"O O O O O O O O O O O O = L L 7 , , 9 $ O @ O O O $ p , O O O = , , = $ O X X O $ = @ O O O O O O O O $ 2 ( J , w P 6 $ = # @ O ",
"O O O O O O O O O O O = y o.) $ $ 7 , @ $ $ $ O O O w = O @ O @ $ , $ 2 w $ $ O $ $ O , , $ O @ , $ @ $ O O < = , i 2 O O # # O ",
"O X . O @ ; = f ; O $ $ = C y O @ @ = O $ d I ! , O O O @ O . . O O O 2 y O O O $ O O O O O O @ $ @ O w w = R 7 O + X O O # = @ ",
"= ; O O O O + # # O O = O O O # O O $ O 7 k d M 6 $ $ O O O . O O O = = O O X O O O O O O O @ @ O O O @ $ # # O O O O O O O O O ",
", $ O O O O # h h O O O O O O O O O = , h ; O O h # O O O O O O O O O = = O O O O O O O O 7 z $ O @ O O @ = @ O O O O O O = , 1 ",
"$ O # @ O O = # O O O O O w = O O = = = O O = + + O O O $ $ @ @ O O # O , O O O O O O O O @ @ O @ 7 $ O O O $ $ O O O O O @ w i ",
"O = ; # O @ O O O O $ @ O O $ # @ O w , $ @ 7 @ O O O O = @ = $ O @ $ O O O O O O O @ @ O O O O @ # O O = $ O = # O @ O O O , v ",
"@ $ O = O = < = O O = O O O + G t O O O = @ $ = @ # @ O O O O O O @ @ @ $ = O $ O O O O O . O O $ $ O O , w O O O @ $ O O O p ' ",
"O O 7 x + @ , , = O 2 = O O # 7 = O O X O O O O O O O $ $ O O @ O @ = 7 @ O O @ O O O O O O O $ = = @ O @ , $ O = = @ O O O L o."
};
