/* XPM */
static char *_a1517b0dff74435e2024c4444b208aei6vFNAdIM8i03M4T[] = {
/* columns rows colors chars-per-pixel */
"64 64 122 2 ",
"   c #050403",
".  c #090E06",
"X  c #120F04",
"o  c #0A1006",
"O  c #131004",
"+  c #1A1609",
"@  c #1E1A09",
"#  c #221D05",
"$  c #231F09",
"%  c #242007",
"&  c #252109",
"*  c #21370F",
"=  c #223611",
"-  c #283D13",
";  c #274113",
":  c #2B4515",
">  c #2B4817",
",  c #2E4618",
"<  c #304719",
"1  c #375B1C",
"2  c #3D5E1C",
"3  c #3D641E",
"4  c #3E691D",
"5  c #3F5F21",
"6  c #3E6421",
"7  c #3F6A21",
"8  c #3E6628",
"9  c #415F1F",
"0  c #41651E",
"q  c #426B1E",
"w  c #43721E",
"e  c #49721F",
"r  c #4F7C1F",
"t  c #71610B",
"y  c #7F6D08",
"u  c #415F21",
"i  c #426521",
"p  c #486724",
"a  c #436B22",
"s  c #496D23",
"d  c #476C29",
"f  c #4A6D29",
"g  c #457223",
"h  c #4A7425",
"j  c #477A25",
"k  c #4C7B25",
"l  c #457228",
"z  c #4C7529",
"x  c #4D7B29",
"c  c #507725",
"v  c #517C26",
"b  c #517728",
"n  c #527C2A",
"m  c #4D8226",
"M  c #4E8A26",
"N  c #4E832A",
"B  c #4F892A",
"V  c #538226",
"C  c #598627",
"Z  c #548A26",
"A  c #5A8A26",
"S  c #598D27",
"D  c #508229",
"F  c #55812B",
"G  c #52872B",
"H  c #548529",
"J  c #52822C",
"K  c #56822D",
"L  c #53852C",
"P  c #54862D",
"I  c #58842B",
"U  c #5A852B",
"Y  c #58842D",
"T  c #5A852C",
"R  c #568A28",
"E  c #53882C",
"W  c #538A2D",
"Q  c #54892D",
"!  c #558B2C",
"~  c #588A29",
"^  c #598D28",
"/  c #5A8C29",
"(  c #5D8C2A",
")  c #598A2C",
"_  c #5C8A2F",
"`  c #5B8C2E",
"'  c #5C8E2D",
"]  c #579027",
"[  c #56922B",
"{  c #5D902B",
"}  c #5E912A",
"|  c #5A912C",
" . c #5C932E",
".. c #5E922E",
"X. c #56982C",
"o. c #558331",
"O. c #598531",
"+. c #568B30",
"@. c #598C30",
"#. c #5B8C31",
"$. c #5C8D31",
"%. c #5D8E30",
"&. c #569230",
"*. c #5D9131",
"=. c #5F9331",
"-. c #608E2C",
";. c #61932E",
":. c #608E32",
">. c #619431",
",. c #D4B706",
"<. c #D6B906",
"1. c #D9BC07",
"2. c #C6AF23",
"3. c #C7B023",
"4. c #DDC115",
"5. c #F0CF00",
"6. c #F0D000",
"7. c #F9DA11",
"8. c #E0C622",
"9. c #E5CA23",
"0. c #E8CD23",
"q. c #FFE421",
/* pixels */
"I Y Y K h g g h V H D V n v x n z z c k h z k k Q / / P 4 6 6 3 g g g j L E E Q L G H D k k k z ~ Q R R 7 q 4 q ' ....%.a s s a ",
"I I Y F h g g h V L L V n c c v z k c k h z z k ) S / P 4 6 6 3 g g g j L E E G G G G D k k k z Q Q R A 7 a a a ' | | ) g s s s ",
"C I Y F h g h z G D G V n c c x c c c k h h h h R A / H 4 3 6 6 g g g g L E E E G G G D k z z z C Q Q C 7 q 4 a ` ...._ g p p f ",
"I Y Y F k g g h H G G C n n n n k k c k z j z k ) / / H q 3 0 3 g h g h L E E E H H H P k k h k ~ / / A a 3 7 a ) %.' Y h s a s ",
"j j j j x D D J / ' ' A a 3 3 0 h s h h n D D D x k m v k b b z k z h h P L G G P Q Q P k h h k ' ..*./ a 3 7 7 h k h c v K F F ",
"j j j j N D D D S { { ( 3 3 3 6 f f h h F H H H J x x v n n n c x z k x P Q G E Q ) #.P k h h k ' ;.*.( a 3 3 7 h k h h D H G V ",
"j j j j D D J J { { ( ( 3 3 6 3 h f h g F V G H x x N v x c n c k x k x P Q E Q ) ) ) P h h h h ' ..*.( a 3 6 7 h b k k D D V F ",
"j h j j J x J J ' ( ..( i 3 i i s s h g F V V D D x x x n c n b x x x x P E G E Q Q Q P k h h h ' ..../ a a 7 a h k h h K G V F ",
"g h g h a a a d L L +.L E E E N i i i i i 3 6 a Y ) ) Y h s s g ~ ~ ~ ~ V K K K J J N J n n c c / ` | ` / ( ' ~ 6 3 6 8 r v v v ",
"h k h h a a a a N B E N E E Q E i i 0 i i 3 0 i ) ) ) ) e s s g ~ ~ ~ ) F K K K J N N J n c c n ` ` | ..( ( ( ~ 3 3 3 6 v v x x ",
"g g g h a a a a N N L N E E Q Z i i 0 0 0 3 0 i Q ) ` #.q q s s ~ ~ ~ ) F K K K N N G J n n c n ` Q Q ` ( -.( ( 6 6 6 6 v v V D ",
"h h h h a a a a L J L N Q Q Q E a 0 0 0 0 3 3 0 Y O.O.Y h g g g C A C I V F D D J J J v v v k v | Q | | ` _ ' ( a 3 3 q n v v k ",
"P P P J x z z z h h h j D G D D h h h h h h h h 0 0 0 q z v v x a a a a 6 8 8 8 g h h x G Q R ` Q Q R E D v v v ~ ( :.Y a q a f ",
"Q Q E L k x h h g h g h K P K K h h h h h h j g i u 9 3 o.J N m 0 0 0 0 3 3 3 6 h z h h G Q R R Q Q R Q J x n n { / ( ( a i p i ",
"G E G L k x h z g h g h K F K J h h h h h h h h 9 u i 0 n m m D a 0 0 q 3 6 3 6 g h h h Q Q Q E E Z Z E J z n v ' ` -.-.a 0 i 0 ",
"G G G L x z z z h h g h K P D P h c h h h h h h i i i a x D D x a a a a 6 8 6 6 h h z h Q Z E E Q E Z E D x z k ' ( -.A d i i i ",
"p p s d h g g g s s s g ) / S / I ~ I ~ H Q H H V L Z E h h h h ) ` ` _ F v v V &.....#.h g z h ) Q Q ) g g g h ..*.*.%.j j j h ",
"p p a a d a a g s s s g ) / S / ( ( A ~ H Q H H Z B M Z j h h h %.....' H K F F *.>.;.%.h d l z Q Q Q Q g s d h ` ..*.*.x z z z ",
"a a a a d g g g s s s g ) ` / ` ~ A A ~ H Q Q H M E M E j j g z ` / | ' F K F H ..>...%.j g a l Q Q | Q g a s h *.>.>.%.x j h h ",
"s q a a q a a a s s s h Y ) ) ) ~ ~ ~ ) H P P H G +.G D j j j 1 : : : , - 5 v F *.*...%.j j g h Q Q ) P h g g g %.*.*.#.x z z z ",
"c c n n h g h g 0 i 0 3 j w w j Q Q R H j j j j 3 3 3 4 x D B ;   + @ +   = q q G G E Q G G Q Q j h h x x L G V x k x x h h h h ",
"v v v c e e g g i i i a g w w g Q Q ` Q j j h j i 2 3 3 J N L ; $ 3.8.2.@ = 0 q E G E E Q Q ` R z h g x m G G m x k k x z z z z ",
"v k v v e g h g i i i a g g g g E E Q Q j j z j 6 0 i 6 D m B ; & 0.q.9.$ = a a G G E E Q Q Q R z z k x m m m V x x x x z h h h ",
"V k v v g g h s q 0 3 a g g g g E E Q Q j x x j 6 0 6 6 D B N ; & 9.q.9.$ = i q G G L E E Q Q Q j h h h m G V V k j k x z h h z ",
"| [ [ &.j z z j j h j z q a a a z c b n V F D V ~ R / / G G G ; & 9.q.9.$ = 7 a m N m N g a a a a a a a j j l j a i i a a a a a ",
"X.[ [ [ j z h j j x x z q a a a z c b z v V v V / / / ` G H G : & 9.q.9.$ = 7 7 m m m m g a a a q a a a h j j l a i i i i i i a ",
"X.X.X.&.j j z h j j z h q 4 a a k c b z V V D H / ~ / / G H G ; & 9.q.9.$ = a a m V D x q q a a q a a a g j j g i 0 0 i i 0 0 0 ",
"Q | [ Q j j j h z z z h q q q q b b z k F C V V / / / ` H H H : & 9.q.9.$ * 4 a m D J x g q q a q q a a j j j j a i i q a a a a ",
"j j j x x N N N g g g h z z z n i 0 i a ~ ( ' ( ;.;.;.;.Q Y Y : & 9.q.9.$ : D v g g g h v K F F j j j j L +.+.L a a a a a a a a ",
"z h h h x N m m h g g g n n z z i i 6 a ~ { ( S >.>.>.>.~ ) Y : & 9.q.9.$ : V V l g g h n I F V k j j k E +.+.E d a a a a a a a ",
"g h h z N N m J g g g g n n z z i i 6 a ~ { ' ' ;.;.;.;.~ Y Y : & 9.q.9.$ : V V h h h h n V V V k j j k Q Q Q E d a a a a a a a ",
"j h h j N N x N h h k g n z z z 0 i i a ) ( ` ' ;.;.;.;.~ Y Y : % 4.7.4.# : V D g a d g F I F F x x z j E Q Q G g d d d a a s s ",
"3 6 6 3 z x m N ` Q R +.G G E E Q / / / H Y Y F ....{ ..k b z - # <.5.,.# ; k x a a 8 a ` { *.%.R G E D a i i a I ~ I I v v v v ",
"3 6 6 3 x k N x Q Q E +.G R H G Q Q R ` H Y I I ;.{ { ' x b z - # <.5.,.# ; j j 4 0 6 4 *.*.*.*.Q L E P i 0 0 0 I ~ ~ Y V v v F ",
"3 6 6 3 z x x x Q &.+.#.G H G Q Q ` / / H H H F ( { { ' k k z - # <.6.,.# ; k j 6 i i 4 %.| | { Z E E Q 3 0 0 i I _ _ Y v v v n ",
"3 3 6 3 x x x x Q +.+.P E Z V Q Q Q Q Q H I H H ......' x x j - # <.6.,.# - j j a 6 6 a #.>.*.' Q H G D q 0 3 3 I Y Y K n v v v ",
"h s f g Y I I H 4 3 3 q Q Q | / V Z Z E / ( ( / Q H H Q H +.+.; # <.6.,.# = d d m N J z q 3 0 i 7 4 4 q v H H H h h h h k h k h ",
"g h f g I I I I i 2 0 3 ) [ | Q V N N Z ' ' ' ' Q P P Q Q Q Q ; # <.6.,.# = a a m m N J 7 i p i i q 3 4 Y Q G V h g g g z k z k ",
"h h h g I C I I 3 3 i 0 Q / Q / G G G G | { ( ` G H Y P E E Q : # <.6.,.# = a a N N B N 6 i 0 0 3 0 3 4 H H L Q h g h h z h k h ",
"h h z g I I I I 4 i 3 4 R ] / / m m N m ` / ( ` R H I H Q Q Q , # <.6.,.# = d a x N m x a i 0 i 7 q 6 q V V G V h g h g z h k h ",
"Q H ~ I v n n v k z h j Q Q Q E a a a q O.I Y Y V x x v #.#.%.< # <.6.,.# ; G V g g g g O.) I Y J V V D 4 i i 3 j k k x s s p s ",
"Q C R I v v n v n z z x Q Q Q G a 7 7 4 P H I H x x x v ) _ _ < # <.6.<.# ; E V d d a a O.~ ) ) P H H J 3 6 6 3 j k j x s s s s ",
"~ Q ~ ~ V v v v z z z x H Q Q H 7 6 7 4 P I ~ I D x x D #.%.' : # 1.6.<.# > E G d a a a O.) / Q G H H J 6 6 6 i j k k x s s p s ",
"H H H H v n v v z x x m H H Q G a a a a K F I K m x v V ) #.#., O t y t X ; V V a a g h K Y ) Y L G G J q 3 3 3 k k x x g g s s ",
"g w w w a a a a Y ) Q Q G V V m 3 3 3 3 h g g h Q ) ) H v x x : . o o o . - 6 6 x x h h q q q q G N L L x x n x k k k v k k k k ",
"a 7 4 7 7 7 a a / ..( / V V D k 0 0 i 3 s s s f C A A I x h z h d d d a 1 2 3 0 j x j z 3 i 0 a E N B L m m m k c v c c k b b b ",
"a a a 7 a a a a Q / / / V D V m 0 0 6 0 s s s f ) ( A ~ z z j x h z j z 0 0 0 i x x j z 3 i 0 0 N N B B N m m N c c x c k b c k ",
"a a q a a a 7 7 Q ) ~ / V D V m i 0 6 i s s s s Y ~ ~ Y x z j k h x x z 0 i 0 0 z j x x q a q q G L +.L N x x x c k k c k b n c ",
"h h h h g g h h a a a a D m N m z j k k V V V V D D D v q 3 3 4 g g g 7 g e g g q a a a J H G L n v D v q a a q 3 6 6 3 x x m D ",
"h h z h h h h h a a a a N m N m z x x x F F F H L G D K 4 i 6 3 q g g a g g g g 3 a i a P G H P J x m x q a a 0 0 i 3 3 x m m m ",
"j j j h g g h g a a 7 7 N N B N x k x x F F V C J D J o.3 3 6 3 g g g a g g g a a a i 4 O.Q Q Q v m D n a i i a 3 2 3 3 x m m m ",
"j j x j g g h g a q 6 7 N N B N x x x x D G F V J J n n q 4 4 q q w g g a h g h q a a q K G H P v v v z g q q q 3 3 3 3 x m N N ",
") Q ) Y F K K n i 0 3 a D G L G V V V V Q E E E g s s g J L G P v x x x q a q q Y Y O.K v x x v x h j x L E E L a i i a z x v n ",
") ) ) ) H F K F i 3 3 i F H P P C I I V Q E E E s s p q ) Q E Q z v x z a a a a I I Y Y k j j x k h h j E Q Q B a a a a z k c n ",
"/ ) ) ) H F P F i 3 3 6 D G L P V C C V E E E E a p s q H E E Q v v k v q a a a I I I I x j x x h h h j E E E E a i a a z x v n ",
"Q Q ~ Q H P P F i 3 3 3 D G L G V V V V E E Q H h s p g L E Q H n k k v q a a a n F I n v x x x j h h h Q Q E P d a a a z x v z ",
"6 i i a A { ( ( a i a a a a g s q a a q x k k x #.#.#.Q ` | | | V F F V h g j l i i i i v D n v w g g g Q ~ ) O.E E E E Q R R R ",
"3 0 0 i ( ( ' ' d a a a a q a a i i i a z x j k Q +.R ` ` | | ] V K F V h g g h i 0 i i n F n v g g a g Q / / ) E E E E Q Q R R ",
"i u u 3 -.;.{ ( a i a a d a s a 0 i 0 q z x x x | | | | | | | | F K F V h h g g i 0 u i n F n v g g a g Q / / ~ Q Q Q Q Q Q Q Q ",
"i i i q I ( ( A a q a a a p p a q q q q j k k x #.#.#.#.` ` ` ` V D V F h h g g 0 0 i i v V D v g q g w H ~ ) ` E L L E Q +.+.+.",
"` ) #.) v x c n h h h h a p a a O.) ) #.#.#.+.Q N x x x x x x x / &.| Q 4 3 3 3 h h z h ) / ` / k j j j x x k j h j h h h h h h ",
"| | ....h h b z h h h h a p a a ` | | | R R Q Q x x x z x z z x / Q | R 4 3 3 6 h k b k / Q Q Q j j j j k k k k h h h h h g h h ",
"*.&.| { z c c h h h j h a p p a Q | | | R #.Q Q x x x x z z x n Q [ [ Q 3 6 3 3 h k b k / Q Q Q j j j j k k k k h h k h h h l l ",
":.*.*.S n k x k h j j h a p p a Q ` ` &.Q #.O.) x x x x x x x x Q #.| ` 3 3 3 3 h h b k ' / Q Q j j j k j x k k h k k h h h h l "
};
