/* XPM */
static char *d1fbd559d58a4973be25c05e2306e2cb5E458rfOJH5MC5MB[] = {
/* columns rows colors chars-per-pixel */
"64 64 164 2 ",
"   c #090E05",
".  c #0B1106",
"X  c #0F1807",
"o  c #1C1805",
"O  c #121D0A",
"+  c #1D1B0B",
"@  c #1D1A11",
"#  c #201B06",
"$  c #14200A",
"%  c #1E320F",
"&  c #1F3211",
"*  c #23240C",
"=  c #3D340B",
"-  c #232514",
";  c #223611",
":  c #243B13",
">  c #2B3D15",
",  c #2C3A18",
"<  c #3A361E",
"1  c #264012",
"2  c #2C4516",
"3  c #2F4916",
"4  c #2D4618",
"5  c #344B16",
"6  c #364618",
"7  c #334C1B",
"8  c #335319",
"9  c #3D5E1C",
"0  c #3D641D",
"q  c #3E691D",
"w  c #3F5E21",
"e  c #3D6421",
"r  c #3F6A21",
"t  c #3E6628",
"y  c #484F18",
"u  c #4D5412",
"i  c #415F1F",
"p  c #515718",
"a  c #545818",
"s  c #665C0E",
"d  c #695F0B",
"f  c #6A5F10",
"g  c #41651E",
"h  c #426B1E",
"j  c #43721E",
"k  c #49721F",
"l  c #4F7C1F",
"z  c #706107",
"x  c #796A0D",
"c  c #746617",
"v  c #415F21",
"b  c #426521",
"n  c #486724",
"m  c #436B22",
"M  c #496D23",
"N  c #476C29",
"B  c #4A6D29",
"V  c #457223",
"C  c #4A7424",
"Z  c #477925",
"A  c #4C7B25",
"S  c #457328",
"D  c #4C7529",
"F  c #4D7B29",
"G  c #507725",
"H  c #517C26",
"J  c #517728",
"K  c #527C2A",
"L  c #6C673B",
"P  c #6D693C",
"I  c #746C40",
"U  c #787342",
"Y  c #82710C",
"T  c #897816",
"R  c #867618",
"E  c #8A791A",
"W  c #857B42",
"Q  c #4D8226",
"!  c #4E8A26",
"~  c #4E832A",
"^  c #4F8A2A",
"/  c #538226",
"(  c #598627",
")  c #548A26",
"_  c #5A8A26",
"`  c #598D27",
"'  c #51822A",
"]  c #55812B",
"[  c #52862A",
"{  c #548529",
"}  c #51812C",
"|  c #52852D",
" . c #55862D",
".. c #59852B",
"X. c #58842D",
"o. c #5A862D",
"O. c #51882B",
"+. c #568B29",
"@. c #53892C",
"#. c #538A2D",
"$. c #558B2C",
"%. c #598D2A",
"&. c #598A2E",
"*. c #5A8C2C",
"=. c #5C8E2D",
"-. c #579027",
";. c #56922B",
":. c #5A912C",
">. c #5B912C",
",. c #5D922E",
"<. c #56982C",
"1. c #558331",
"2. c #598531",
"3. c #558C30",
"4. c #5B8D31",
"5. c #569230",
"6. c #5D9131",
"7. c #608E2C",
"8. c #61922F",
"9. c #608E32",
"0. c #609332",
"q. c #978619",
"w. c #B29C13",
"e. c #B3A02F",
"r. c #DABD0B",
"t. c #C6B021",
"y. c #DEC20F",
"u. c #EFCF03",
"i. c #E2C40D",
"p. c #EFD00E",
"a. c #F5D506",
"s. c #F8D706",
"d. c #F6D60D",
"f. c #FADA0A",
"g. c #E9CC15",
"h. c #EDD01B",
"j. c #F5D611",
"k. c #F7D813",
"l. c #FADB14",
"z. c #FCDE1C",
"x. c #FEE01E",
"c. c #E4CA23",
"v. c #F2D621",
"b. c #FADE22",
"n. c #F9DE2E",
"m. c #F7DE3D",
"M. c #F9DF3D",
"N. c #FFE322",
"B. c #FDE12B",
"V. c #FBE23B",
"C. c #BCAB43",
"Z. c #C6BA6A",
"A. c #DDC94A",
"S. c #E8D247",
"D. c #F9E145",
"F. c #FEE74E",
"G. c #FFE750",
"H. c #DDCE73",
"J. c #DFD074",
"K. c #E5D468",
"L. c #E2D275",
"P. c #FCE862",
"I. c #FDEB6D",
"U. c #FEEC71",
/* pixels */
"..X.X.] C V V C / { ' / K K F K D D G A C D A A $.%.%. .q e e 0 V V V Z | @.@.$.| [ { ' A A A D _ $.$.+.r g q h =.,.,.4.m M M m ",
"....X.] C V V C / | | / K H H K A A G A C D D A &.` %. .q e e 0 V V V Z | @.@.[ [ [ [ ' A A A D $.$.$._ r m m m =.>.>.&.V M B M ",
"( ..X.] C V C D { ' [ / K H H F G G G A C C C C +._ %.{ q 0 e e V V V V | @.@.@.[ [ [ ' A D D D ) $.$.) r h q m &.,.,.&.V n n B ",
"..X.X.] A V V C { [ [ ( K K K K A C G A D Z D A &.%.%.{ h 0 g 0 V C V C | @.@.@.{ { {  .A A A A _ %.%._ m 0 r m &.4.=.X.C M m M ",
"Z Z Z Z F ' ' } %.=.=._ m 0 0 g C M C C K ' ' ' F A F H A J J D A D C C  .@.[ [  .$.$. .C C C A =.,.6.%.m 0 r r C A C H K ] ] ] ",
"Z Z Z Z ~ ' ' ' ` >.>.*.0 0 0 e B B C C ] { { { } F F K K K K G F D A F  .$.[ @.$.&.4. .C C C A =.8.6.*.m 0 0 r C A C C ' { / / ",
"Z Z Z Z ' ' } } >.>.*._ 0 0 e 0 C B C V ] / [ { F F ~ K F G K H A F A F  .$.@.$.&.&.&. .C C C C =.,.6.*.m 0 e r C J A A ' ' / ] ",
"Z Z Z Z } F } } =.*.,.*.b 0 b g M M C V ] / / ' / F F F K H K J F F F F  .@.[ @.$.$.$. .C C C C =.,.,.*.m m r m C A C C ] [ / ] ",
"V C V C m m m N | | 3.| @.@.@.~ b b b b b 0 e m X.&.&.X.C M M V _ _ _ _ / ] ] ] } } ~ } K K H H %.&.>.&.%.*.=._ e 0 e t l H K K ",
"C A C C m m m m ~ ^ @.[ @.@.$.@.b b g b b 0 0 b &.&.&.&.k M M V _ _ _ &.] ] ] ] } ~ ~ } K J G K &.&.>.,.*.*.*._ g 0 0 e H K F F ",
"V V V C m m m m [ ~ | ~ @.@.$.O.b b g g g 0 g b $.&.&.4.h h M M _ &.&.&.] 1.] } ~ ~ ~ } K K H K &.$.$.&.*.7.*.*.e e e e H H / ' ",
"C C C C m m m m | } | ~ $.$.$.@.m g g g g 0 0 g X.X.2.X.C V V V ( _ ( ../ ' ' ' } } } K H H A H >.$.>.>.&.&.=._ m 0 0 h K K K A ",
" . . .} F D D D C C C Z ' [ ' ' C C C C C C C C g g g h D K K F m m m m e e e e V C C F [ $.$.&.$.$.$.@.' K K H _ _ 9.X.m h m B ",
"$.$.@.| A F C C V C V C ]  .] ] C C C C C C Z V b v i 0 1.} ~ Q g g g g 0 0 0 e C D C C [ $.$.$.$.$.$.$.} F K K ,.%.*.*.m b n b ",
"[ @.[ | A F C D V C V C ] ] ] } C C C C C C C C i v b g K Q Q ' m g g m 0 e 0 e C C C C $.$.$.@.@.) ) @.} D K K =.&.7.7.m g b h ",
"[ [ [ | F D D D C C V C ]  .'  .A G C C C C C C b b b m F ' ' F m m m m e e e e C C D C $.) @.@.$.@.) @.' F D A =.*.7._ B b b b ",
"n n M N C V V V M M M V &.%.` %..._ .._ { $.{ { / | O.@.C C C C &.&.&.&.] K K / 5.,.,.4.C V D C &.$.$.&.V V V C ,.6.6.6.Z Z Z C ",
"n n m m N m m V M M M V &.%.` %._ _ _ _ { $.{ { O.^ ! O.Z C C C 4.,.,.=.{ ] ] ] 6.0.8.4.C N S D $.$.$.$.V M N C &.,.6.6.F D D D ",
"m m m m N V V V M M M V &.&.%.&._ _ _ _ { $.$.{ ! @.! @.Z C V D &.%.>.=.] ] ] { ,.0.,.4.Z S m S $.$.>.$.V m M C 6.0.0.4.F Z C C ",
"M h m m h m m m M M M C X.&.&.&._ _ _ &.{  . .{ [ 3.[ ' Z V 1 : 2 2 2 4 > w K ] 6.6.,.4.Z Z V C $.$.&. .C V V V 4.6.6.4.F D D D ",
"H H K K C V C V g b g 0 Z j j Z $.$.$.{ Z Z Z Z 0 0 0 q Z m * + @ @ @ @ @ , 0 h [ [ @.$.[ { $.$.Z C C F F | [ / F A F F C C C C ",
"H H H H k k V V b b b m V j j V $.$.&.$.Z Z C Z b 9 0 0 7 * t.A.H.H.H.H.J.L X 9 @.[ @.@.$.$.&.+.D C V F Q [ [ Q F A A F D D D D ",
"H A H H k V C V b b b m V V V V @.@.$.3.Z Z D Z e g w ; p q.v.B.m.m.m.m.M.C.U , e [ @.@.$.$.$.$.D D A F Q Q Q / F F F F D C C C ",
"/ A H K V V C M h g 0 m V V V V @.@.$.$.Z F F Z e 0 7 + E N.z.j.u.u.u.u.u.V.K.< 7 F [ @.@.$.$.$.Z C C C Q [ / / A Z A F D C C D ",
">.;.;.5.Z D D Z Z C Z D h m m m D H J K / ] ' / _ 8 * t.v.z.a.j.z.z.z.z.z.k.h.K.L O Z ~ V m m m m m m m Z Z Z Z m b b m m m m m ",
"<.;.;.;.Z D C Z Z F F D h m m m D H J D / / K / %.5 + c.N.z.u.d.B.F.F.F.N.d.p.U.I . Z F V m m m h m m m C Z Z S m b b b b b b m ",
"<.;.<.5.Z Z D C Z F D C h q m m A H J D / / ' ] H 5 = c.N.z.a.j.B.I.U.I.V.k.j.P.W - m C h h m m h m m m V Z Z V b g g b b g g g ",
"$.>.;.$.Z Z Z C D D D C h h h h D J D A ] / / C $ d i.b.k.a.z.l.d.l.z.b.I.D.z.j.S.Z.- 2 V h h m h h m m Z Z Z Z m b b h m m m m ",
"Z Z Z F F ~ ~ ~ V V V C D D D K b g b m _ *.=.H . z f.x.j.u.z.l.s.f.f.l.U.G.z.u.D.L.@ ; K ] ] ] Z Z Z F 1.3.3.| m m m m m m m m ",
"D C C C F ~ Q Q C V V V K K K D b b e m _ >.*.H . z f.x.j.u.z.l.s.f.f.z.I.F.z.u.D.J.@ ; K ..] / A Z Z A @.3.3.@.N m m m m m m m ",
"V C C D ~ ~ Q } V V V V K K D D b b e m _ >.=.H . z f.x.j.u.z.l.s.f.f.z.I.F.z.u.D.J.@ ; K / / / A Z Z A $.$.$.@.N m m m m m m m ",
"Z C C Z ~ ~ F ~ C C C V K D D D g b b m &.*.&.K . z f.x.j.u.z.l.s.f.f.z.I.F.z.u.D.J.@ ; ] ..] ] F F D Z @.$.$.[ V V N N m m M M ",
"0 e e 0 D F Q F &.$.3.3.[ [ @.@.$.` ` %.{ X.X.A . z f.x.j.u.z.l.s.f.f.z.I.F.z.u.D.J.@ & &.>.6.4.+.[ @.' m b b m .._ ....H K H H ",
"0 e e 0 F A ~ F $.$.@.3.[ $.{ [ $.$.$.%.{ X...A . z f.x.j.u.z.l.s.f.f.z.I.F.z.u.D.J.@ % 6.6.6.6.$.| @. .b g g g .._ _ X./ H H ] ",
"0 e e 0 D F F F $.5.3.4.[ { [ $.&.%.>.%.{ { { C . z f.x.j.u.z.l.s.f.f.z.I.F.z.u.D.J.@ % 4.>.>.>.O.@.@.$.0 g g b ..&.&.X.H H H K ",
"0 0 e 0 F F F F $.3.3.$.@.O./ $.$.$.$.$.{ ..{ C . z f.x.j.u.z.l.s.f.f.z.I.F.z.u.D.J.@ % 4.0.6.=.$.{ [ ' h g 0 0 ..X.X.] K H K K ",
"C C B V X.....{ q 0 0 h $.$.>.%./ O.O.@.%._ _ F   z f.x.j.u.z.l.s.f.f.z.U.G.z.u.D.L.@ : h 0 g b r q q h K { { { C C C C A C A C ",
"V C B V ........b 9 g 0 &.;.>.$./ ~ ~ O.=.=.=.{ 8 u Y g.l.j.j.k.l.f.d.l.D.n.d.k.e.P 7 e e b n b b h 0 q X.$.[ / C V V V D A D A ",
"C C C V ..( ....0 0 b g $.` $.%.[ [ [ [ ,.>.%.&.[ 3 o r.l.z.u.j.z.d.d.d.x.d.u.x.c . Z ~ e b g g 0 g 0 q { { | $.C V C C D C A C ",
"C C D V ........q b 0 q $.-.` %.Q Q ~ Q &.%.%.&.+.3 # r.l.z.u.j.N.x.x.x.N.d.u.x.c   V F m b g b r h e h / / [ / C V C V D C A C ",
"$.{ $...H K K H A D C Z $.$.$.@.m m m h 2...X.X.Q 0 5 s w.l.k.j.d.d.d.d.d.l.g.R y 4 m V 2.X...X.} / / ' q b b 0 Z A A F M M n M ",
"$.) +...H H K H K D D F $.$.$.[ m r r q  .{ ..{ F F V O f y.z.j.u.u.u.u.u.g.t.* 2 N m m 2.&.&.&. .{ { } 0 e e 0 Z A Z F M M M M ",
"_ $._ _ / H H H D D D F { $.$.{ r e r q  ..._ ..' F F C 7 = i.f.s.s.s.f.x.T * m m m m h 2.&.%.$.[ { { } e e e b Z A A F M M n M ",
"{ { { { K K K H D F F Q { { $.[ m m m m ] ] ..] Q F H / b 6 x Y Y Y Y Y R a 2 A m m V C ] X.&.X.| [ [ } h 0 0 0 A A F F V V M M ",
"V j j k m m m m X.&.$.$.' / / Q 0 0 0 0 C V V C $.&.&.{ K m O . . . . .   : e e F F C C h h h h [ ~ | | F D K F A A A H A A A A ",
"m r q r r r m m %.,.*.%./ / ' A g g b 0 M M M B { _ _ ..F C m N N N N m 9 9 0 g Z F Z D 0 b g m @.~ ^ | Q F F A H H H H A J J J ",
"m m m r m m m m $.%.%.%./ ' / Q g g e g M M M B &._ _ _ D D Z F C D Z D g g g b F F Z D 0 b g g ~ ~ ^ ^ ~ F Q F H H F H A J G A ",
"m m h r m m r r $.&._ %./ ' / Q b g e b M M M M X._ _ ..F D Z A C F F D g b g g D Z F F h m h h [ @.3.| ~ F F F G A A H A J K H ",
"C Z C C V V C C m m m m ' Q ~ Q D Z A A / / / / ' ' ' K h 0 0 q V V V r V k V V h m m m } { [ | K H ' K h m m h 0 e e 0 F F Q ' ",
"C C D C C C C C m m m m ~ Q ~ Q D F F F ] ] ] { | [ ' ] q b e 0 h V V m V V V V 0 m b m  .[ {  .} F Q F h m m g g b 0 0 F Q Q Q ",
"C Z Z C V V C V m m r r ~ ~ ^ ~ F A F F ] ] / ( ' ' } 1.0 0 e 0 V V V m V V V m m m b q 2.$.$.$.K Q ' K m b b m g 9 0 0 F Q Q Q ",
"Z Z F Z V V C V m h e r ~ ~ ^ ~ F F F F ' [ ] / } } K K h q q h h j V V m C C C h m m h ] | {  .K K K D V h h h g 0 0 0 F Q ~ ~ ",
"$.$.&.X.] ] ] K b g 0 m ' [ | [ / / / / $.@.@.@.V M M V } | [  .K F F F h m h h ] X.2.] H F F F F C Z F | @.@.| m b b m D F K K ",
"&.&.&.&.{ ] ] ] b 0 0 b ] {  . .) ..../ $.@.@.@.M M n h &.$.@.$.D F F D m m m m ....X.X.A Z Z F A C C Z @.$.$.^ m m m m D A H J ",
"%.&.&.&.{ ]  .] b 0 0 e ' [ |  ./ ) ) / @.@.@.@.m n M h { @.@.$.K H A H h m m m ........F Z F F C C C Z @.@.@.@.m e m m D F K K ",
"$.$._ $.{  . .] b 0 0 0 ' [ | [ / / / / @.@.$.{ C M n V | @.$.{ K A A K h m m m ] ....K H A F F Z C C C $.$.@. .N m m m D F K D ",
"e b b m _ >.*._ m b m m m m V M h m m h F A A F 4.4.4.$.&.>.>.>./ ] / / C V Z S b b b b K ' K K j V V V $._ &.2.@.@.@.@.$.$.$.$.",
"0 g g b *.*.=.=.M m m m m h m m b b b m D F Z A $.4.$.&.&.>.>.-./ ] ] / C V V C b g b b K ] K K V V m V $.%.%.&.@.@.@.@.$.$.$.$.",
"v v v 0 7.8.>.` m b m m N m M m g b g h D F F F >.>.>.>.>.>.>.>...] ] / C C V V b g v b K ] K K V V m V $.%.%._ $.$.$.$.$.$.$.$.",
"b b b h ..*.*._ m h m m m n n m h h h h Z Z A F 4.4.4.4.&.&.&.%./ ' / ] C C V V g g b b H / ' H V q V Z { _ &.&.@.| | @.$.3.3.3.",
"&.&.4.&.H F H K C C C C m n m m 2.&.&.4.4.4.$.$.~ F F F F F F F %.5.>.$.q 0 0 0 C C D C &.%.&.%.A Z Z Z F F A A C C C C C C C C ",
">.>.,.,.C C J D C C C C m n m m &.>.>.>.$.$.$.$.F F F D F D D F ` $.>.$.q 0 0 e C A J A %.$.$.$.Z Z Z Z A A A A C C C C C V C C ",
"6.5.>.>.D G H C C C Z C m n n m $.>.>.>.$.4.$.$.F F F D D D F K $.;.;.$.0 e 0 0 C A J A %.$.$.$.Z Z Z Z A A A A C C A C C C S S ",
"9.6.6.` K A F A C Z Z C m n n m $.&.&.5.$.4.2.&.F F F F F F F F $.4.>.&.0 0 0 0 C C J A =.%.$.$.Z Z Z A Z F A A C A A C C C C S "
};
