/* XPM */
static char *result[] = {
/* columns rows colors chars-per-pixel */
"64 64 158 2 ",
"   c #080D05",
".  c #0B1106",
"X  c #0E1807",
"o  c #0F1809",
"O  c #1B1704",
"+  c #1C1805",
"@  c #121C09",
"#  c #1C190C",
"$  c #1C1A11",
"%  c #15200A",
"&  c #1F210C",
"*  c #22230A",
"=  c #3C3409",
"-  c #202113",
";  c #252A15",
":  c #263C12",
">  c #2A3E14",
",  c #2B3618",
"<  c #3D3717",
"1  c #264012",
"2  c #2C4315",
"3  c #2C4A17",
"4  c #2E4718",
"5  c #2F4A19",
"6  c #314C16",
"7  c #354718",
"8  c #354B1B",
"9  c #35551A",
"0  c #38571C",
"q  c #3C5D1D",
"w  c #3D641D",
"e  c #3E691D",
"r  c #3D5D21",
"t  c #3D6321",
"y  c #3F6A21",
"u  c #3E6628",
"i  c #4A5216",
"p  c #415F1F",
"a  c #515514",
"s  c #525618",
"d  c #675E0C",
"f  c #41651E",
"g  c #426B1E",
"h  c #43721E",
"j  c #49721F",
"k  c #4F7C1F",
"l  c #7A6D0C",
"z  c #6E6519",
"x  c #415F21",
"c  c #565E2F",
"v  c #426521",
"b  c #486724",
"n  c #436B22",
"m  c #496D23",
"M  c #476C29",
"N  c #4A6D29",
"B  c #457223",
"V  c #4A7424",
"C  c #477925",
"Z  c #4C7B25",
"A  c #457228",
"S  c #4C7529",
"D  c #4D7B29",
"F  c #507725",
"G  c #517C26",
"H  c #517728",
"J  c #527C2A",
"K  c #6A6639",
"L  c #6C683B",
"P  c #7C7543",
"I  c #847209",
"U  c #867616",
"Y  c #867619",
"T  c #867C46",
"R  c #4D8226",
"E  c #4E8A26",
"W  c #4E832A",
"Q  c #4F8A2A",
"!  c #538226",
"~  c #598627",
"^  c #548A26",
"/  c #5A8B26",
"(  c #53842B",
")  c #59852B",
"_  c #558A2C",
"`  c #5A8C2C",
"'  c #579027",
"]  c #56922B",
"[  c #5B912D",
"{  c #56982C",
"}  c #558331",
"|  c #598531",
" . c #558C30",
".. c #5A8D31",
"X. c #569230",
"o. c #5D9131",
"O. c #608E2C",
"+. c #61922F",
"@. c #608E32",
"#. c #609331",
"$. c #94820C",
"%. c #B39C11",
"&. c #C3AB09",
"*. c #DABE04",
"=. c #C2AB21",
"-. c #C6B022",
";. c #C0AC32",
":. c #DEC108",
">. c #DFC51E",
",. c #EFCF04",
"<. c #E2C50B",
"1. c #E6C908",
"2. c #F4D406",
"3. c #FEDE05",
"4. c #F4D40E",
"5. c #FADA0A",
"6. c #ECCE11",
"7. c #F6D711",
"8. c #F7D813",
"9. c #FBDC13",
"0. c #FCDE1C",
"q. c #FFE005",
"w. c #FFE011",
"e. c #FEE01E",
"r. c #E1C721",
"t. c #E3C922",
"y. c #EFD322",
"u. c #F0D422",
"i. c #F5D820",
"p. c #FCDE21",
"a. c #FCDF2B",
"s. c #F9DF31",
"d. c #FFE222",
"f. c #FEE22C",
"g. c #FFE334",
"h. c #FDE33A",
"j. c #8A8047",
"k. c #978B4A",
"l. c #B4A651",
"z. c #C6B968",
"x. c #F3DE5E",
"c. c #FCE445",
"v. c #FDE64C",
"b. c #FFE94F",
"n. c #FEE753",
"m. c #FFEA55",
"M. c #FFEB5E",
"N. c #DECE73",
"B. c #DFD074",
"V. c #EDDA60",
"C. c #E8D76D",
"Z. c #E5D572",
"A. c #FFEC63",
"S. c #FEEB6C",
"D. c #FEED75",
"F. c #FEEC78",
"G. c #FFF177",
"H. c #FFF27A",
/* pixels */
") ) ) ) j j j C ! ~ W ! J J F J S H F j V S S V ) ' ` ) e t t w y C B C W  .W  ._ ( ( ( Z V S H ^ _ ^ / y f e g ` [ +...m m N g ",
") ) ) J C B B V ! ( ( ! J Z D J F F F F V S S S ) / / _ w t t w B C B B } Q Q ( ( ( ( ( Z S F H / ^ ^ ^ y y n y [ [ ` ..j N N m ",
"~ ) ) ) V j V S ( ( ( ! J H F G F F F F S V V S ^ ` ' _ e w t y n n B C W  ._ _ ( ( ( ( S H H S ^ / ) ^ y n e e _ [ [ ..j b m m ",
") ) | J S B V A ( ! ( ^ H J J J F m F F S Z S S ` _ ` ~ g w f v B C B V } Q Q ( ( ( ( ( S S V H _ ` ` / y w n y ....[ ` V m j j ",
"B V k C Z ( D ( / [ ` / M w w w F m F V J R ( ( D Z R G S H H S Z D V S ( ( Q ( )  . .) V V S V ` [ +.` n e y y V F F F F ( J ~ ",
"C C C C D ( ( W / O.[ O.t r q t m m N V ~ ( ~ ! ( R R J J F H H S F S Z  ._ W _ )  ...) V N V S [ +.#.` n w t y V F V V ! ) ( G ",
"S C C C ( ( ( ( +.[ ` ` t w t w F N N V ( W ( ( D D W J F F G G S Z S Z W }  ._  .` ` _ V V V V [ +.[ ` n t t y V H F F G ! ! ( ",
"C C j C W D D } [ / +.` v r t v j m F B ( R Z ( W Z W Z J F G H F F S Z  ._ _ ( (  .` ) V V V V O.+.#.` M y y y B F V V ) ( ~ J ",
"B B B V n n A A ~ (  .W _ Q _ E b p f f v f y g ) |  .) V m j B ) / ` ) ( ) J ) } ( W } G H H J [ _ o.[ / / O.` f w t u h ( J ( ",
"V V V V y n n n W Q _ W Q _ _ _ b f p b v f f v ` ` ` ) j m m j / ` ` ` J ( } J ( W W ( G H H J [ [ ` [ O.O.` ` w w w r R D D D ",
"V V B V n n u n Q W _ Q _ _ ^ E b f p f f f v n (  .| @.g j n V ) ` O.) ) } J W W W W ( J G J J _ ] _ [ ` O.+./ r r t t J ! W ( ",
"B V V C y M n A ( W } W _ _ _ _ b f f f t w w f | | @.J j j m V ~ / ~ ) D ( ( W } ( } D G G F D o._ [ ` ` O...` n y w y Z J F Z ",
") ( ( ( S S C S V V B C W ( ( ( F m V m m V V V f f f g J J D W m b g n w u t t B V V Z ( ) _ _ _ ^ ] Q W G D J / O.@.) n g b N ",
"_ _ _ } R S C S B B V V J ( ) ( m j j F V V B B x x p w J ( W W g f f w w w t t V N N V _ / ] ^ _ ^ ^ _ } D J J +.` O.O.b g b v ",
"W _ ( ( Z A V Z V B B B J ( J ( V F V V V C V V p x p f J W R ( g f f g w t w t V N F V _ ] ^ _ _ Q ^ _ J D J J ` [ O.O.m f v f ",
"W ( _ ( D D A S V V B C } ( ( } V F F V S A V V v p f f D R W Z g g g b t t t t V V H V ~ ^ ^ Q _ ^ E _ ( D Z G O.O.O.~ N v b b ",
"N N m m B B B B m N N g ` ` / ` ) ) ^ ) ^ ( _ ~ Q Q E _ C B C V ` ` ` ` J J J J ..[ o...C A A V _ ` ] _ j B m V [ o.o.o.S A D S ",
"b b n n m n y B j N m j ` ` ` ` / ` / ` ^ ( ^ _ Q Q E ^ C V C V ..o.+.[ ) ) J ~ [ #.#.#.A A M C _ ] ` _ B N m B [ o.@.@.D D D D ",
"n b g b n m B B m m m B ` ..` ` / / ^ / ~ _ ~ ( E _ E _ C C B V ` [ ` ` ( ) ( ~ #.#.[ o.B A B A ` ` ] _ B n b V o.#.#...Z V V S ",
"j g n j n h B n m N m V ) ) `  .` ` ) ` ( } _ ( W _ W ! Z n : : 2 6 2 4 : x J G o.#.o...S B B V _  . .~ C B B V ..o.o...D Z S D ",
"G F F F C B V B f v w w j h h C ~ _ ` ( Z S Z C w w w w B v - $ $ $ $ $ # 2 w w Z W _ _ Q (  ._ Z C C F G ( ( R Z R Z ! V V V A ",
"G G ! G j j V B w n v y C h h n _ _ ..( C C C C v w 9 X . ; z.N.N.N.N.N.B.L     9 _ _ Q ^ ^ ` ^ S B B V W _ E R Z k Z G D D D D ",
"! k ! G j j V V v v v n g h h B _ _  . .C C C A t 5 , P T k.x.m.b.n.n.v.m.;.U U s 3 D _ _ ` ` ^ A A S Z R R E ! R Z Z Z D V S V ",
"! G G G V m m j v f w g g C B B Q _ _ } C C S C r , < Z.G.D.c.a.0.0.0.0.e.e.d.d.Y & n R Q ` _ _ V V V Z W ( ( G Z k Z Z D V D A ",
"` ] ] ] y W D y W y D C e n n n S F G J G ( ! V % K C.v.h.f.4.,.,.,.2.,.,.8.d.d.u.-.& 3 y B B g y n n n A C A A n f n n v v n v ",
"{ ] ] ] W y y D W D W A g y e n S F H S ! G p 8 K l.M.h.i.8.4.4.4.4.4.4.4.8.8.0.d.y.U s 1 y n n n b n n C C A A n n v v v n v g ",
"{ { { X.y W A A C S A A g e y n V H H S ( ! > $ Z.A.h.0.8.2.e.f.f.f.g.f.p.8.2.0.e.d.d.Y   q e n n n n n C B A B w y w v f f f g ",
" .[ ]  .D D A A D D D A n y n n H H H S ~ ! : # N.m.p.,.8.0.e.c.F.D.D.S.f.p.0.,.8.d.d.Y . w e h g g n n C C C C v n v f n n f n ",
"C C C Z W W W W B B B B H S H H v f v b ! 9 c j.V.c.7.7.0.f.c.n.v.c.c.c.0.0.p.8.s.c.f.=.z 7 v J Z Z S Z  . . .} n n n m n m n N ",
"A V V V D W W D V B j B J G H D v v v g Z . T H.c.0.,.0.p.f.F.c.5.5.5.5.2.9.d.0.n.D.f.e.>.+ > ! Z C Z C Q  . ._ B n n n n n m g ",
"V V V V W W W W B j m j D J H D v f v v F . T G.s.8.,.0.e.f.F.c.5.5.5.5.2.9.d.d.n.D.f.w.*.O 1 ! D C C R  . . ._ m n n n n g g n ",
"C C B V D } D W B V B V J S D G v b v n G X T D.s.7.,.0.d.f.F.c.5.5.5.5.2.9.p.d.m.D.f.9.*.O 2 ( D C S Z _ _ _ ( A B n N B m m m ",
"w t t e D D W D  ._  . .( ( ( Q ` ^ ^ ` S . T G.f.8.,.0.e.g.F.c.5.5.5.5.2.9.p.d.n.D.f.5.:.O 4 ` ^ Q Q ( n f v n ^ ) ) ) G J G G ",
"t r t t D D W W  .X._  .E _ _ _ _ ] / ] V . T D.f.8.,.0.d.f.F.c.5.5.5.5.2.9.d.e.n.D.f.w.*.O 5 #.` ( Q ( f f f f ~ ) ) ) ~ J G ~ ",
"w r t w S R D D _ X. .X.( ^ ! _ ] _ ] ` V . T D.f.8.,.0.d.f.D.c.5.5.5.5.2.9.d.e.n.D.f.9.*.O 2 [ _ Q _  .w f v v ) ) @.) ~ G G ( ",
"w w t e D D Z Z  . .} _ _ ! ! _ _ ` / / F % T C.a.8.4.0.0.f.S.c.5.5.5.4.4.9.d.f.n.S.f.7.&.* 6 [ ( ( _ J g f w w ~ ) ) ) J ! J J ",
"B N V N ) ) ) ) w w g g _ ` ] ` Q W E _ / G 8 < r.0.0.,.8.a.f.0.2.2.2.2.0.e.d.S.c.f.q.$.* 6 w v y e e e ! ^ ~ _ V B V C H j Z V ",
"N V V B ~ ) ) ~ v q f w ` ] ] / ^ E E E ` O.2 + >.d.d.8.7.7.0.0.9.9.9.9.e.h.n.n.h.e.q.I   r b b v f w e ) _ ! ! V m j m S S S H ",
"V N N V ~ ~ ) ! w f f f _ ^ ] ` W W ( E [ [ 6 * -.u.d.p.8.2.d.f.f.f.f.f.f.n.S.f.e.0.1.l o 0 f f w w e e ^ ^ ( ^ V m m V H V V V ",
"m F N V ) ) ) ~ w w f w ^ ' / ) E W W R ` ` ~ B * Y d.d.0.f.S.D.D.D.D.D.D.v.f.d.9.<.= > t v f v y g f n ! ! ! ! V B V B S V S V ",
"/ ~ ~ ( J F ~ J S S S Z _ _ _  .n g n y | ) ` ( 6 i Y u.d.f.c.n.b.c.b.v.v.f.q.w.%.d 2 9 | ) ) ` ( R ( W y v n w Z Z Z Z m m m m ",
"~ ^ _ ~ ! G J G J D D D ~ ^ _ W n y y e ( ) ~ ) R 5 * -.t.t.0.e.e.e.e.e.e.6.:.:.d @ y g | ` ) ` ) ( ( } w t t t Z Z Z Z m m m m ",
"` ) ` _ ! G ~ F D S V Z ( _ _ ~ y y y e } ~ ) / W V f * + = 1.q.3.3.3.3.2.I + + > w n g | ` ` ) ( ( ~ J y r t v Z Z Z Z j m m j ",
"~ ( ~ ~ J J J G J D Z ! ( ( _ ( y y y y J ) ~ ( R Z k 2 2 8 l I I I I I I a > : 0 B n C ) ) ) ) ( ( ( W n w y e Z Z Z Z j V m m ",
"e C h y g n n e ) ) / _ ! ! ! R w w t q S m m V ) ) ` ) J n o . . . . .   : w y V D C V B g g g W W _ Q Z D J D k Z Z G N F F F ",
"y y y y n n n y [ [ [ ` ! ! Z Z f f v w m m m N ~ / ` ) Z A n m m m B n 0 r f w C D D D w y f b Q W Q } W R D Z F G Z G F H H H ",
"h y B y n y y u ) ` / ` ! W ! R f f x f m m N N ) ` ) ) D D V Z A D Z S w f f v D D Z S w w f g W Q Q W ! Z R J G G G G F H H N ",
"e R y y y B y y _ ` / ) R ( ! Z v f p f m j j m ) ` ` ) Z Z Z Z A D S S w v f f S Z Z Z g n n g W W  .} W Z D Z F Z F F V H H H ",
"C C C C B V V B n b n y W W W R D C Z C ( ! ! ! J ( ) J e y w w y B B y j j j m e n n n ( ~ ( ( W D W J g b g e w w f w D R R W ",
"C Z S V M V B N n y y n W W W W D D D R ( ! J ~ ( ( ( J e y t w h y y h m B B B y n u e } _ _ ( } D ! D g v b e v f w w W R R R ",
"V Z V S B V V m y y y y R Q Q W D Z Z Z J ~ J ~ ( W } } w w t w B y y h g B B j y v u e  . ._ _ J R R G g n b n p p w w C R R W ",
"C V Z C B V A V y v y y R Q W W R D G G ( ( ~ J D } J D g e e g h h j B m V m C y n v g } ) ( ~ J J J D B g e n w q w w C R R W ",
") ) _ | ( ) | J v f w v W W ( ( ! ! ! G _ Q _ _ V n j m J ( ( ( W W Z Z g n g g ) J | J G Z R G Z C V G ( _ _ W n v v y D Z J G ",
"` ` ` ` ) ( ( J f w w v ( ( ( ( ! ~ ~ ( ] X.Q Q m N j g ` _ ^ _ R Z Z D g b n m ( ~ | @.Z Z Z C V S C C _ ^ Q Q n y n f D D F H ",
"` ` ) ) ( ( ) ) v w w w ( ( } ( ! ^ ~ !  .Q Q _ m j m j ) ( Q _ J G G G g v b m O.J O.J G Z F Z k V V Z _ Q Q  .y w n n H S J G ",
"_ _ ` _ ~ ) ( J f w w y W ( ( W ! ! ^ W Q  ._ ( B m b j ( _ _ ( D Z k J g b b b J J O.J J Z Z F C C V V  ._ ( } n n n b D D J D ",
"t v f v / [ +./ n b n n m B B N f m g g G Z Z R  .....] ` o.[ ' ^ G ~ G S B V V b f x v J J J ( y B B h _ _ `  ._ W _ Q  .X._ ] ",
"w f p f O.+.` +.n n b n n n B n g b f v F Z Z S  .X. . .[ [ ' ' J ~ J ~ B B B V b p x b J J J J h y y y ) / ` ` _  .Q _ _ _ ] _ ",
"x x p f O.O.O./ n n b n m n m b g v f g Z Z G D o.] X.[ o.[ [ ] ~ ) J G V m B B x f x v J ~ J J C y B B _ ) ` /  . . . . . . .] ",
"v v f g / O.[ ) n g n n n m n n g g g g S Z Z Z .. ... .o._ ` [ G ( ! ( V V B N f f v v ~ J J ! y y h h _ ) ` _ Q Q W  . . . . .",
"` ` ..` G F G H V C B B m b b n  . . ....... .X.W W D D D Z G G ` o.X._ e w w w V F N V ` ` _ ] E C C h R Z Z C C k V V C C B S ",
"[ [ o.[ Z V F Z V V V V b m m n _ o.` [ _ .._ _ S D D S D S S F ^ ] [ _ t w w t N F H S ` ` ] / R k k R Z C R C V V V V V m V B ",
"#.X.o.[ D F G V V V B C b b m b ] [ ] o._ o. . .W D D D S D Z J ] X.Q _ e q w q F F H S ] ^ ] ` Z Z C C C R Z Z j V S C V V N V ",
"#.[ +./ J F F V V C h C b b b b  ..._ o. . . . .D C D W G Z Z Z  ...{ Q e w w w V F V Z ` ] ] ] C C Z C Z Z k R j V S V N B N V "
};
