/* XPM */
static char *_b33014c3bc4493af4af6f918e906417cxA8niTYzX7wcrYa[] = {
/* columns rows colors chars-per-pixel */
"64 64 157 2 ",
"   c #070C04",
".  c #090E04",
"X  c #0A1006",
"o  c #0E1808",
"O  c #1E1903",
"+  c #121B0A",
"@  c #1C1808",
"#  c #211D06",
"$  c #221D09",
"%  c #14200B",
"&  c #23230C",
"*  c #26290C",
"=  c #3D360E",
"-  c #243712",
";  c #243B12",
":  c #2A3B12",
">  c #264012",
",  c #2C4616",
"<  c #2B4816",
"1  c #334716",
"2  c #314D17",
"3  c #304719",
"4  c #334B1A",
"5  c #315219",
"6  c #375B1E",
"7  c #3B5E1D",
"8  c #3D641E",
"9  c #3E691D",
"0  c #3A5E22",
"q  c #3E6421",
"w  c #3F6A21",
"e  c #3E6628",
"r  c #4D5316",
"t  c #4D5618",
"y  c #415F1F",
"u  c #41651E",
"i  c #426B1E",
"p  c #44721E",
"a  c #49721F",
"s  c #4F7C1F",
"d  c #716209",
"f  c #7E6C0A",
"g  c #6E6415",
"h  c #6F6618",
"j  c #796A15",
"k  c #7D701B",
"l  c #415F21",
"z  c #426521",
"x  c #486724",
"c  c #436B22",
"v  c #496D23",
"b  c #476C29",
"n  c #4A6D29",
"m  c #457223",
"M  c #4A7424",
"N  c #477925",
"B  c #4C7B25",
"V  c #457228",
"C  c #4C7529",
"Z  c #4D7B29",
"A  c #507725",
"S  c #517C26",
"D  c #517728",
"F  c #527C2A",
"G  c #806E09",
"H  c #857516",
"J  c #867618",
"K  c #887818",
"L  c #4D8226",
"P  c #4E8A26",
"I  c #4E832A",
"U  c #4F8A2A",
"Y  c #538226",
"T  c #598627",
"R  c #548A26",
"E  c #5A8A26",
"W  c #598D27",
"Q  c #518129",
"!  c #55812B",
"~  c #52872B",
"^  c #548529",
"/  c #51812C",
"(  c #56822D",
")  c #53852C",
"_  c #55862D",
"`  c #58842B",
"'  c #5A862B",
"]  c #58842D",
"[  c #5A862D",
"{  c #51882B",
"}  c #568A28",
"|  c #53892C",
" . c #538A2D",
".. c #558B2C",
"X. c #5B8D2A",
"o. c #5D8D2B",
"O. c #598A2E",
"+. c #5C8E2D",
"@. c #579027",
"#. c #56922B",
"$. c #5E912B",
"%. c #5A912C",
"&. c #5D922E",
"*. c #56982C",
"=. c #558331",
"-. c #598531",
";. c #558C30",
":. c #598C30",
">. c #5A8D31",
",. c #5D8E31",
"<. c #569230",
"1. c #5D9131",
"2. c #5F9331",
"3. c #608E2C",
"4. c #61932E",
"5. c #608E32",
"6. c #619431",
"7. c #D4B703",
"8. c #D8BA04",
"9. c #C6B023",
"0. c #E0C102",
"q. c #EECE02",
"w. c #EDCE08",
"e. c #F0CF01",
"r. c #F2D103",
"t. c #F5D50D",
"y. c #E8CB14",
"u. c #E3C91D",
"i. c #EED012",
"p. c #F3D516",
"a. c #F7D810",
"s. c #F8D910",
"d. c #FDDF19",
"f. c #FFE11E",
"g. c #DDC422",
"h. c #E6CB21",
"j. c #FBDE20",
"k. c #F1D528",
"l. c #F5DB32",
"z. c #FFE423",
"x. c #FEE32D",
"c. c #FEE330",
"v. c #FEE43D",
"b. c #F4DD4C",
"n. c #F5DF56",
"m. c #F6E057",
"M. c #F4E05D",
"N. c #FFE95E",
"B. c #FDE763",
"V. c #FEE966",
"C. c #FEE96C",
"Z. c #FDEC8A",
"A. c #FCEC94",
"S. c #FEEF99",
"D. c #FEF09E",
"F. c #FEF0A3",
"G. c #FEF1AA",
/* pixels */
"` ] ] ( M m m M Y ^ Q Y F F Z F C C A B M C B B ..X.X._ 9 q q 8 m m m N ) | | ..) ~ ^ Q B B B C E ....} w i 9 i +.$.&.,.c v v c ",
"` ` ] ! M m m M Y ) ) Y F A A F B B A B M C C B O.W X._ 9 q q 8 m m m N ) | | ~ ~ ~ ~ Q B B B C ......E w c c c +.%.%.O.m v v v ",
"T ` ] ! M m M C ~ Q ~ Y F A A Z A A A B M M M M } E X.^ 9 8 q q m m m m ) | | | ~ ~ ~ Q B C C C T ....T w i 9 c O.&.&.O.m x x n ",
"` ] ] ! B m m M ^ ~ ~ T F F F F B B A B C N C B O.X.X.^ i 8 u 8 m M m M ) | | | ^ ^ ^ _ B B B B E X.X.E c 8 w c O.,.+.] M v c v ",
"N N N N Z Q Q / X.+.+.E c 8 8 u M v M M F Q Q Q Z B L S B D D C B C M M _ | ~ ~ _ ...._ M M M B +.&.1.X.c 8 w w M Z M A F ( ! ! ",
"N N N N I Q Q Q W $.$.o.8 8 8 q n n M M ! ^ ^ ^ / Z Z F F F F A Z C B Z _ ..~ | ..O.>._ M M M B +.4.1.o.c 8 8 w M B M M Q ^ Y Y ",
"N N N N Q Q / / o.o.o.X.8 8 q 8 M n M m ! Y ~ ^ Z Z I F Z A F A B Z B Z _ ..| ..O.O.O._ M M M M +.&.1.o.c 8 q w M D B B Q Q Y ! ",
"N N N N / Z / / +.o.&.o.z 8 z u v v M m ! Y Y Q Q Z Z Z F A F D Z Z Z Z _ | ~ | ......_ M M M M +.&.&.X.c c w c M B M M ( ~ Y ! ",
"m M m M c c c b ) ) ;.) | | | P z z z z z 8 q c ] O.O.] M v v m E E E E Y ( ( ( / / I / F F A A X.O.%.O.X.X.+.E q 8 q e s S F F ",
"M B M M c c c c I U | I | | ..| z z u z z 8 u z O.O.O.O.a v v m E E E O.! ( ( ( / I I / F A A F O.O.%.&.o.o.o.E u 8 8 q S F Z Z ",
"m m m M c c c c ~ I ) I | | ..{ z z u u u 8 u z ..O.O.>.i i v v E E E O.( =.( / I I ~ / F F A F O.....O.o.3.o.o.q q q q S S Y Q ",
"M M M M c c c c ) / ) I ......| c u u u u 8 8 u ] -.-.] M m m m T E T ` Y Q Q Q / / / F S S B S %...%.%.O.O.+.X.c 8 8 i F F F B ",
"_ _ _ / Z C C C M M M N Q ~ Q Q M M M M M M M M u u u i C F F Z c c c c q e e e m M M Z ~ ....O.......| Q F F S E E 5.] c i c n ",
"....| ) B Z M M m M m M ( _ ( ( M M M M M M N m z l y 8 =./ I L u u u u 8 8 8 q M C M M ~ ............../ Z F F $.X.+.+.c z x z ",
"~ | ~ ) B Z M C m M m M ( ! ( / M M M M M M M M y l z u F L L Q c u u i 8 q 8 q M M M M ......| | R R | / C F F +.O.3.3.c u z u ",
"~ ~ ~ ) Z C C C M M m M ( _ Q _ M A M M M M M M z z z c Z Q Q Z c c c c q e q q M M C M ..R | | ..| R | Q Z C B +.o.3.E b z z z ",
"x x v b M m m m v v v m O.X.W X.` E ` E ^ ..^ ^ Y ) { | M M M M O.O.O.O.! F F Y <.&.&.>.M m C M O.....O.m m m M &.1.1.1.N N N M ",
"x x c c b c c m v v v m O.X.W X.X.X.E E ^ ..^ ^ { U P { N M M M ,.&.&.+.^ ( ! ! 1.6.4.,.M b V C ........m v b M O.&.1.1.Z C C C ",
"c c c c b m m m v v v m O.O.X.O.E E E E ^ ....^ P | P | N M m C O.X.%.+.! ( ! ^ &.6.&.,.N V c V ....%...m c v M 1.6.6.,.Z N M M ",
"v i c c i c c c v v v M ] O.O.O.E E E O.^ _ _ ^ ~ ;.~ Q N m > ; , , , 2 B F F ! 1.1.&.,.N N m M ....O._ M m m m ,.1.1.>.Z C C C ",
"A A F F M m M m u z u 8 N p p N ......^ N N N N 8 8 8 9 N c & @ @ @ @ & 7 u i i ~ ~ | ..~ ^ ....N M M Z Z ) Q Y Z B Z Z M M M M ",
"S S S A a a m m z z z c m p p m ....O...N N M N z 7 8 8 2 * 9.g.g.g.g.9.* : u i | ~ | | ....O.} C M m Z L ~ ~ L Z B B Z C C C C ",
"S B S S a m M m z z z c m m m m | | ..;.N N C N q u z q , # h.z.f.s.d.h.$ - c c ~ ~ | | ........C C B Z L P P Y Z Z Z Z C M M M ",
"Y B S F m m M v i u 8 c m m m m | | ....N Z Z N q u 8 6 1 = h.x.x.t.a.h.= : 7 i ~ ~ ) | | ......N M M M L ~ Y Y B N B Z C M M C ",
"%.#.#.<.N C C N N M N C i c c c C A D F Y ! Q Y E } Z % h h.j.N.Z.z.t.w.u.g o 6 L I P I m c c c c c c c N N V N c z z c c c c c ",
"*.#.#.#.N C M N N Z Z C i c c c C A D C S Y F Y X.X.Z . j z.f.V.F.C.l.q.f.j   6 L P L L m c c c i c c c M N N V c z z z z z z c ",
"*.*.*.<.N N C M N Z C M i 9 c c B A D C Y Y Q ^ X.E Z X j z.f.V.G.D.b.q.f.j   0 L Y Q Z i i c c i c c c m N N m z u u z z u u u ",
"..%.#...N N N M C C C M i i i i C D C B ! Y Y Y X.X.S X j z.f.V.S.v.p.q.f.j   6 L Q / Z m i i c i i c c N N N N c z z i c c c c ",
"N N N Z Z I I I m m m M C C C C z u z c E o.+.o.4.4.! X j z.f.V.F.C.l.q.f.j . v m m m M F ( ! ! N N N N ) ;.;.=.c c c c c c c c ",
"C M M M Z I L L M m m m F F C C z z q c E $.o.W 6.6.! X j f.d.B.G.S.b.q.f.j . a V m m M F ` ! Y B N N B | ;.;.| b c c c c c c c ",
"m M M C I I L / m m m m F F C C z z z c E $.+.+.4.4.! X d r.q.m.S.v.p.q.f.j . m M M M M F Y Y Y B N N B ......| b c c c c c c c ",
"N M M N I I Z I M M B m F C C C u z z c O.o.O.+.4.4.! X d e.q.n.S.x.t.q.f.j . m m c b m ! ` ! ! Z Z C N | ....~ m b b b c c v v ",
"8 q q 8 C Z L I O.....;.~ ~ | | ..W W X.^ ] ] ! &.&.Y X d e.q.n.S.x.t.q.f.j . c c c e c O.$.1.,.} ~ | Q c z z c ` E ` ` S F S S ",
"8 q q 8 Z B I Z ....| ;.~ ..^ ~ ......O.^ ] ` ` 4.$.S X d e.q.n.S.x.t.q.f.j . w 9 u q 9 1.1.1.1...) | _ z u u u ` E E ] Y S S ! ",
"8 q q 8 C Z Z Z ..<.;.>.~ ^ ~ ..O.X.X.X.^ ^ ^ ! o.$.Y X d e.q.n.S.c.t.q.f.j . w q z z 9 ,.%.%.$.{ | | ..8 u u z ` O.O.] S S S F ",
"8 8 q 8 Z Z Z Z ..;.=._ | { Y ..........^ ` ^ ^ &.&.F X d e.q.n.S.x.t.q.f.j . c c q q c ,.6.1.+...^ ~ Q i u 8 8 ` ] ] ( F S F F ",
"M M n m ] ` ` ^ 9 8 8 i ....%.X.Y { { | X.o.X.X...^ M X d e.q.n.A.p.q.q.f.j . 8 L I / C i 8 u z w 9 9 i F ^ ^ ^ M M M M B M B M ",
"m M n m ` ` ` ` z 7 u 8 O.#.%...Y I I Y +.+.+.+..._ M X d e.q.n.A.i.q.q.f.j   6 P L I / w z x z z i 8 9 ] ..~ Y M m m m C B C B ",
"M M M m ` T ` ` 8 8 z u ..W ..X.~ ~ ~ ~ %.$.X.O.~ ^ B . d e.q.n.A.i.q.q.f.j . 6 I I U I q z u u 8 u 8 9 ^ ^ ) ..M m M M C M B M ",
"M M C m ` ` ` ` 9 z 8 9 ..@.W X.P P I P O.X.X.O.} ^ B . d r.q.n.A.i.q.q.f.j   6 Z I L Z c z u z w i q i Y Y ~ Y M m M m C M B M ",
"..^ E ` S F F S B C M N ......| c c c i -.` ] ] L Z N 2 r G 0.k.n.M.l.y.K t 5 B m m m m -.O.` ] / Y Y Q 9 z z 8 N B B Z v v x v ",
"..T } ` S S F S F C C Z ......~ c w w 9 _ ^ ` ^ Z Z Z S 4 O 7.q.i.Z.N.h.$ < | Y b b c c -.E O.O._ ^ ^ / 8 q q 8 N B N Z v v v v ",
"E ..E E Y S S S C C C Z ^ ....^ w q w 9 _ ` E ` Q Z Z Q 3 # 8.r.t.x.x.h.$ , | ~ b c c c -.O.X...~ ^ ^ / q q q z N B B Z v v x v ",
"^ ^ ^ ^ F F F Z C Z Z L ^ ^ ..~ c c c c ( ! ` ( L Z S Y z 1 d f f H J k 1 8 Y Y c c m M ( ] ] ] ) ~ ~ / i 8 8 8 B B Z Z m m v v ",
"m p p p c c c c ] O.....Q Y Y L 8 8 8 8 M m m M ..O.O.^ F c + X X X X + 6 q q q Z Z M M i i i i ~ I ) ) Z Z F Z B B B S B B B B ",
"c w 9 w w w c c X.&.o.X.Y Y Q B u u z 8 v v v n T E E ` Z M b b b b b b 8 8 8 u N Z N C 8 z u c | I U ) L L L B A S A A B D D D ",
"c c c w c c c c ..X.X.X.Y Q Y L u u q u v v v n O.E E E C C N Z M C N C u u u z Z Z N C 8 z u u I I U U I L L I A A Z A B D A B ",
"c c i w c c w w ..O.E X.Y Q Y L z u q z v v v v ] E E ] Z C N B M Z Z C u z u u C N Z Z i c i i ~ ) ;.) I Z Z Z A B B A B D F A ",
"M M M M m m M M c c c c Q P I P C N B N Y Y Y Y Q Q Q F i 8 8 9 m m m w a a m m i c c c / ^ ~ ) F S Q F i c c i 8 q q 8 Z Z L Q ",
"M M C M M M M M c c c c I P I L C Z Z Z ! ! ! ! ) ~ Q ( 9 z q 8 i m m c m m m m 8 c z c _ ~ ^ _ / Z L Z i c c u u z 8 8 Z L L L ",
"N N N M m m M m c c w w I I U I Z B Z Z ! ! Y T Q Q / =.8 8 q 8 m m m c m m m c c c z 9 -.......F L Q F c z z c 8 7 8 8 Z L L L ",
"N N Z N m m M m c i q w I I U I Z Z Z Z Q ~ ! Y / / F F i 9 9 i i p m m c M M M i c c i ( ~ ^ _ F F F C m i i i 8 8 8 8 Z L I I ",
"....O.] ! ( ( F z u 8 c Q ~ ) ~ Y Y Y Y ..| | | m v v m / ) ~ _ F Z Z Z i c i i ( ] -.( S Z Z Z Z M N Z ) | | ) c z z c C Z F F ",
"O.O.O.O.^ ! ( ! z 8 8 z ! ^ _ _ T ` ` Y ..| | | v v x i O...| ..C Z Z C c c c c ` ` ] ] B N N Z B M M N | ....U c c c c C B A D ",
"X.O.O.O.^ ! _ ! z 8 8 q Q ~ ) _ Y T T Y | | | | c x v i ^ | | ..F S B S i c c c ` ` ` ` Z N Z Z M M M N | | | | c z c c C Z F F ",
"....E ..^ _ _ ! z 8 8 8 Q ~ ) ~ Y Y Y Y | | ..^ M v x m ) | ..^ F B B F i c c c ! ` ` F S B Z Z N M M M ....| _ b c c c C Z F C ",
"q z z c E $.o.X.c z c c c c m v i c c i Z B B Z >.>.>...O.%.%.%.Y ! Y Y M m N V z z z z F ! F F p m m m ....O.-.| | | | ........",
"8 u u z o.o.+.+.v c c c c i c c z z z c C Z N B ..;...O.O.%.%.@.Y ! ! Y M m m M z u z z F ! F F m m c m ..E X.O.| | | | ........",
"l l l 8 3.4.$.o.c z c c b c v c u z u i C Z Z Z %.%.%.%.%.%.%.%.` ( ! Y M M m m z u l z F ! F F m m c m ..X.X.E ................",
"z z z i ` o.o.E c i c c c x x c i i i i N B B Z >.>.>.>.O.O.O.O.Y Q Y ! M M m m u u z z S Y Q S m 9 m N ^ E O.O.| ) ) | ..;.;.;.",
"O.O.>.O.S Z A F M M M M c x c c -.O.O.>.>.>.} } I Z Z Z Z Z Z Z X.<.%...9 8 8 8 M M C M O.X...X.B N N N Z Z B B M M M M M M M M ",
"%.%.&.&.M M D C M M M M c x c c O.%.%.%.....} } Z Z Z C Z C C Z W ..%...9 8 8 q M B D B X.......N N N N B B B B M M M M M m M M ",
"1.<.%.$.C A A M M M N M c x x c ..%.%.%...>...} Z Z Z Z C C Z F ..#.#...8 q 8 8 M B D B X.......N N N N B B B B M M B M M M V V ",
"5.1.1.W F B Z B M N N M c x x c ..O.O.<...>.-.O.Z Z Z Z Z Z Z Z ..>.%.O.8 8 8 8 M M D B +.X.....N N N B N Z B B M B B M M M M V "
};
