/* XPM */
static char *result[] = {
/* columns rows colors chars-per-pixel */
"64 64 150 2 ",
"   c #090E05",
".  c #0B1106",
"X  c #0F1807",
"o  c #1D1905",
"O  c #121D0A",
"+  c #1D1B09",
"@  c #1D1A11",
"#  c #211D09",
"$  c #142009",
"%  c #1E320F",
"&  c #1F3211",
"*  c #212309",
"=  c #3C340E",
"-  c #212314",
";  c #262916",
":  c #223611",
">  c #243B13",
",  c #2B3B12",
"<  c #3D3821",
"1  c #2C4516",
"2  c #2F4916",
"3  c #2D4618",
"4  c #324A17",
"5  c #364719",
"6  c #344D1B",
"7  c #384E1C",
"8  c #345317",
"9  c #32521B",
"0  c #3D5E1C",
"q  c #3D641D",
"w  c #3E691D",
"e  c #3F5E21",
"r  c #3D6421",
"t  c #3F6A21",
"y  c #3E6628",
"u  c #464C13",
"i  c #415F1F",
"p  c #515512",
"a  c #6E5F0B",
"s  c #41651E",
"d  c #426B1E",
"f  c #43721E",
"g  c #49721F",
"h  c #4F7C1F",
"j  c #69600C",
"k  c #71620B",
"l  c #6C6216",
"z  c #6B6219",
"x  c #736616",
"c  c #786D17",
"v  c #7D701B",
"b  c #415F21",
"n  c #515A2F",
"m  c #426521",
"M  c #486724",
"N  c #436B22",
"B  c #496D23",
"V  c #476C29",
"C  c #4A6D29",
"Z  c #457223",
"A  c #4A7424",
"S  c #477925",
"D  c #4C7B25",
"F  c #457328",
"G  c #4C7529",
"H  c #4D7B29",
"J  c #507725",
"K  c #517C26",
"L  c #517728",
"P  c #527C2A",
"I  c #6D693B",
"U  c #756C3E",
"Y  c #82710C",
"T  c #847312",
"R  c #867618",
"E  c #8A7F3B",
"W  c #887E44",
"Q  c #4D8226",
"!  c #4E8A26",
"~  c #4E832A",
"^  c #4F8A2A",
"/  c #538226",
"(  c #598627",
")  c #548A26",
"_  c #5A8B26",
"`  c #53842B",
"'  c #59852B",
"]  c #558A2C",
"[  c #5A8C2C",
"{  c #579027",
"}  c #56922B",
"|  c #5B912C",
" . c #56982C",
".. c #558331",
"X. c #598531",
"o. c #558C30",
"O. c #5B8D31",
"+. c #569230",
"@. c #5D9131",
"#. c #608E2C",
"$. c #61922F",
"%. c #608E32",
"&. c #609332",
"*. c #B29C11",
"=. c #B39D19",
"-. c #BEA60D",
";. c #D7BA0B",
":. c #D9BC0C",
">. c #C0AA1D",
",. c #EFCF03",
"<. c #EDCE08",
"1. c #EFD00F",
"2. c #F3D207",
"3. c #F8D706",
"4. c #F5D60C",
"5. c #F8D708",
"6. c #FADA0B",
"7. c #EBCE15",
"8. c #E8CD1D",
"9. c #EDD01C",
"0. c #F5D611",
"q. c #F7D913",
"w. c #FBDC13",
"e. c #F7D819",
"r. c #FCDE1C",
"t. c #FDE01E",
"y. c #DEC62E",
"u. c #E2C723",
"i. c #E4CA22",
"p. c #E8CD21",
"a. c #FBDE21",
"s. c #FADF2C",
"d. c #EBD43E",
"f. c #F7DE3C",
"g. c #FFE222",
"h. c #FFE22E",
"j. c #FEE437",
"k. c #968B46",
"l. c #C6BA69",
"z. c #E8D144",
"x. c #FCE446",
"c. c #FEE74D",
"v. c #DCCD6A",
"b. c #DDCE74",
"n. c #E4D368",
"m. c #E3D478",
"M. c #FFEB65",
"N. c #FDEA6C",
"B. c #FEEC74",
"V. c #FEEC78",
/* pixels */
"' ' ' ' g g A A / ) ~ / P P H P L L J J A A G L ' _ _ ] w r r q t Z N F ] ] ^ o.` ] ` ` S G A P [ ) ] _ t N w w [ | &.O.B M B Z ",
"' ' ' P A Z Z A / ` ` / P P H P A J J A A G G G [ _ _ ' q r r q F Z Z S ~ ] ^ ` ` ` ` ` A L L L _ ] ) / t N t N [ | [ [ g B C B ",
"( ' ' ' A Z A G ` / ` / P P J H J J J J G F G A _ [ ] ] s q 0 t Z Z Z Z ~ ] ~ ] ` ` ~ ` H L L G ] _ ) _ t q w t [ | | O.B B B B ",
"' ' X.P A Z A S / / ` ) L P L P B J J J H A H A ] ] | / d q t d Z F Z S ` o.~ ] ` ] ` ` A A A L _ ] _ _ N q t d O.+.O.[ A B g B ",
"Z S h S D ` H .._ _ $._ m q q s J B J J ` H ` P H Q Q / A L L L H H A A ..] ~ ` ` o.] ' A A G A ] @.&._ N t t t J A A J K ` ` K ",
"G S S S Q ` ` ~ | $.| [ y 0 0 r B C B A ` ` ' ) ` D H P P P P J A J J H o.] ^ ] ' O.O.' A A A G | @.&.| N q q t A J J A K ' ( ( ",
"S S S S P ` ` ~ | $._ _ q e r 0 J B A Z ` / / ) H H Q P A L J J H A A H ` o.` o.[ o.O.' A A A A | $.| [ y t r t A L J J P ( D ` ",
"S A g S ~ H P ..[ _ $._ y r m m B B A B ` / D ` Q Q ~ H P L J P J J H S ..] ~ ] X.] ] ' A A A A #.$.&._ N N t y Z J A A ` ` ( P ",
"A A Z A N N V F / o.o.~ ` ^ ) ^ M i s M s s t N ' O.[ X.A B B Z [ _ ( [ P ' ` ' ..` ~ ..J P L J ] | +.[ _ [ #.[ s q r y f P ` H ",
"A A A Z t N t N ^ ~ o.^ ] ) ] ^ M s s M m i s m ' ] [ ' g B g Z [ [ [ ' ' P P ..~ ~ ~ ` P P L K | [ | @.#.#._ [ q q 0 r Q Q H H ",
"B A S Z N V V t ^ ~ ~ ^ ] ) ] ! M i i s s r s N ' O.[ %.d g B B ' [ [ #.` ` ....~ ~ ~ P P J P P +.] } [ _ #.$._ e r r r K / ` ` ",
"g A A F Z t N V ` ` ..~ ] ] ] ] d s s s s q q s ' ..X.' B g Z A ( ( ( ' / ` H H ` ` ..P K K J H O.| | [ O.#.O.[ N r q r H P K H ",
") ..' ` S G G H A A S S Q ` ` Q B J B B F Z A A s s s d H P P H N N d N q y r r Z F A P ` [ ] o.) ) } ] ` H H P [ #.%.' B s V V ",
"] ] ] ` H S S F S Z B A ..' P ' A g J A A A Z Z b b 0 q ..` ~ Q d s s s 0 q r r B G A A / _ { ) ] ) ) ] P H P P $._ #.#.N s M m ",
"~ ] ` ..S H G H g Z Z A P ` ..` A A A A A A A A i b i s P Q Q ` d s s d q r q r A C C A ] ) { ] ) ^ ) ^ ` H P ` | _ #.#.M s s s ",
"^ ] ` ~ H G G A Z Z Z A ..` ` ..J A J A A G A A m b m s H Q Q P d M d N t r r r A J L A ] ] ) ^ o.^ ) ] P H H K #.#.#._ C m M M ",
"V M N B B Z N Z B C B B [ [ _ ] [ [ ' _ / ' / ) ) ^ ^ ^ F A g S [ [ [ [ P P P P | | $.O.F Z F S ] _ } o.Z Z B F | | @.%.G H G G ",
"M M N B B Z t Z B A B Z [ [ [ ) [ [ ( [ ) ] ) ] ^ ^ ! ) S S A S O.@.@.| ' P ` ' @.&.&.O.S F C F _ } ) ] Z B B A [ &.@.%.H G G H ",
"B N d B N Z Z Z B B B B X.[ [ O.( ( _ ) ) ] ' / ! ] ! ) S S g S [ | [ [ ' ( ( ( &.$.$.&.Z V V F ] } } ] Z N B A @.&.&.@.H A S S ",
"B d B d N f N Z B B B A ' ] O.[ _ [ [ [ ' ..o.` ~ o.~ / S B > > 3 1 1 3 , b P P @.&.| O.S F Z S ] O.o.' S Z B Z O.@.@.O.H H G G ",
"K J P K A S Z Z q s q q S f f Z ] / ] ` S S D S m q q w S y - @ @ @ @ @ + , q d / ^ / ] ^ ` o.] S S A K K / Q ` Q D / D A S A G ",
"K K K K g g A B N m m t f f w Z ] ] O.' S F G S m 0 q q 6 ; l.b.b.b.b.v.y.l X 0 ] ^ ^ ] ] ] [ ) L A Z H Q ` ^ Q h D h K H A G H ",
"K h K K g g A A m m r N f S f Z ] ] o.O.S S G F m i e : n k.d.f.f.f.f.f.g.>.c , r ^ ` ^ ] _ _ ) F F A A Q ^ Q / Q D D K H G G S ",
"/ K K K g A B g s m q d g f Z B ] ] ) ] S F H S r q 9 @ W M.2.,.,.,.,.,.e.g.p.= 4 H ~ o.^ ] ] ] G A A S ~ ` ` / D S D H A S G G ",
"{ } } +.S F S S S F S G d N N N G J P H ( ` K K ) 8 ; l.z.1.r.r.r.r.r.r.2.w.a.p.l O A Q Z N N g d N N N F S F S d s m m N N m N ",
" .{ } | S F S F S H F H w N w N G J L L K K P ( _ 6 @ m.x.,.r.j.c.c.j.r.,.0.g.g.x   S D Z N N d N N N N F F S F m N s m m m m N ",
"}  . .+.t Q F ~ F F H F d w t N A L L A K ( P ( / 7 < n.f.1.h.c.B.B.x.r.2.0.r.g.R * m Z f w w N d N V N F S F F m q s t s s s d ",
"} +.} o.Q F F y H H H G d t d B L L L G ) / / A $ I n.9.0.h.N.x.w.e.w.4.r.0.<.r.<.>.* 1 f d d Z d d d d S S S Z N m N d N N N s ",
"S S S D P ~ ~ ..g g g Z L L L G m s m N ' | _ ( . U B.1.4.j.V.x.6.6.5.5.r.0.,.r.w.;.# : P P ( ` S H H H ^ o.o...N N N B N B N B ",
"G G Z F H ~ H ~ A Z Z Z H P P G m m b d _ #.| K . U B.1.4.h.V.x.6.5.5.5.g.4.,.r.w.;.o : ` ( P K D S S S ] o.o.o.N N N Z B N B N ",
"Z A A G ~ ~ H ~ Z B g g P H P H m m m N [ $._ K . U B.<.4.h.B.x.6.6.5.4.t.0.,.r.w.;.# : P ( K ( D S D S o.o.o.] F N N N N B d N ",
"S S A Z ..~ ~ H Z Z A Z L H G P m d m m [ _ | P . U B.4.4.j.B.x.6.6.5.4.t.0.,.r.w.;.o : P ( ` ( H H H D ] ] ] ~ F B N N B d B B ",
"q r r w H H Q H o.o.o.o.] / ~ ] ] ) _ [ ( X.' A . U B.7.4.j.V.x.6.6.5.5.t.4.,.t.w.;.o & [  .@.O._ ~ ] Q N m s N ( ' ' ' P P K K ",
"r e r r H H ~ ~ ] } o.o.^ ` ] ] } _ } | ' P ' J . U B.<.4.h.V.x.6.6.5.2.t.0.,.t.w.;.o % $.&.@.@.] ] ^ ` s s s s ( ' [ ' ( K P ( ",
"q e e q H H H H ] +.+.o./ ] / ] o.} [ [ P ' ) A . U B.4.4.h.V.x.6.6.3.5.t.4.,.t.w.;.o % @.| | $.] ^ ] o.q i m m ' [ ' ' K K K ` ",
"q q t q H Q D P o.o...` ] ) / ] ] ] ) ' ) ( ( A . U B.1.4.h.V.x.6.6.3.4.t.4.<.t.w.;.o & O.&.$.[ ] ` ` ` d s q m ' ' ' ' ` ( P P ",
"B C C Z ' ' ' ' t q q d ] [ { } ] / ! / _ [ [ K   U B.2.4.j.B.x.6.6.5.5.t.0.,.t.w.:.o : d q m M t q w f K ) ) ) A A Z A A A A A ",
"Z F B A ' ' ) P m 0 q s [ { | _ ! ^ ! ] [ #.$.' 8 n E 8.4.e.x.s.3.5.q.q.0.0.q.q.*.a 4 r t y M m t d q w ' ) / ! Z Z B A L A H J ",
"A B J B ' ( ( ( q q s s ] ) } ] ^ ^ ^ Q O.| [ [ / 4 + u.w.,.r.w.5.2.q.t.,.q.t.5.k . F ~ t i s s q s q w ` _ / ] A B B A L A A A ",
"B J C A ' ' ( ( q s q s [ { ) [ D ~ ^ Q | { _ { ] 1 # i.w.,.a.g.t.g.g.t.,.q.g.6.j . Z D N m s M m t q d / / / / F A A Z G Z L A ",
"[ ' ) ' P K ( P A H G S ' ) ] ..N N t N O.' ' ' Q q 4 z =.w.0.4.q.4.4.4.6.w.7.Y u 3 y Z X.' ' ' ..Q Q ` t m m t H D D H g B B B ",
"' ) _ ( K K P K P H H H ' ) ] ~ t w w w ' ) ' ' Q H Z O z 8.<.,.,.,.,.,.r.7.-.* 1 N N g O.' [ ' ` / ' ..q e r q S D D A B B B B ",
"[ _ [ ' ( K K K H H G S ' ] ] ] t t t w ' ' _ ) ` D D Z 5 = p.w.3.3.5.3.6.Y + d N N N f X.[ _ ' / ` ] P t r r m D D h D B B B g ",
"( ` ` ` P P P K H P D ` ` ` ' / N t y t X.P ' ' D / K ( m 5 v T Y Y Y c Y p 2 D N N B S ' ' [ ' ` ` / H N q t t D K D D g B g B ",
"w S f w d N N w [ [ ' ] / / / Q s 0 r q B Z B A ) [ [ ' K N O   . .   .   > q N S H S S d d d d ^ ~ ^ ..H H P H D D D J A J J L ",
"w t t t N m N t _ _ [ [ / Q / D s q m 0 B B M V ' ' ' ' H A N B N B N V 0 0 q s S ~ H H s m m m o.~ ^ ^ Q D Q D K K K J L L L L ",
"S w Z t N t t t [ [ [ [ / Q / Q s s m s B B B C ' [ _ ' H A H D S G S H q s i m S H S H s s s d ^ ~ ..~ Q H Q D K K J K J L C L ",
"t S t t t F t t ] [ _ [ D ` / D m q i s B g B A ( [ _ ' H H A S S H G G q s i s H G S H d N d d ~ ^ o.~ ` D H H J h h K A L L L ",
"Q S A A B Z A A N N N N Q ~ ~ Q H S D S ) K ( K P ` P P w t q t t S t t Z g d g w N t N ~ ] / ..P Q Q H d d N d q s r q H D Q Q ",
"S S A S F A F B N m t N ~ ~ ~ Q H H Q H ' ( P ( ) ' Q ..w q r q w t S N g A Z Z t N y d ../ ] ' ..H Q P d N m s q b q q Q ^ Q Q ",
"A H A G B Z F A t w t y ~ Q ^ Q H S D D P P ` ' ` ..` ..w q r t f S N f B Z Z B t N y w X.o.' [ P Q ` H d m m N i 0 0 q S Q Q ~ ",
"S A H S A A A F y d t t ~ ^ ~ ^ Q H K D ' ` ` K ..P P H d w q w w t f g Z B Z A t N w N ..' ` ) P P P H g d N N s q q s ~ ~ ~ ~ ",
"[ ) X.X.) P P P m s 0 t ~ / ..~ / K / / ] ^ ] ^ N Z g g P ' ` ` ! H S D d N d d P P X.X.K D Q K H A D D ` ] o.~ t N m s H H K H ",
"[ [ [ ] ' ' ' ' m s q m ~ ` ..` ( ( ' / o.+.^ ] B M B d O._ ] ] D / D P B M B d ( ' %.' D S D D S A g D ] ] ^ ~ N m N N G S J L ",
"[ [ [ o.' ` ' P q q q t ` ` ] ` / ) ) / ] ^ ] ] B d B d / ^ ) / K / K K d m M B #.P P #.K S K D S A A S ^ ] ^ ] t t m N A D P J ",
") ' ' ' ` ' ` ` s s q t Q / ..~ Q ( ` / ^ o.] ) A B B A ` ] o.] P D D K d M m M P P #.L K D H J D A A D o.] ` o.B m N N P H P P ",
"q m r N _ $.#._ N m m N B Z Z B d M d d J D D Q o.O.O.o.| | | { / ( K / A Z Z F b M M m P P P P w S Z f ' ) ] [ ~ ] ^ ] o.} ] } ",
"i s i s #.$._ [ B m V m B N B N s N m d J D S H o.o.} [ } | | { ( P ` ( A B Z G M s b s P P ' P f t t t [ [ [ [ o.^ ] ^ ] o.} ] ",
"b b i s #.#.$.#.B N N N B N B N d s m d H H D H +.+.+.@.[ +.| { P ` ` K A A Z Z b s b m P P P K S t t S ' ) [ [ o.] ] o.] o.o.+.",
"m m s d ( #.[ _ N d N N N B B N d d d d A D D D O.O.O.+.O.[ [ [ ( P K ( B B Z Z s s m m P ( ` K t t t Z ' [ ] _ ^ ..^ o.o.o.o.o.",
"[ [ O.[ K K J P F Z A Z B V N N O.O.O.o.o.O.o.o.Q H ~ H P H D K [ @.+.] N q q q B J C A ] [ o.{ ! Q S S Q D D S A D A A F A A S ",
" .| @.$.A D J H A A S A N M M M [ +.[ | ] } ] ] H H H H H A H J ) } } ] r q q r A L L L [ _ } [ Q f f D S Q S Q A A A A A Z A Z ",
"&.+.| { A J K D A A g Z M M M B ] | | @.o.O.o.o.H H H H H H H H } +.} ^ q q 0 q B L L H | } ] { S S Q D D S D D h Z G A A A F C ",
"%.@.&._ P J J A A A S A N M M N o.| ] +.o.O.o.o.~ H H H K A D P o.o. .^ q 0 q q J J A G [ { } { S S h Q D D D S h A A S B A B G "
};
