/* XPM */
static char *_2403d20aab54a1bf09dee72dd015f10wIpLeRnwLLKrWHOh[] = {
/* columns rows colors chars-per-pixel */
"64 64 155 2 ",
"   c #070B04",
".  c #090E05",
"X  c #0A1006",
"o  c #0F1807",
"O  c #1E1A03",
"+  c #121F0A",
"@  c #1C1808",
"#  c #231F08",
"$  c #1F210A",
"%  c #232309",
"&  c #27280B",
"*  c #243C13",
"=  c #293E13",
"-  c #2B4515",
";  c #2E4917",
":  c #2C4619",
">  c #304716",
",  c #324C16",
"<  c #334A1A",
"1  c #3D4F1B",
"2  c #395519",
"3  c #36591C",
"4  c #3D5E1D",
"5  c #3D641E",
"6  c #3E691D",
"7  c #3F5F21",
"8  c #3E6421",
"9  c #3F6A21",
"0  c #3E6628",
"q  c #415F1F",
"w  c #505411",
"e  c #595B1A",
"r  c #6F5F05",
"t  c #645A0C",
"y  c #41651E",
"u  c #426B1E",
"i  c #43721E",
"p  c #49721F",
"a  c #4F7C1F",
"s  c #716205",
"d  c #7E6C09",
"f  c #6E6316",
"g  c #6E6319",
"h  c #726917",
"j  c #7B6D14",
"k  c #415F21",
"l  c #426521",
"z  c #486724",
"x  c #436B22",
"c  c #496D23",
"v  c #476C29",
"b  c #4A6D29",
"n  c #457223",
"m  c #4A7424",
"M  c #477925",
"N  c #4C7B25",
"B  c #457228",
"V  c #4C7629",
"C  c #4D7B29",
"Z  c #507725",
"A  c #517C26",
"S  c #517728",
"D  c #527C2A",
"F  c #817110",
"G  c #8A7A16",
"H  c #867719",
"J  c #4E8226",
"K  c #4E8A26",
"L  c #4E832A",
"P  c #4F8A2A",
"I  c #538226",
"U  c #598627",
"Y  c #548A26",
"T  c #5A8A26",
"R  c #598D27",
"E  c #51812A",
"W  c #55812B",
"Q  c #52872B",
"!  c #548529",
"~  c #51812C",
"^  c #56822D",
"/  c #53852C",
"(  c #55862D",
")  c #58842B",
"_  c #5A862B",
"`  c #58842D",
"'  c #5A862D",
"]  c #51882B",
"[  c #568A28",
"{  c #53892C",
"}  c #538A2D",
"|  c #558B2C",
" . c #5B8D2A",
".. c #5D8D2B",
"X. c #598A2E",
"o. c #5C8E2D",
"O. c #579027",
"+. c #56922B",
"@. c #5E912B",
"#. c #5A912C",
"$. c #5D922E",
"%. c #56982C",
"&. c #558331",
"*. c #598531",
"=. c #558C30",
"-. c #5A8D31",
";. c #5D8E31",
":. c #569230",
">. c #5D9131",
",. c #5F9331",
"<. c #608E2C",
"1. c #61932E",
"2. c #608E32",
"3. c #619431",
"4. c #AA9307",
"5. c #B59F16",
"6. c #D2B603",
"7. c #C6B020",
"8. c #C9B320",
"9. c #DFC51C",
"0. c #EECD00",
"q. c #F0CF04",
"w. c #EFD00E",
"e. c #F1D103",
"r. c #F3D30B",
"t. c #E8CB12",
"y. c #E2C71F",
"u. c #E3C91F",
"i. c #EFD117",
"p. c #EFD218",
"a. c #F9D912",
"s. c #F0D31C",
"d. c #F7DA1D",
"f. c #FDDE1B",
"g. c #DEC422",
"h. c #E2C720",
"j. c #E4CA21",
"k. c #F0D320",
"l. c #FFE421",
"z. c #FFE826",
"x. c #FCE02A",
"c. c #FEE333",
"v. c #F3DB47",
"b. c #F4DE4C",
"n. c #F4DF57",
"m. c #F5DF58",
"M. c #FCE557",
"N. c #FCE65B",
"B. c #F9E461",
"V. c #FEE968",
"C. c #FDEA70",
"Z. c #FCEC8B",
"A. c #FEEF91",
"S. c #FDEE9B",
"D. c #FEF0A5",
/* pixels */
") ` ` ^ m n n m I ! E I D D C D V V Z N m V N N |  . .( 6 8 8 5 n n n M / { { | / Q ! E N N N V T | | [ 9 u 6 u o.$.$.;.x c c x ",
") ) ` W m n n m I / / I D Z Z D N N Z N m V V N X.R  .( 6 8 8 5 n n n M / { { Q Q Q Q E N N N V | | | T 9 x x x o.#.#.X.n c c c ",
"U ) ` W m n m V Q E Q I D Z Z C Z Z Z N m m m m [ T  .! 6 5 8 8 n n n n / { { { Q Q Q E N V V V U | | U 9 u 6 x X.$.$.X.n z z b ",
") ` ` W N n n m ! Q Q U D D D D N N Z N V M V N X. . .! u 5 y 5 n m n m / { { { ! ! ! ( N N N N T  . .T x 5 9 x X.;.o.` m c x c ",
"M M M M C E E ~  .o.o.T x 5 5 y m c m m D E E E C N J A N S S V N V m m ( { Q Q ( | | ( m m m N o.$.>. .x 5 9 9 m N m Z D ^ W W ",
"M M M M L E E E R @.@...5 5 5 8 b b m m W ! ! ! ~ C C D D D D Z C V N C ( | Q { | X.-.( m m m N o.1.>...x 5 5 9 m N m m E ! I I ",
"M M M M E E ~ ~ ...... .5 5 8 5 m b m n W I Q ! C C L D C Z D Z N C N C ( | { | X.X.X.( m m m m o.$.>...x 5 8 9 m S N N E E I W ",
"M M M M ~ C ~ ~ o...$...l 5 l y c c m n W I I E E C C C D Z D S C C C C ( { Q { | | | ( m m m m o.$.$. .x x 9 x m N m m ^ Q I W ",
"n m n m x x x v / / =./ { { { K l l l l l 5 8 x ` X.X.` m c c n T T T T I ^ ^ ^ ~ ~ L ~ D D Z Z  .X.#.X. . .o.T 8 5 8 0 a A D D ",
"m N m m x x x x L P { L { { | { l l y l l 5 y l X.X.X.X.p c c n T T T X.W ^ ^ ^ ~ L L ~ D Z Z D X.X.#.$.......T y 5 5 8 A D C C ",
"n n n m x x x x L L / L { { | ] l l y y y 5 y l | X.X.-.u u c c T T T X.^ &.^ ~ L L Q ~ D D Z D X.| | X...<.....8 8 8 8 A A I E ",
"m m m m x x x x / ~ / L | | | { x y y y y 5 5 y ` *.*.` m n n n U T U ) I E E E ~ ~ ~ D A A N A #.| #.#.X.X.o. .x 5 5 u D D D N ",
"( ( ( ~ C V V V m m m M E Q E E m m m m m m m m y y y u V D D C x x x x 8 0 0 0 n m m C Q | | X.| | | { E D D A T T 2.` x u x b ",
"| | { / N C m m n m n m ^ ( ^ ^ m m m m m m M n l k q 5 &.~ L J y y y y 5 5 5 8 m V m m Q | | | | | | | ~ C D D @. .o.o.x l z l ",
"Q { Q / N C m V n m n m ^ W ^ ~ m m m m m m m m q k l y D J J E x y y u 5 8 5 8 m m m m | | | { { Y Y { ~ V D D o.X.<.<.x y l y ",
"Q Q Q / C V V V m m n m ^ ( E ( N Z m m m m m m l l l x C E E C x x x x 8 0 8 8 m m V m | Y { { | { Y { E C V N o...<.T v l l l ",
"z z c v m n n n c c c n X. .R  .) T ) T ! | ! ! I / ] { m m m m X.X.X.X.W D D I :.$.$.-.m n V m X.| | X.n n n m $.>.>.>.M M M m ",
"z z x x v x x n c c c n X. .R  . . .T T ! | ! ! ] P K ] M m m m ;.$.$.o.! ^ W W >.3.1.;.m v B V | | | | n c v m X.$.>.>.C V V V ",
"x x x x v n n n c c c n X.X. .X.T T T T ! | | ! K { K { M m n V X. .#.o.W ^ W ! $.3.$.;.M B x B | | #.| n x c m >.>.3.;.C M m m ",
"c u x x u x x x c c c m ` X.X.X.T T T X.! ( ( ! Q =.Q E M M M 3 - - - : = 7 D W >.>.$.;.M M n m | | X.( m n n n ;.>.>.-.C V V V ",
"Z Z D D m n m n y l y 5 M i i M | | | ! M M M M 5 5 5 6 C L C > @ @ @ @ @ = 5 u Q Q { | Q ! | | M m m C C / E I C N C C m m m m ",
"A A A Z p p n n l l l x n i i n | | X.| M M m M l 4 5 5 ~ M + h g.g.g.g.g.f o 4 { Q { { | | X.[ V m n M J Q Q J C N N C V V V V ",
"A N A A p n m n l l l x n n n n { { | =.M M V M 8 y l 8 E n . j l.a.f.l.l.j   4 Q Q { { | | | | V V N C J K K I C C C C V m m m ",
"I N A D n n m c u y 5 x n n n n { { | | M C C M 8 y 8 8 C x $ G f.e.d.c.l.G $ 2 C Q / { { | | | M m m m J Q I I N M N C V m m V ",
"#.+.+.:.M V V M M m M V u x x x V Z S D I W E I T [  . ., & 8.t.r.f.N.Z.c.k.7.% ; L K L n x x x x x x x M M B M x l l x x x x x ",
"%.+.+.+.M V m M M C C V u x x x V Z S V A I D I  . . .X.- # j.a.w.M.Z.S.c.l.u.# - K J J n x x x u x x x m M M B x l l l l l l x ",
"%.%.%.:.M M V m M C V m u 6 x x N Z S V I I E !  .T  . .- # j.a.p.Z.D.S.c.l.y.# - I E C u u x x u x x x n M M n l y y l l y y y ",
"| #.+.| M M M m V V V m u u u u V S V N W I I I  . . .X.- # j.a.q.x.C.S.c.l.y.# - E ~ C n u u x u u x x M M M M x l l u x x x x ",
"M M M C C L L L n n n m V V V V l y l x T ..o...1.1.1.$.; # j.a.w.N.Z.S.c.l.h.# * n n m D ^ W W M M M M / =.=.&.x x x x x x x x ",
"V m m m C L J J m n n n D D V V l l 8 x T @...R 3.3.3.3.; # j.a.i.Z.D.S.c.f.9.# = n n m D ) W I N M M N { =.=.{ v x x x x x x x ",
"n m m V L L J ~ n n n n D D V V l l l x T @.o.o.1.1.1.1.; # j.a.q.x.C.S.s.e.6.O = m m m D I I I N M M N | | | { v x x x x x x x ",
"M m m M L L C L m m N n D V V V y l l x X...X.o.1.1.1.1.; # j.a.q.f.V.S.p.0.6.O * x v n W ) W W C C V M { | | Q n v v v x x c c ",
"5 8 8 5 V C J L X.| | =.Q Q { { | R R  .! ` ` W $.$.#.$.= # j.a.q.f.V.S.p.0.6.O * x 0 x X.@.>.;.[ Q { E x l l x ) T ) ) A D A A ",
"5 8 8 5 C N L C | | { =.Q | ! Q | | | X.! ` ) ) 1.@.@.o.= # j.a.q.f.V.S.p.0.6.O * y 8 6 >.>.>.>.| / { ( l y y y ) T T ` I A A W ",
"5 8 8 5 V C C C | :.=.-.Q ! Q | X. . . .! ! ! W ..@.@.o.= # j.a.0.r.B.S.p.0.6.O * l l 6 ;.#.#.@.] { { | 5 5 y l ) X.X.` A A A D ",
"5 5 8 5 C C C C | =.&.( { ] I | | | | | ! ) ! ! $.$.$.o.- # j.a.0.0.m.S.p.0.6.O * 8 8 x -.3.>.o.| ! Q E u y 5 5 ) ` ` ^ D A D D ",
"m m b n ` ) ) ! 6 5 5 u | | #. .I ] ] {  ... . .| ! ! | - # j.a.0.0.m.S.p.0.6.O - L ~ V u 5 y l 9 6 6 u D ! ! ! m m m m N m N m ",
"n m b n ) ) ) ) l 4 y 5 X.+.#.| I L L I o.o.o.o.| ( ( | ; # j.a.0.0.m.S.p.0.6.O - J L ~ 8 l z l l u 5 6 ` | Q I m n n n V N V N ",
"m m m n ) U ) ) 5 5 l y | R |  .Q Q Q Q #.@. .X.Q ! ` ( ; # j.a.0.0.m.S.p.0.6.O : L P L 8 l y y 5 y 5 6 ! ! / | m n m m V m N m ",
"m m V n ) ) ) ) 6 l 5 6 | O.R  .K K L K X. . .X.[ ! ) ! ; # j.a.0.0.m.S.p.q.6.O - L J C x l y l 9 u 8 u I I Q I m n m n V m N m ",
"| ! T ) A D D A N V m M | | | { x x x u *.) ` ` J C C A c 1 g 5.d.n.n.v.w.4.t , 3 n n n *.X.) ` ~ I I E 6 l l 5 M N N C c c z c ",
"| U [ ) A A D A D V V C | | | Q x 9 9 6 ( ! ) ! C C C A X.D . j c.A.b.0.q.r X m v v x x *.T X.X.( ! ! ~ 5 8 8 5 M N M C c c c c ",
"T | T T I A A A V V V C ! | | ! 9 8 9 6 ( ) T ) E C C E -.D . j z.c.d.e.e.s . m v x x u *.X. .| Q ! ! ~ 8 8 8 l M N N C c c z c ",
"! ! ! ! D D D C V C C J ! ! | Q x x x x ^ W ) ^ J C A I X.^ < e H H F d d w - N x x n m ^ ` ` ` / Q Q ~ u 5 5 5 N N C C n n c c ",
"n i i i x x x x ` X.| | E I I J 5 5 5 5 m n n m | T X.! D C C ; . X X X . * 8 8 C C m m u u u u Q L / / C C D C N N N A N N N N ",
"x 9 6 9 9 9 x x  .$... .I I E N y y l 5 c c c b U T T ) C m V m v v v x 3 4 5 y M C M V 5 l y x { L P / J J J N Z A Z Z N S S S ",
"x x x 9 x x x x |  . . .I E I J y y 8 y c c c b X.T T T V V M C m V M V y y y l C C M V 5 l y y L L P P L J J L Z Z C Z N S Z N ",
"x x u 9 x x 9 9 | X.T  .I E I J l y 8 l c c c c ` T T ` C V M N m C C V y l y y V M C C u x u u Q / =./ L C C C Z N N Z N S D Z ",
"m m m m n n m m x x x x E K L K V M N M I I I I E E E D u 5 5 6 n n n 9 n p n n u x x x ~ ! Q / D A E D u x x u 5 8 8 5 C C J E ",
"m m V m m m m m x x x x L K L J V C C C W W W W / Q E ^ 6 l 8 5 u n n x n n n n 5 x l x ( Q ! ( ~ C J C u x x y y l 5 5 C J J J ",
"M M M m n n m n x x 9 9 L L P L C N C C W W I U E E ~ &.5 5 8 5 n n n x n n n x x x l 6 *.| | | D J E D x l l x 5 4 5 5 C J J J ",
"M M C M n n m n x u 8 9 L L P L C C C C E Q W I ~ ~ D D u 6 6 u u i n n x m n m u x x u ^ Q ! ( D D D V n u u u 5 5 5 5 C J L L ",
"| | X.` W ^ ^ D l y 5 x E Q / Q I I I I | { { { n c c n ~ / Q ( D C C C u x u u ` ` *.^ A C C C C m M C / { { / x l l x V C D D ",
"X.X.X.X.! W ^ W l 5 5 l W ! ( ( U ) ) I | { { { c c z u X.| { | V C C V x x x x ) ) ` ` N M M C N m m M { | | P x x x x V N Z S ",
" .X.X.X.! W ( W l 5 5 8 E Q / ( I U U I { { { { x z c u ! { { | D A N A u x x x ) ) ) ) C M C C m m m M { { { { x l x x V C D D ",
"| | T | ! ( ( W l 5 5 5 E Q / Q I I I I { { | ! m c z n / { | ! D N N D u x x x W ) ) D A N C C M m m m | | { ( v x x x V C D V ",
"8 l l x T @... .x l x x x x n c u x x u C N N C -.-.-.| X.#.#.#.I W I I m n M B l l l l D E D D i n n n | | X.*.{ { { { | | | | ",
"5 y y l ....o.o.c x x x x u x x l l l x V C M N | -.| X.X.#.#.O.I W W I m n n m l y l l D W D D n n x n | T  .X.{ { { { | | | | ",
"k k k 5 <.1.@...x l x x v x c x y l y u V C C C #.#.#.#.#.#.#.#.) ^ W I m m n n l y k l D W D D n n x n |  . .T | | | | | | | | ",
"l l l u ) ....T x u x x x z z x u u u u M M N C -.-.-.-.X.X.X. .I E I W m m n n y y l l A I E A n 6 n M ! T X.X.{ / / { | =.=.=.",
"X.X.-.X.A C Z D m m m m x z x x *.X.X.-.-.-.| | L C C C C C C C  .:.#.| 6 5 5 5 m m V m X. .|  .N M M M C C N N m m m m m m m m ",
"#.#.$.$.m m S V m m m m x z x x X.#.#.#.| | | | C C C V C V V C R | #.| 6 5 5 8 m N S N  .| | | M M M M N N N N m m m m m n m m ",
">.:.#.@.V Z Z m m m M m x z z x | #.#.#.| -.| | C C C V V V C D | +.+.| 5 8 5 5 m N S N  .| | | M M M M N N N N m m N m m m B B ",
"2.>.>.R D N C N m M M m x z z x | X.X.:.| -.*.X.C C C C C C C C | -.#.X.5 5 5 5 m m S N o. .| | M M M N M C N N m N N m m m m B "
};
