/* XPM */
static char *result[] = {
/* columns rows colors chars-per-pixel */
"64 64 69 1 ",
"  c #181818",
". c #191919",
"X c gray10",
"o c gray11",
"O c gray12",
"+ c #202020",
"@ c gray13",
"# c #222222",
"$ c #232323",
"% c gray14",
"& c #252525",
"* c gray15",
"= c #272727",
"- c #282828",
"; c gray16",
": c #2A2A2A",
"> c gray17",
", c #2C2C2C",
"< c #2D2D2D",
"1 c gray18",
"2 c #2F2F2F",
"3 c gray19",
"4 c #313131",
"5 c #323232",
"6 c gray20",
"7 c #343434",
"8 c #353535",
"9 c gray21",
"0 c #373737",
"q c gray22",
"w c #393939",
"e c #3A3A3A",
"r c gray23",
"t c #3C3C3C",
"y c gray24",
"u c #3E3E3E",
"i c #3F3F3F",
"p c gray25",
"a c #414141",
"s c gray26",
"d c #434343",
"f c #444444",
"g c gray27",
"h c #464646",
"j c gray28",
"k c #484848",
"l c #494949",
"z c gray29",
"x c #4B4B4B",
"c c #4C4C4C",
"v c gray30",
"b c #4E4E4E",
"n c gray31",
"m c #505050",
"M c #515151",
"N c gray32",
"B c #535353",
"V c gray33",
"C c #555555",
"Z c #565656",
"A c gray34",
"S c #585858",
"D c gray35",
"F c #5A5A5A",
"G c #5B5B5B",
"H c gray36",
"J c #5D5D5D",
"K c gray37",
"L c None",
/* pixels */
"LLLLLLLLLLLLLLLLLLLLLLLLLLLLLLLLLLLLLLLLLLLLLLLLLLLLLLLLLLLLLLLL",
"LLLLLLLLLLLLLLLLLLLLLLLLLLLLLLLLLLLLLLLLLLLLLLLLLLLLLLLLLLLLLLLL",
"L>>;35344333341::;;;;;;;;;;;;;;;;;;;;;;;;;;:>:;;,->333333334,;,>",
"L>=3aggffdffdzp=,>:::::::::::::::::::::::::-*-><-3xhfffsjxcke>;>",
"L;5tjFDDVNBBBCS66vbxcvbbbbbbbbbbbbbbbbbbbbbkdzNp$dHBBBBZbpszhw,:",
"L;ejNy7emZBBBNDx<lDAGZmMMMMMMMMMMMMMMMMMNASAAHC11ZCBBBBGt%$eVs6=",
"L;9Mc8u#zSNNNNNFw<MDiehdfffffffffffffffgs,pACCe=xDNNNNNA8sr8Ff4-",
"L;9MhfZ;zANNNNNZN1iG25nllllllllllllllllcjo8FZj=rGNNNNNNA9hi9Sd4-",
"L;9mkam;zANNNNNMFd2Ns<5555555555555555555,pJn7<MZNNNNNNA9gi0Sd4-",
"L;9mksm;zANNNNNNBZqtVANBBBBBBBBBBBBBBBBBVZSVp:sFMNNNNNNA9gi9Sd4-",
"L;9mlan;zANNNNNNMDj:dnbzbbbbbblllllkfdgffhju15ZCNNNNNNNA9gi9Sd4-",
"L;9mldB;zANNNNNNNDk+>353443333222221<<1<<1<:4cSNNNNNNNNA0hp9Sf5-",
"L;9mlpv-zANNNNNNNVnjkjkkkkkkkklllllllllllllkmZNNNNNNNNNA8vf8Sf7-",
"L;9Mn=*%xSNNNNNNNMVDAAAAAAAAAAZZZZZZAZZZZZAACNNNNNNNNNNS7717Dd4-",
"L;9vCdpgmVNNNNNNNNNNNNNNNNNNNNNNNNNNNNNNNNNNNNNNNNNNNNNAp::aSd4-",
"L;9xADDDBMNNNNNNNNNNNNNNNNNNNNNNNNNNNNNNNNNNNNNNNNNNNNNNVCCCMf4-",
"L;9cZNNNNNNNNNNNNNMCAZZAAAAAAAAAAAAAAAAAAAAABMNNNNNNNNNNBBBVNd4-",
"L;9cZNNNNNNNNNNNNNBnxcccccccccccccccccccccxcMBNNNNNNNNNNNNNBNd4-",
"L;9cZNNNNNNNNNNNNNSe$>::::::::::::::::::::-;cANNNNNNNNNNNNNBNd4-",
"L;9cZNNNNNNNNNNNNND8X#####################+@xSNNNNNNNNNNNNNBNd4-",
"L;9cZNNNNNNNNNNNNNCfqtttttttttttttttttttttrrnCNNNNNNNNNNNNNBNd4-",
"L;9cZNNNNNNNNNNNNNMAFDFDDDDDDDDDDDDDDDDDDDDDBMNNNNNNNNNNNNNBNd4-",
"L;9cZNNNNNNNNNNNNNAu,56555555555555555555534vZNNNNNNNNNNNNNBNd4-",
"L;9cZNNNNNNNNNNNNND7.#####################O@xSNNNNNNNNNNNNNBNd4-",
"L;9cZNNNNNNNNNNNNNAu<66666666666666666666655vZNNNNNNNNNNNNNBNd4-",
"L;9cZNNNNNNNNNNNNNMCCVVVVVVVVVVVVVVVVVVVVVVVNNNNNNNNNNNNNNNBNd4-",
"L;9cZNNNNNNNNNNNNNAa276666666666666666666656bZNNNNNNNNNNNNNBNd4-",
"L;9cZNNNNNNNNNNNNND7.#####################+@xSNNNNNNNNNNNNNBNd4-",
"L;9cZNNNNNNNNNNNNNAu,44444444444444444444433vZNNNNNNNNNNNNNBNd4-",
"L;9cZNNNNNNNNNNNNNMAHFFFFFFFFFFFFFFFFFFFFFGGVMNNNNNNNNNNNNNBNd4-",
"L;9cZNNNNNNNNNNNNNCkypapppppppppppppppppppiamVNNNNNNNNNNNNNBNd4-",
"L;9cZNNNNNNNNNNNNNF7 $$$$$$$$$$$$$$$$$$$$$+#xSNNNNNNNNNNNNNBNd4-",
"L;9cZNNNNNNNNNNNNNSt*-*===================&*xSNNNNNNNNNNNNNBNd4-",
"L;9cZNNNNNNNNNNNNNNBNzllllllllllllllllllllllMBNNNNNNNNNNNNNBNd4-",
"L;9cZNNNNNNNNNNNNNNVZDFFFFFFFFFFFFFFFFFFFFFFBMNNNNNNNNNNNNNBNd4-",
"L;9cZNNNNNNNNNNNNNAu>45555555555555555555533vZNNNNNNNNNNNNNBNd4-",
"L;9cZNNNNNNNNNNNNND7X#####################O@xSNNNNNNNNNNNNNBNd4-",
"L;9cZNNNNNNNNNNNNNAs<44444444444444444444424vZNNNNNNNNNNNNNBNd4-",
"L;9cZNNNNNNNNNNNNNMZACZZZZZZZZZZZZZZZZZZZZZZBMNNNNNNNNNNNNNBNd4-",
"L;9cZNNNNNNNNNNNNNNBZCBNNNNNNNNNNNNNNNNNNNNNNNNNNNNNNNNNNNNBNd4-",
"L;9cZNNNNNNNNNNNNNAp<42<<<<<<<<<<<<<<<<<<<>,vZNNNNNNNNNNNNNBNd4-",
"L;9cZNNNNNNNNNNNNNF9.@@###################O@zSNNNNNNNNNNNNNBNd4-",
"L;9cZNNNNNNNNNNNNNZg698888888888888888888878bZNNNNNNNNNNNNNBNd4-",
"L;9cZNNNNNNNNNNNNNMAGDFGHGGGGGGGGGGGGGGGHGHGBMNNNNNNNNNNNNNBNd4-",
"L;9cZNNNNNNNNNNNNNNMMMmvcvvvvvvvvvvvvvvvvvcvMBNNNNNNNNNNNNNBNd4-",
"L;9cZNNNNNNNNNNNNNAr-1<>::::::::::::::::::-;cANNNNNNNNNNNNNBNd4-",
"L;9cZNNNNNNNNNNNNND7X+@###################O+zSNNNNNNNNNNNNNBNd4-",
"L;9cZNNNNNNNNNNNNNZktiiiuuuuuuuuuuuuuuuuuuyunCNNNNNNNNNNNNNBNd4-",
"L;9xDFGDNNNNNNNNNNMZFDDDDDDDDDDDDDDDDDDDDDFFBMNNNNNNNNNNNNNBNd4-",
"L;9nmq9sBBNNNNNNNNNNNNNNNNNNNNNNNNNNNNNNNNNNNNNNNNNNNNNNNNNBNd4-",
"L;9Bs*1>NVNNNNNNNNNNNNNNNNNNNNNNNNNNNNNNNNNNNNNNNNNNNNMVSAABNd4-",
"L;9NipV3MVNNNNNNNNNNNNNNNNNNNNNNNNNNNNNNNNNNNNNNNNNNNNZv97rNVd4-",
"L;9Npun3MVNNNNNNNMVDAAAAAAAAAAAAAAAAAAAAAAAASVMNNNNNNNDd;9=mCd4-",
"L;9Npyb3MVNNNNNNNAk8wwqqqwwwqqqqqqqqqqqqqww9qMCNNNNNNNSarB3nCd4-",
"L;9Npyb3MVNNNNNNNFd+45,<2344<,322231>,,,,265&sFNNNNNNNSarm3nCd4-",
"L;9Npyb3MVNNNNNNNSy8BFZCZCZZZZZZZZAAZZZZZZSbq<MZNNNNNNSaen2nCd4-",
"L;9Npyb3MVNNNNNMDx2kvpiiiiiiiiiiiiiiiiiiiuxCd<yFNNNNNNSaen2bZf3-",
"L;9NipV2MVNNNNNVZ50A81uyuyyyyyyyyyyyyyyyi63Abe<vANNNNNSptV3vZg3-",
"L;9Ba,0,NVNNNNNGu-xF5qczxzzzzzzzzzzzzzzzbi5VCg,qDBNNNNDs3p:bSk5=",
"L;0Nb2<yVBNNNNAm-rZAzipaaaaaaaaaaaaaaaaaaijVANt,jDNNNNAz,,9ZMg8-",
"L-5dVJFFZZZZZAD96VFCGKHHHHHHHHHHHHHHHHHHHJHZZGn74VDZZZZCBAFmgw>:",
"L::ejnxxzzzzzcl230988888888888888888888888888093=pmxxxzcvbvgw;;>",
"L>-3e890000009w3=&&&&&&&&&&&&&&&&&&&&&&&&&&&&%*-:7w00000q0e0;;,>",
"L>>::;::::::::::>>>>>>>>>>>>>>>>>>>>>>>>>>>>>>>>>::>>>>>>>>;:>>>"
};
