/* XPM */
static char *result[] = {
/* columns rows colors chars-per-pixel */
"64 64 73 1 ",
"  c #161616",
". c gray9",
"X c #191919",
"o c gray10",
"O c #1B1B1B",
"+ c gray11",
"@ c #1D1D1D",
"# c #1E1E1E",
"$ c gray12",
"% c #202020",
"& c gray13",
"* c #222222",
"= c #232323",
"- c gray14",
"; c #252525",
": c gray15",
"> c #272727",
", c #282828",
"< c gray16",
"1 c #2A2A2A",
"2 c gray17",
"3 c #2C2C2C",
"4 c #2D2D2D",
"5 c gray18",
"6 c #2F2F2F",
"7 c gray19",
"8 c #313131",
"9 c #323232",
"0 c gray20",
"q c #343434",
"w c #353535",
"e c gray21",
"r c #373737",
"t c gray22",
"y c #393939",
"u c #3A3A3A",
"i c gray23",
"p c #3C3C3C",
"a c gray24",
"s c #3E3E3E",
"d c #3F3F3F",
"f c gray25",
"g c #414141",
"h c gray26",
"j c #434343",
"k c #444444",
"l c gray27",
"z c #464646",
"x c gray28",
"c c #484848",
"v c #494949",
"b c gray29",
"n c #4B4B4B",
"m c #4C4C4C",
"M c gray30",
"N c #4E4E4E",
"B c gray31",
"V c #505050",
"C c #515151",
"Z c gray32",
"A c #535353",
"S c gray33",
"D c #555555",
"F c #565656",
"G c gray34",
"H c #585858",
"J c gray35",
"K c #5A5A5A",
"L c #5B5B5B",
"P c gray36",
"I c #5D5D5D",
"U c gray38",
"Y c None",
/* pixels */
"YYYYYYYYYYYYYYYYYYYYYYYYYYYYYYYYYYYYYYYYYYYYYYYYYYYYYYYYYYYYYYYY",
"2<2q877777777777777777777777777777777777677777777777777777789112",
"1<yjzllllllllllllllllllllllllllllllllllzxlllllllllllllllllzlhe>1",
"<ehMHHSDGAFHSSHADHSAHFAGGAFHFAAAAZSGSSHDDHFAFHSSHSSHDAGFAGHFzdw<",
"4pmHCNZZBAVNZZNAZNZANVAVBZCNVAAAAAZBZZNZZNVSVNZZNAANCABVABBSSca2",
"4pCLu%Mk>Ay&nc=Vh#xV*rG54Se&tGAZZGn;bx$cn*qS9=Mx%Mn%pD,rA21MLVi3",
"4pBLr@Mj=Ar@bx$BfOxV#wH22Gq+eHAZZGb%vxOxn#8S6%Nz+nn@uD-eS,:MKMi3",
"3pBLy%Mk:At$nx&Bg#xV&rG45Fw$tGZZZGn=bx#cn&0S8*Nx$mn$pD>rS1<NJMi3",
"4pBLy%Mk:Sy$nx&Bg#xV&rG45Fw$tGZZZGn=bc#cn&0S8*Nx$mn$pD>rS1<NJMi3",
"3pBLr+Mj*SrObz#BfXxV#wG12F0OeHAZZHb$vxXzn@7S6#Nz+mbOuF=wS>:MKMi3",
"3pBKp=Ml<Si=nc;Vj&cV;yG67Fr=uGZZZGn:nc&cm-wSq:Bx=Mn=sD1yS44BJMi3",
"3pBDZVZZCZCCZZCAZVZACCZCCZCCZZZZZZZCZZCZZCCZCCZZCZZCZZCCACCZDMi3",
"4pBSSFAADZSFAAFZAFAZFSZDDZSFSZZZZZAFAAFAZFSZDFZAFAAFSZDSZDDZDMi3",
"3pBDZZZZZZZZZZZZZZZZZZZZZZZZZZZZZZZZZZZZZZZZZZZZZZZZZZZZZZZZDMi3",
"4dSLHHHHHHHHHHHHHHHHHHHHHHHHHHHHHHHHHHHHHHHHHHHHHHHHHHHHHHHHLZa3",
"38wreeeeeeeeeeeeeeeeeeeeeeeeeeeeeeeeeeeeeeeeeeeeeeeeeeeeeeeerq62",
"3qagddddddddddddddddddddddddddddddddddddddddddddddddddddddddga92",
"4dSLHHHHHHHHHHHHHHHHHHHHHHHHHHHHHHHHHHHHHHHHHHHHHHHHHHHHHHHHPAs3",
"3pBDZZZZZZZZZZZZZZZZZZZZZZZZZZZZZZZZZZZZZZZZZZZZZZZZZZZZZZZZDMi3",
"3pNDAAAZZZZZZZZZZZZZZZZZZZZZZZZZZZZZZZZZZZZZZZZZZZZZZZZZZAAADMi3",
"4pNFGFHFCZZZZZZZZZZZZZZZZZZZZZZZZZZZZZZZZZZZZZZZZZZZZZZZGGFFFMi3",
"3pZC948BLZZZZZZZZZZZZZZZZZZZZZZZZZZZZZZZZZZZZZZZZZZZZCAPx44tFBi3",
"3pSc7a2<nFZZZZZZZZZZZZZZZZZZZZZZZZZZZZZZZZZZZZZZZZZZZAFh;wg0CVi3",
"3pSlgUC33SSZZZZZZZZZZZZZZZZZZZZZZZZZZZZZZZZZZZZZZZZZZFM-tJPaNBi3",
"3pSzaJGp6ZSZZZZZZZZZZZZZZZZZZZZZZZZZZZZZZZZZZZZZZZZZZFb1cHZpBBi3",
"4pSzaHFp6ASZZZZZZZZZZZZZZZZZZZZZZZZZZZZZZZZZZZZZZZZZZFn1zGAiBBi3",
"3pSzaJDi6ASZZZZZZZZZZZZZZZZZZZZZZZZZZZZZZZZZZZZZZZZZZFb1lGAiBBi3",
"3pSzaJDi6ASZZZZZZZZZZZZZZZZZZZZZZZZZZZZZZZZZZZZZZZZZZFn1lGAiBBi3",
"3pSzaJDi8SAZZZZZZZZZZZZZZZZZZZZZZZZZZZZZZZZZZZZZZZZZZFn2lGAiBBi3",
"4pSzaJDi7SAZZZZZZZZZZZZZZZZZZZZZZZZZZZZZZZZZZZZZZZZZZFm2lGAiBBi3",
"4pSzaJDi7AAZZZZZZZZZZZZZZZZZZZZZZZZZZZZZZZZZZZZZZZZZZFm2lGAiBBi3",
"4pSzaJDi7AAZZZZZZZZZZZZZZZZZZZZZZZZZZZZZZZZZZZZZZZZZZFm2lGAiBBi3",
"3pSzaJDi7AAZZZZZZZZZZZZZZZZZZZZZZZZZZZZZZZZZZZZZZZZZZFm2lGAiBBi3",
"3pSzaJDi7AAZZZZZZZZZZZZZZZZZZZZZZZZZZZZZZZZZZZZZZZZZZFm2lGAiBBi3",
"3pSzaJDi7AAZZZZZZZZZZZZZZZZZZZZZZZZZZZZZZZZZZZZZZZZZZFm2lGAiBBi3",
"3pSzaJDi7AAZZZZZZZZZZZZZZZZZZZZZZZZZZZZZZZZZZZZZZZZZZFm2lGAiBBi3",
"3pSzaJDi7AAZZZZZZZZZZZZZZZZZZZZZZZZZZZZZZZZZZZZZZZZZZFm2lGAiBBi3",
"3pSzaHFi7AAZZZZZZZZZZZZZZZZZZZZZZZZZZZZZZZZZZZZZZZZZZFm2lGAiBBi3",
"3pSzaHFp6ASZZZZZZZZZZZZZZZZZZZZZZZZZZZZZZZZZZZZZZZZZZFn2zGAiBBi3",
"4pSzaPGt5ASZZZZZZZZZZZZZZZZZZZZZZZZZZZZZZZZZZZZZZZZZZGb<zHApBBi3",
"3pSzgIV7rHZZZZZZZZZZZZZZZZZZZZZZZZZZZZZZZZZZZZZZZZZZZSA5tGIaNBi3",
"3pSv3q62MGZZZZZZZZZZZZZZZZZZZZZZZZZZZZZZZZZZZZZZZZZZZZKg:wa9CVi3",
"4pZV874pGZZZZZZZZZZZZZZZZZZZZZZZZZZZZZZZZZZZZZZZZZZZZZDAw53tFBi3",
"4pNFFFFFAZZZZZZZZZZZZZZZZZZZZZZZZZZZZZZZZZZZZZZZZZZZZZCAGFFFDMi3",
"3pNDAAAAZZZZZZZZZZZZZZZZZZZZZZZZZZZZZZZZZZZZZZZZZZZZZZZZAAAADMi3",
"3pBDZZZZZZZZZZZZZZZZZZZZZZZZZZZZZZZZZZZZZZZZZZZZZZZZZZZZZZZZDMi3",
"3pBDZZZZZZZZZZZZZZZZZZZZZZZZZZZZZZZZZZZZZZZZZZZZZZZZZZZZZZZZDMi3",
"3sSLHHHHHHHHHHHHHHHHHHHHHHHHHHHHHHHHHHHHHHHHHHHHHHHHHHHHHHHHPZa3",
"3rgjggggggggggggggggggggggggggggggggggggggggggggggggggggggggkdw3",
"3698777777777777777777777777777777777777777777777777777777778742",
"4aCHDDDDDDDDDDDDDDDDDDDDDDDDDDDDDDDDDDDDDDDDDDDDDDDDDDDDDDFAGCp3",
"3pBFAAAAAAAAAAAAAAAAAAAAAAAAAAAAAAAAAAAAAAAAAAAAAAAAAAAAAAAAFNi3",
"3pBDZASZZDZZDAZSSZSSZADAZDAZSAZZZZZASSZASZADAZSSZSAZSSZSSZSSFMi3",
"3pBDZSSZZDZZDAZSSZSSZADAZDAZSAZZZZZASSZASZADAZSSZSAZSSZSSZSSFMi3",
"3pBFDu1Nn1Nb>hS5yZ05Ch>kC2sD6hHZZZHk10Sf2Ax:xZ2uS8sZ60SruZ6rGNi3",
"3pBGD5OmcOMc.pD&7Z>&Cp.sC@eD=pKZZZKd+>Sy+Ah kZ@8S-eZ*>S38A*1FBi3",
"3pBFD9&Mv&Nv#dD:qZ3>Cd@fC=yD,sJZZZJg*3Sp*Ak@lZ=wS<yZ,3S8wA>5FBi3",
"3pBFD9&Mv&Nv#dS:qZ3>Cd@fV*yD,sJZZZJg*3Si*Ak@lZ=wS<yZ,3S8wA>5FBi3",
"3pBFD9$Mv%Nv@sS;0Z2:Cs+dC&yD:sJZZZJg&2Si&AkOlZ*0S,tZ:2S7qA>4FBi3",
"4pCHD8#Mc#McOsD-9C<;CsofC$tF:sJZZZKf$1St%AjolZ&0S>rZ;1S60S;3HCi3",
"3azDGBnSAnSAbCFmBSMMDCbZSnVFMCFDDDFCnNDBmDZbADmBFMVDmMDNBFmBFxp3",
",wgcCADVVDNBDZNSZBSSBCDVNDZMSCMBNNMVSSBCSNVFVNSZNSZNSABSABDFbfu<",
"1<ugaaaaaaaaaaaaaaaaaaaaaaaaaaaaaaaaaaaaaaaaaaaaaaaaaaaaaaaasp3<",
"2<18544444444444444444444444444444444444444444444444444444445212"
};
