/* XPM */
static char *_1ea19ae8fcc4321bb0babad63eed63bElsScqNolY6c4k5d[] = {
/* columns rows colors chars-per-pixel */
"64 64 152 2 ",
"   c #3F5F1D",
".  c #3D641E",
"X  c #3E691D",
"o  c #3E6421",
"O  c #3F6A21",
"+  c #3E6628",
"@  c #415F1F",
"#  c #41651E",
"$  c #426B1E",
"%  c #43721E",
"&  c #49721F",
"*  c #4F7C1F",
"=  c #415F21",
"-  c #426521",
";  c #486724",
":  c #436B22",
">  c #496D23",
",  c #476C29",
"<  c #4A6D29",
"1  c #467223",
"2  c #4A7425",
"3  c #477A25",
"4  c #4C7B25",
"5  c #467328",
"6  c #4C7529",
"7  c #4D7B29",
"8  c #507725",
"9  c #517C26",
"0  c #517729",
"q  c #527C2A",
"w  c #4D8226",
"e  c #4E8A26",
"r  c #4E832A",
"t  c #4F892A",
"y  c #538326",
"u  c #598627",
"i  c #548A26",
"p  c #588C27",
"a  c #5B8E27",
"s  c #5A8B26",
"d  c #508128",
"f  c #528028",
"g  c #538129",
"h  c #508229",
"j  c #518229",
"k  c #50802A",
"l  c #51812B",
"z  c #51832A",
"x  c #548029",
"c  c #55812A",
"v  c #54802B",
"b  c #57812B",
"n  c #55832B",
"m  c #56822B",
"M  c #528528",
"N  c #538429",
"B  c #528529",
"V  c #52842B",
"C  c #53842B",
"Z  c #53862A",
"A  c #52872B",
"S  c #548529",
"D  c #54852A",
"F  c #55862A",
"G  c #55862B",
"H  c #54872B",
"J  c #50802C",
"K  c #52822C",
"L  c #55812C",
"P  c #56822D",
"I  c #50852D",
"U  c #53852C",
"Y  c #51862E",
"T  c #54852C",
"R  c #54862D",
"E  c #55862D",
"W  c #56872C",
"Q  c #55872E",
"!  c #56872E",
"~  c #53842B",
"^  c #58852A",
"/  c #58842B",
"(  c #5A852B",
")  c #59862B",
"_  c #59852C",
"`  c #58842D",
"'  c #5A852C",
"]  c #59872D",
"[  c #59852B",
"{  c #51882B",
"}  c #548A28",
"|  c #558B29",
" . c #568A28",
".. c #578B29",
"X. c #53882C",
"o. c #52892C",
"O. c #538A2D",
"+. c #54892D",
"@. c #57882C",
"#. c #57882D",
"$. c #578A2E",
"%. c #558B2C",
"&. c #588A29",
"*. c #588C28",
"=. c #598D28",
"-. c #598D29",
";. c #5A8C29",
":. c #588C2A",
">. c #598D2B",
",. c #5B8D2A",
"<. c #5D8D2A",
"1. c #5C8E2B",
"2. c #58892D",
"3. c #598B2C",
"4. c #588B2F",
"5. c #5A8B2F",
"6. c #5C8B2F",
"7. c #588E2C",
"8. c #5B8F2D",
"9. c #5B8D2E",
"0. c #5D8F2C",
"q. c #5C8E2D",
"w. c #5D8F2E",
"e. c #5C8E2F",
"r. c #5A8C2C",
"t. c #579027",
"y. c #56922B",
"u. c #5D902B",
"i. c #5E912A",
"p. c #5A912C",
"a. c #5B922D",
"s. c #5C902C",
"d. c #5D912F",
"f. c #5C932E",
"g. c #5E922E",
"h. c #5C912C",
"j. c #56982C",
"k. c #548130",
"l. c #598531",
"z. c #568B30",
"x. c #598C30",
"c. c #5C8D31",
"v. c #5D8F30",
"b. c #5B8C31",
"n. c #569230",
"m. c #5F9331",
"M. c #5D9131",
"N. c #608E2C",
"B. c #60922F",
"V. c #61932E",
"C. c #608E32",
"Z. c #619431",
/* pixels */
"/ ` ` P 2 1 1 2 y S h y q q 7 q 6 6 8 4 2 6 4 4 +.;.;.R X o o . 1 1 1 3 U X.X.+.U B S B 4 4 4 6 &.%.%. .O $ X $ q.g.g.c.: > > : ",
"/ / ` v 2 1 1 2 y U U y q 9 9 q 4 4 8 4 2 6 6 4 3.a ;.R X o o . 1 1 1 3 U X.X.B B B B B 4 4 4 6 %.%.%.s O : : : q.p.p.3.1 > > > ",
"u / ` v 2 1 2 6 B h B y q 9 9 7 8 8 8 4 2 2 2 2  .s ;.S X . o o 1 1 1 1 U X.X.X.B B B B 4 6 6 6 u %.%.u O $ X : 3.g.g.6.1 ; ; < ",
"/ ` ` v 4 1 1 2 S B B u q q q q 4 2 8 4 6 3 6 4 3.;.;.S $ . # . 1 2 1 2 U X.X.X.S S S R 4 4 2 4 &.;.;.s : . O : 3.c.q.` 2 > : > ",
"3 3 3 3 7 h h K ;.q.q.s : . . # 2 > 2 2 q h h h 7 4 7 9 4 0 0 6 4 6 2 2 R X.B B R +.+.R 4 2 2 4 q.g.M.;.: . O O 2 4 2 9 q P v v ",
"3 3 3 3 r h h h a u.u.<.. . . o < < 2 2 v S S S K 7 7 q q q q 8 7 6 4 7 R +.B X.+.3.x.R 4 2 2 4 q.V.M.<.: . . O 2 4 2 2 h S y y ",
"3 3 3 3 h h K K u.u.<.<.. . o . 2 < 2 1 v y B S 7 7 r q 7 8 q 9 4 7 4 7 R +.X.+.3.3.3.R 2 2 2 2 q.g.M.<.: . o O 2 0 4 4 h h y v ",
"3 2 3 3 K 7 K K q.<.g.<.- . - # > > 2 1 v y y h y 7 7 7 q 9 q 0 7 7 7 7 R X.B X.+.+.+.R 4 2 2 2 q.g.g.;.: : O : 2 4 2 2 P B y v ",
"1 2 1 2 : : : , U U z.U X.X.X.r - - - - - . o : ` 3.3.` 2 > > 1 &.&.&.&.y P P P K K r K q q 9 9 ;.3.p.3.;.;.q.&.o . o + * 9 q q ",
"2 4 2 2 : : : : r t X.B X.X.%.X.- - # - - . # - 3.3.3.3.& > > 1 &.&.&.3.v P P P K r r K q 0 9 q 3.3.p.g.<.<.<.&.. . . o 9 q 7 7 ",
"1 1 1 2 : : : : r r U r X.X.%.M - - # # # . # - +.3.3.b.$ $ > > &.&.&.3.v P P P r r r K q q 9 q 3.%.%.3.<.N.<.<.o o o o 9 9 y h ",
"2 2 2 2 : : : : U K U r +.%.+.X.: # # # # . . # ` ` l.` 2 1 1 1 u s u / y v h h K K K q 9 9 4 9 p.%.p.p.3.6.q.;.: . . $ q q q 4 ",
"R R R K 7 6 6 6 2 2 2 3 h B h h 2 2 2 2 2 2 2 2 # # # $ 6 q q 7 : : : : o + + + 1 2 2 7 B %.%.3.%.%.%.X.h q q 9 &.;.C.` : $ : < ",
"+.+.X.U 4 7 2 2 1 1 1 2 P R P P 2 2 2 2 2 2 3 1 - = @ . k.K r r # # # # . . . o 2 6 2 2 B %.%.%.%.%.%.+.K 7 q q a.;.<.<.: - ; - ",
"B X.B U 4 7 2 6 1 2 1 2 P v P K 2 2 2 2 2 2 2 2 @ = - # q w w h : # # $ . o . o 2 2 2 2 %.%.%.X.X.i i X.K 6 q q q.3.N.N.: # - $ ",
"B B B U 7 6 6 6 2 2 1 2 P R B R 2 8 2 2 2 2 2 2 - - - : 7 h h 7 : : : : o + o o 2 2 6 2 %.i X.X.%.X.i X.h 7 6 4 q.<.N.s , - - - ",
"; ; > : 2 1 1 1 > > > 1 3.;.a ;./ &./ &.S %.S S y U M X.2 2 2 2 3.3.3.6.v q q y n.g.g.x.2 1 6 2 3.%.%.3.1 1 1 2 g.M.M.M.3 3 3 2 ",
"; ; : : , : : 1 > > > 1 3.;.a ;.;.;.s &.S +.S S M t e M 3 2 2 2 c.g.g.q.S P v v M.Z.V.c.2 , 5 6 %.%.%.+.1 > , 2 3.g.M.M.7 6 6 6 ",
": : : : , 1 1 1 > > > 1 3.3.;.3.&.s s &.S +.%.S e O.e X.3 2 3 7 3.;.p.q.v P v S g.Z.V.v.3 5 : 5 %.%.p.+.1 : > 2 M.Z.Z.c.7 3 2 2 ",
"> $ : $ $ : : : > > > 2 ` 3.3.3.&.&.&.3.S R R S B z.B h 3 3 3 3 q.q.g.M.q q q v M.Z.g.c.3 3 1 2 +.%.3.R 2 1 1 1 c.M.M.x.7 6 6 6 ",
"9 9 q q 2 1 2 1 # - # . 3 % % 3 %.%.%.S 3 3 3 3 . . . X 7 h t r / &.&./ $ $ $ $ B B X.+.B B +.+.3 2 2 7 7 U B y 7 4 7 7 2 2 2 2 ",
"9 9 9 9 & & 1 1 - - - : 1 % % 1 +.+.3.+.3 3 2 3 -   . . K r B w ` 6.` ` $ # # $ X.B X.X.%.%.3. .6 2 1 7 w B B w 7 4 4 7 6 6 6 6 ",
"9 4 9 9 & 1 2 1 - - - : 1 1 1 1 X.X.+.+.3 3 6 3 o # - o h w r w ` ` 3.` $ : : : B B X.X.%.%.%.%.6 6 4 7 w w w y 7 7 7 7 6 2 2 2 ",
"y 4 9 q 1 1 2 > $ # . : 1 1 1 1 X.X.%.+.3 7 7 2 o # o o h t r w / / / ` $ - - $ B B U X.X.%.%.%.3 2 2 2 w B y y 4 3 4 7 6 2 2 6 ",
"p.y.y.n.3 6 6 3 3 2 3 6 $ : : : 6 9 0 q y v h y &. .;.;.B B B B 6 5 1 5 : O O : w w w r 1 : : : : : : : 3 3 5 3 : - - : : : : : ",
"j.y.y.y.3 6 2 3 7 7 7 6 $ : : : 6 9 0 q 9 y q y ;.;.;.3.B S B y 6 1 1 1 : O O O w w w 7 1 : : : $ : : : 2 3 3 5 : - - - - - - : ",
"j.y.j.n.3 3 6 2 3 7 6 2 $ X : : 4 9 0 6 y y h S ;.&.;.;.B S B B 1 1 1 1 : o : : w y B 7 % $ : : $ : : : 1 3 3 1 - # # - - # # # ",
"%.p.y.%.3 3 3 2 6 6 6 2 $ $ $ $ 6 0 6 4 v y y y ;.;.;.3.S S S B 1 1 1 : : X X : w h K 7 1 $ $ : $ $ : : 3 3 3 3 : - - $ : : : : ",
"3 3 3 7 7 r r r 1 1 1 2 6 6 6 q - # - : &.<.q.<.V.V.V.V.%.` ` S 1 : : 1 q h h q 1 1 1 2 q P v v 3 3 3 4 U z.z.U : : : : : : : : ",
"6 2 2 2 7 r w w 2 1 1 1 q q q 6 - - o : &.u.<.a Z.Z.Z.Z.&.3.` / 1 , : $ h y y y 5 1 1 2 q / v y 4 3 3 4 X.z.z.X., : : : : : : : ",
"1 2 2 6 r r w K 1 1 1 1 q q 6 6 - - o : &.u.q.q.V.V.V.V.&.` ` / : , , 1 y y y y 2 2 2 2 q y y y 4 3 3 4 +.%.+.X., : : : : : : : ",
"3 2 2 3 r r 7 r 2 2 2 1 q 6 6 6 # - - : 3.<.3.q.V.V.V.V.&.` ` / 1 , , : v y y h 1 : , 1 v / v v 7 7 6 3 X.+.+.B 1 , , , : : > > ",
". o o . 6 7 w r 3.+.%.z.B B X.X.%.p p ;.S ` ` v g.g.u.g.4 6 6 3 3 2 3 1 7 3 4 7 : : + : 3.a.M.M. .B X.B : - - : / &./ / 9 q 9 9 ",
". o o . 7 4 r 7 %.%.O.z.X.%.S B %.%.%.;.S ` / / V.u.u.q.7 0 6 2 3 3 5 3 4 3 3 3 X # o X M.m.m.M.+.U X.R - # # # / &.&.` y 9 9 v ",
". o o . 6 7 7 7 %.n.z.x.B S B +.3.3.p.;.S S S S <.u.V.q.4 4 6 6 3 5 5 3 4 4 4 3 o - - X M.p.p.u.M X.X.+.. . # - / 6.6.` 9 9 9 q ",
". . o . 7 7 7 7 +.z.z.+.X.M y %.%.%.%.%.%./ S S g.g.g.q.7 4 3 7 3 3 2 3 2 2 3 3 : o o : b.Z.M.q.%.S B h $ # . . / ` ` P q 9 q q ",
"2 > < 1 ` / / S X . . $ %.%.p.;.y M M X.;.<.<.;.%.S S +.S z.z.R 2 2 2 2 $ : , , w r K 6 $ . # - O X X $ q S S S 2 2 2 2 4 2 4 2 ",
"1 2 < 1 / / / / -   # . 3.y.p.%.y r r M q.q.q.q.+.+.R +.+.%.+.X.4 4 4 2 $ - : : w w r K o - ; - - $ . X ` %.B y 2 1 1 1 6 4 6 4 ",
"2 2 2 1 / u / / . . - # +.p %.;.B B B B p.u.<.3.B S ` R X.X.+.3.7 4 4 4 $ : : : r r t r o - # # . # . X S S U %.2 1 2 2 6 2 4 2 ",
"2 2 6 1 / / / / X - . X %.t.p ;.w w r w 3.;.<.3. .S / S +.+.+.+.7 7 4 4 $ : , : 7 r w 7 : - # - O $ o $ y y B y 2 2 2 1 6 2 4 2 ",
"%.S &./ 9 q q 9 4 6 2 3 +.%.+.X.: : : $ l./ ` ` y 7 7 9 q.6.c.b.;.s <.&.y w B y 1 1 1 1 l.3./ ` K y y h X - - . 3 4 4 7 > > ; > ",
"%.u  ./ 9 9 q 9 q 6 6 7 +.%.%.B : O O X R S / S 7 7 7 9 3.6.6.c.3.;.<.;.X.B X.y , , : : x.&.3.3.R S S K . o o . 3 4 3 7 > > > > ",
"&.%.&.&.y 9 9 9 6 6 6 7 S %.+.S O o o X R / &./ h 7 7 h b.C.q.6.3.%.;.;.X.X.X.B , : : $ x.3.;.%.B S S K o o o - 3 4 4 7 > > ; > ",
"S S S S q q q 9 6 7 7 w S S %.B : : : : P v / P w 7 9 y 3.b.b.6.&.a ;.;.y B y y : : 1 2 P ` ` ` U B B K $ . . . 4 4 7 7 1 1 > > ",
"1 % % % : : : : 3.3.%.%.B y y w . . . . 2 1 1 2 +.&.&.S q 7 7 7 6 7 6 6 O o o o 7 7 2 2 $ $ $ $ B r U U 7 6 q 7 4 4 4 9 4 4 4 4 ",
": O X O O O : : ;.g.<.;.y y h 4 # # - . > > > < u s s &.7 2 6 6 6 6 6 6 # . . # 3 7 3 6 . - # : X.r t U w 7 7 4 9 9 9 9 4 0 0 0 ",
": : : O : : : : %.;.;.;.y h y w # # o # > > > < 3.;.s &.6 6 3 7 2 6 3 6 # # # - 7 7 3 6 . - # # r r t t r 7 w 7 9 9 7 9 4 0 8 4 ",
": : $ : : : O O +.3.&.;.y h y w - # o - > > > > ` &.&.3.7 6 3 4 2 7 7 7 # - # # 6 3 7 7 $ : $ $ B X.z.U r 7 7 7 8 4 4 9 4 0 q 8 ",
"2 2 2 2 1 1 2 2 : : : : h w r w 6 3 4 4 y y y y h B h q $ . . X 1 1 1 O 1 & 1 1 $ : : : K S B U q 9 h q $ : : $ . o o . 7 w w h ",
"2 2 6 2 2 2 2 2 : : : : r w r w 6 7 7 7 v v v u U B h P X - o . $ 1 1 : 1 1 1 1 . : - : R B S +.K 7 w 7 $ : : # # - . . 7 w w w ",
"3 3 3 2 1 1 2 1 : : O O r r t r 7 4 7 7 v v y u K h K k.. . o . 1 1 1 : 1 1 1 : : : - X l.+.%.+.q w h q : - - : #   . . 7 w w w ",
"3 3 7 3 1 1 2 1 : $ o O r r t r 7 7 7 7 B B v y K K q q $ X X $ $ % 1 1 : 2 1 2 $ : : $ P B S R q q q 6 1 $ $ $ # . . . 7 w r r ",
"3.3.3.` v P P q - # . : h B U B y u u y +.X.X.X.1 > > 1 K U B R q 7 7 7 $ : $ $ ` ` l.P 9 7 7 9 7 2 3 7 U X.X.U : - - : 6 7 q q ",
"3.3.3.3.S v P v - . . - v S R R u / / y %.O.O.X.> > ; $ 3.%.X.%.6 9 7 6 : : : : / / ' ' 4 3 3 7 4 2 2 3 X.%.%.t : : : : 6 4 9 q ",
";.3.3.3.S v R v - . . o v B U R y u u y O.O.O.X.: > > $ S X.X.%.q 9 4 9 $ : : : / / ( / 7 3 7 7 2 2 2 3 X.X.X.X.: o : : 6 7 q q ",
"%.%.&.+.S R R v - . . . h B U h y y y y X.O.+.S 2 > ; 1 U X.+.S q 4 4 q $ : : : q v / q 9 4 7 7 3 2 2 2 +.+.X.R , : : : 6 7 q 6 ",
"o - - : s u.<.;.: - : : : : 1 > $ : : $ 7 4 4 7 x.x.x.%.3.p.p.p.y v y y 2 1 3 5 - - - - q h q q % 1 1 1 +.&.3.x.X.X.X.X.%.%.%.%.",
". # # - <.<.q.q., : : : : $ : : - - - : 6 7 3 7 %.x.y.3.3.p.p.t.y v v y 2 1 1 2 - # - - q v q q 1 1 : 1 +.;.;.3.O.X.X.O.%.%.%.%.",
"- = = . N.V.u.<.: - : : , : > : # - # $ 6 6 7 7 p.p.p.p.p.p.p.p./ P v y 2 2 1 1 - # = - q v q q 1 1 : 1 +.;.;.&.+.+.+.%.%.%.%.%.",
"- - - $ / <.<.s : $ : : : ; ; : $ $ $ $ 3 3 3 7 x.x.x.x.3.3.3.;.y h y v 2 2 1 1 # # - - 9 y h 9 % X 1 % S &.3.3.U U U X.+.z.z.z.",
"3.3.x.3.9 7 9 q 2 2 2 2 : ; : : x.3.3.x.x.x.z.%.r 7 7 7 7 7 7 7 ;.n.p.+.X . . . 2 2 6 2 3.;.3.;.4 3 3 3 7 7 4 4 2 3 2 2 2 2 2 2 ",
"p.p.f.g.2 2 0 6 2 2 2 2 : ; : : 3.p.p.p.%.z.%.%.7 7 7 6 7 6 6 7 p %.p.%.X . . o 2 4 0 4 ;.%.%.%.3 3 3 3 4 4 4 4 2 2 2 2 2 1 2 2 ",
"M.n.p.u.6 8 9 2 2 2 3 2 : ; ; : %.p.p.p.%.x.%.%.7 7 7 6 6 6 7 q %.y.y.%.. o . . 2 4 0 4 ;.%.%.%.3 3 3 3 4 4 4 4 2 2 4 2 2 2 5 5 ",
"C.M.M.a q 4 7 4 2 3 3 2 : ; ; : %.3.3.n.+.b.x.3.7 7 7 7 7 7 7 7 %.x.p.3.. . . . 2 2 8 4 q.;.%.%.3 3 3 4 3 7 4 4 2 4 4 2 2 2 2 5 "
};
