/* XPM */
static char *debb1d80baf04fadb45398cecfb0f352I2lB1TUolemGHm7u[] = {
/* columns rows colors chars-per-pixel */
"64 64 64 1 ",
"  c None",
". c #202020",
"X c gray13",
"o c #222222",
"O c #232323",
"+ c gray14",
"@ c #252525",
"# c gray15",
"$ c #272727",
"% c #282828",
"& c gray16",
"* c #2A2A2A",
"= c gray17",
"- c #2C2C2C",
"; c #2D2D2D",
": c gray18",
"> c #2F2F2F",
", c gray19",
"< c #313131",
"1 c #323232",
"2 c gray20",
"3 c #343434",
"4 c #353535",
"5 c gray21",
"6 c #373737",
"7 c gray22",
"8 c #393939",
"9 c #3A3A3A",
"0 c gray23",
"q c #3C3C3C",
"w c gray24",
"e c #3E3E3E",
"r c #3F3F3F",
"t c gray25",
"y c #414141",
"u c gray26",
"i c #434343",
"p c #444444",
"a c gray27",
"s c #464646",
"d c gray28",
"f c #484848",
"g c #494949",
"h c gray29",
"j c #4B4B4B",
"k c #4C4C4C",
"l c gray30",
"z c #4E4E4E",
"x c gray31",
"c c #505050",
"v c #515151",
"b c gray32",
"n c #535353",
"m c gray33",
"M c #555555",
"N c #565656",
"B c gray34",
"V c #585858",
"C c gray35",
"Z c #5A5A5A",
"A c #5B5B5B",
"S c gray36",
"D c #5D5D5D",
"F c gray37",
/* pixels */
"                                                                ",
" ==#1e9999999999999999999999999999999999999999999999999999996>==",
" =#1pyyyeeeeeeyyyyyyyyeeeeeeeeyeeeeeeeeeeeeeeeeeeeeeeeeeeeyyp9==",
" =>ppxxvvxxxvvvvvvvvvvvxxxxxvvvvvvvvvvvxxxxxxvvvvvvvvvvvxvxhpp6#",
" =ehy9y6pCMMMhyyyyyyyypvMMMMMhyyyyyypyyvMMMMCMhyyyyyypypCp6y6yy>",
" =9he9F96CMMp>=>>>>1=1pMvvMMp>=>==>1=>evMvvMMp1=>=>>1=>yF96v1yy1",
" =9hp6y1eFMp>=9eyye1>pMMvMMp>#9yeyy6=evMvvMMp1#6yyye9>evCy>16hy1",
" =9yvxphMMp>=exCvp6>pMMvMMh>#eMMCMe>eMMvvMMh1#6xCCh9>eMMvMvvMpe1",
" =9yvMMCMp>=exCMp1>pMMvMMh>OyCMMMe=eMMvvMMh>#6xCCh6=eMMvvvMMMhe1",
" =9yvvMMp>=9xCMy1>yMMvMMh>OeMMMM9=evMvvMMh1#6hCMh6>evMvvvvvMChe1",
" =9yvMMp>=evCvy1>yMMvMMh1OeCMMM9=eMMvvMMh1#6xCMh6>eMMvvvvMMpxhe1",
" =9yvMp>=evCvy1>yMMvMMh1OeCMMM9=evMvvMMh1#6xCCh6=evMvvvvMMh6phe1",
" =9yvp>=yMCvy1>yMMvMMh1OeCMMM9=eMMvvMMh1#6hCMh6>evMvvvvMMh1>hhe1",
" =9pv9=yMCvy1=yMMvMMh1OeCMMM9=eMMvvMMh1#6hCMh6=evMvvvvvMh6O>xhe1",
" =9pv61pCvy1=yMMvMMh1OeCMMM9=9vMvvMMh1#6hCCh6=evMvvvvMMh1=>>xhe1",
" =9pv6>hvy1=yMMvMMh1OeCMMM9=eMMvvMMh1#6hCMh6=evMvvvvMMh1#e9=xhe1",
" =9pv61py1=eMMvMMx1OeCMMM9=9vMvvMMh1#6hMCh6=evMvvvvMMh1#9h1=xhe1",
" =9pv61p6=eMMvMMh6#yCMMM9=9vMvvMMh1#6hCCh6=evMvvvvMMh1#6vx1=xhe1",
" =9pv669=eMMvvMh1OyCMMv9=evMvvMMh1#6hCCh6=9vMvvvvMMh1#6xFx1=xhe1",
" =9pv9=>9vMvvMx1OeCMMM9=9vMvvvMh1#6hMCh6=9vMvvvvMMh1#6xCvy16hhe1",
" =9pv6#evMvMMh1OyCMMM9=9vMvvvMx1#6hCCh6=evMvvvvMMh1#6xCMe>9yvhe1",
" =9px99vMvvMx1OyCvMv9=9vMvvvMx6#6hCCx6=9vMvvvvMMh6#6xCMy>6exCpe1",
" =9yvxvMvvMx1OyCMMv9=9vMvvvMx6#6hMMh6=9vMvvvvMMh1#6xCMe>6exMMpe1",
" =9yvMMvvMx6OyCvMM9=9vMvvvCx1O1hCCx6=9vMvvvvMMh1O6xCMe>6exMvMpe1",
" =9yvvvvMx6OyCvMv9=9vMvvvMx6#1hMCx9=9vMvvvvMMh1#6hCMy>6exMvvMpe1",
" =9yvvvMx1OyFvMv6=9vMvvvMx6#6hMMx6=9vMvvvvMMh1#6xCMy>6exMvvvMpe1",
" =9yvMMx6OyCMMv9=9vMvvvCx6#1hMCx6=9vMvvvvMMh1#6xCMy>1exMvvvMMpe1",
" =9yvCx6#yFMMv9=9vMvvvMx6#1hMCx6=9vMvvvvMMh1#6hCMy>6exMvvvvvMpe1",
" =9yMx6OyFvMv9=9vMvvvMx6#6hMCx9=9vMvvvvMMh1#6hCMy>6exMvvvMhevhe1",
" =9pve=9MMMv9=6vMvvvMx6#1hMCx9=9vMvvvvMMh1#6hCCy>1exMvvvMx61xhe1",
" =9pv6=pvMv9=9vCvvvMx6#1hMMx6=9vMvvvvMMh1#6hCCy>1exMvvvMh6>1vhe1",
" =9pv6=yMv9=9vCvvvMx6#1hMCx6=6xMvvvvMMh1#6hCMp>1exCvvvMx61e6vhe1",
" =9pv6=yv9=9vMvvvMx6#1hMCx9=9vMvvvvMMh1#6hCMy>1yxMvvvMx6>hy1vhe1",
" =9pv6=p9=9vMvvvMv6O1hMCx6=9vMvvvvMMh1#6hCCy=1evMvvvMx6>pCp>vhe1",
" =9pv6>e=9xMvvvMv9#1hMCx9=6xMvvvvMMh1#6hCCp>1exMvvvMx6>yMCy1vhe1",
" =9pv9=>9vMvvvMx6#1hMCx9=9xMvvvvMMh1#6hCMy>1yxMvvvMx6=yMMCp1vhe1",
" =9pv6#6xMvvvCv9O1hMCx6#6xMvvvvMMh1#6hCCp=1exCvvvMx6=eMMMM9>vhe1",
" =9pv96xMvvvMv9#1hMCv9=6xMvvvvMMh1#6hCCp>1exMvvvMx6=eMMMMe=6vhe1",
" =9yvhxMvvvMx6#1hMCx9=9xMvvvvMMh1#6hCCp=1exMvvvMx6=eMMMMe#1xChe1",
" =9yvMMvvvMv9#1hMCv9=6xMvvvvMMh1#6hCCp=>exMvvvMx6=evMMMy=1xMMpe1",
" =9yvvvvvMv9#1hMCv9=6xMvvvvMMh1#6hCCp>>exMvvvMx6=eMMMMe=1xMvMpe1",
" =9yvvvvMv9#1pMCv9=6xMvvvvMMh1#6pMCp>>exMvvvMv9=9vMMMy#1xCvvMpe1",
" =9yvvvMv9#>pMCv9=6xMvvvvMMh1#6hMCp>>exMvvvMv9=9vMMMy=1hMMvvMpe1",
" =9yvMMv9#1pMCv9#6xMvvvvMMh1#6pCCp>>exMvvvMv6=9vMMMp>1xMvvMMMpe1",
" =9yvCve#1pMCv9#6xMvvvvMMh1#6pMCh>>exMvvvMv9=6vMMMy=1xMvvMvyvhe1",
" =9yMv9#1hMCv9=6xMvvvvMMp1#6pMCh>>exMvvvMv9=9vMMMy=1hMvvMMy1xhe1",
" =9pve=1hMCv9#6xMvvvvMMh1#6pMCh>>exCvvvMv9=6vMMMp=1hMvvMMp=>vhe1",
" =9px1#evCv9=6xMvvvvMMh1#6pMCh>>exMvvvMv9=6xMMMp=1hMvvMMy>=6vhe1",
" =9px1#eMv9=6xMvvvvMMh1#6pMCh==exMvvvMv9=6xMMCp=>hMvvMMp=>e6vhe1",
" =9px1#eve#6xMvvvvMMh1#6pMCh>=exMvvvMv9=6xMMMp=1hMMvMMp>=ye1vhe1",
" =9px1=ye=6xMvvvvMMp1#9pMCh>=exMvvvMv9=6xMMMp=1hMvvMMy>=evy1vhe1",
" =9px1=e=1xMvvvvMMh1#6pMCh>=exMvvvMve=6xMMCh=>hCvvMMp>#9vCe1vhe1",
" =9px6#=6xMvvvvMMh1#6pMCh>=exMvvvMv9=6xMMMh>1hMMvMMp>#evMCy>vhe1",
" =9px1#6hMMvvvMMh1#6pMCh>=exMvvvMv9=6xMMMh>>hMMvMMp>#9vMCv1>xxe1",
" =9px11hMMvvvMMh1#6pMFh>=exMvvvMve=6hMMMh>>hMMvMMp>O9vMCx>=yMhe1",
" =9ph9hMMvvvMMp1#9hMFh>=exMvvvMv9=6hMMMh>>hMMvMMp>#9vCCh>=pMCpe1",
" =9yvMCCvvvMMp6=eyxMx>#9xMvvvMM9=6xCMCh>>hMMvMMp>#eMCCh>=hFFCpe1",
" =9yvpeyvvMMp6=9yeee1=exMvvvMve>9pvvvx1>hMMvMMp1=9hvvh>>phe9hhe1",
" =9hy9x6yCvp6O#>===#=exMvvvMve#1e99991>pMMvvvp>O1e999>>hM1ye9he1",
" =epe9v6yFx9>>>>>>>>9xMvvvMMy1>11111>1pMMvvMh6>>1111>1pCv>pp9py6",
" =epe999xMvhphhhhhhpxMMvvvMvyepyyyyyyhMMvvvMvhxxxhhhhxMMMpeeehe=",
" =>ppphhpyyppppppppppyyyyyyyyyyyyyyyypyyyyyyypppppppppyyyhhhxy==",
" >#1yyeeeeeeeeeeeeeeeeeeeeeeeeeeeeeeeeeeeeeeeeeeeeeeeeeeeeeye===",
" ===>1>>11111111111>1111111>11111111>>1111111111111111111111===="
};
