/* XPM */
static char *result[] = {
/* columns rows colors chars-per-pixel */
"64 64 52 1 ",
"  c #161616",
". c #181619",
"X c #1A151D",
"o c #191925",
"O c #252831",
"+ c #272A33",
"@ c #2E303B",
"# c #2F313C",
"$ c #373B44",
"% c #3A3E48",
"& c #3D414B",
"* c #3E424C",
"= c #3F434D",
"- c #3F434E",
"; c #40444F",
": c #414550",
"> c #424651",
", c #434751",
"< c #444852",
"1 c #454953",
"2 c #454954",
"3 c #464A55",
"4 c #474B56",
"5 c #474B57",
"6 c #484C58",
"7 c #494D59",
"8 c #4A4E5A",
"9 c #4B4F5B",
"0 c #4C505C",
"q c #4D515C",
"w c #4E525D",
"e c #4F535E",
"r c #4F535F",
"t c #4F5460",
"y c #505561",
"u c #515662",
"i c #525763",
"p c #535864",
"a c #545965",
"s c #555A66",
"d c #565A66",
"f c #575B67",
"g c #575C68",
"h c #585D69",
"j c #595E6A",
"k c #5A5F6B",
"l c #5A5F6C",
"z c #5B606D",
"x c #5C616E",
"c c #5D626F",
"v c #5E6370",
"b c #5F6471",
/* pixels */
"$7225  $@@@#@ &62222222222222222222222222222222241  ,:;;;:,  57&",
"<bghl$8zhhhlf 1vggggggggggggggggggggggggggggggggzpO#fiuuuuf$ zb6",
":guidX       +,huuuuuuuuuuuuuuuuuuuuuuuuuuuuuuuuat  XX    X *sg2",
">laip9-;:;;;;<eauuuuuuuuuuuuuuuuuuuuuuuuuuuuuuuuuiputttttttuiuf6",
":uquushggggglxgsddddddddddddddddddddddddddddddddddgghsipppppiuf8",
" # 2fuuuuuusq6877777777777777777777777787777777777776iayuuuuupk9",
" w5;fuuytug2                                        .#jpyuuuuuy1",
" y7>fuutpf> *1<<<<<<<<<<<<<<<<<<<<<<<<<<<<<<<<<<<<<1: :juyuid$ #",
" t6>futad* ;*%%%%%%%%%%%%%%%%%%%%%%%%%%%%%%%%%%%%%%#;;.5kyuid 68",
" t6>fuspX < O                                      . %& qgyiaXq8",
" t6>fai  > .&1>>>>>>>>>>>>>>>>>>>>>>>>>>>>>>>>>>>>>2$ =$ tsiaXq7",
" t6>fg; 5  9hfdddddddddddddddddddddddddddddddddddddgh= 1  aaaXq7",
" t6>fg& 4 @lappppppppppppppppppppppppppppppppppppppihr :# uaaXq7",
" i9>fg= 3  -**======================================-$ >@ iaaXr9",
" <-;gg= 3  #########################################$  >@ iap 07",
" ;$8sg= 3  suyyyyyyyyyyyyyyyyyyyyyyyyyyyyyyyyyyyyyyys9 :@ iaf + ",
"<zdayg= 3  fapppppppppppppppppppppppppppppppppppppppfw :@ ipa5*#",
":guuug= 3 Xkgffffffffffffffffffdffffffffffffffffffffkr :@ ipydve",
":guuug= 3  432222222222222222222222222222222222222225: >@ ipuuf7",
":guuug= 3                                              ,@ ipuuf7",
":guuug= 3  twqqqqqqqqqqqqqqqqqqqqqqqqqqqqqqqqqqqqqqqt5 :@ ipuuf7",
":guuug= 3  hdssssssssssssssssssssssssssssssssssssssshe :@ ipuuf7",
":guuug= 3  jdsssssssssssssssssssssssssssssssssssssssje :@ ipuuf7",
":guuug= 3  :;;;;;;;;;;;;;;;;;;;;;;;;;;;;;;;;;;;;;;;;>& >@ ipuuf7",
":guuug= 3                                              >@ ipuuf7",
":guuug= 3  dapppppppppppppppppppppppppppppppppppppppfq :@ ipuuf7",
":guuug= 3 Xkfsssssssssssssssssssssssssssssssssssssssje :@ ipuuf7",
":guuug= 3  :=***************************************-$ >@ ipuuf7",
":guuug= 3  $$#######################################$  >@ ipuuf7",
":guuug= 3  fpiiiiiiiiiiiiiiiiiiiiiiiiiiiiiiiiiiiiiiifq :@ ipuuf7",
":guuug= 3  fapppppppppppppppppppppppppppppppppppppppfq :@ ipuuf7",
":guuug= 3 Xlgfffffffffffffffffffffffffffffffffffffffly :@ ipuuf7",
":guuug= 3  ;---------------------------------------->& >@ ipuuf7",
":guuug= 3                                              ,@ ipuuf7",
":guuug= 3  siuuuuuuuuuuuuuuuuuuuuuuuuuuuuuuuuuuuuuuud0 :@ ipuuf7",
":guuug= 3  fapppppppppppppppppppppppppppppppppppppppfw :@ ipuuf7",
":guuug= 3  kgdddddddddddddddddddddddddddddddddddddddkt :@ ipuuf7",
":guuug= 3  422222222222222222222222222222222222222224: >@ ipuuf7",
":guuug= 3                                              >@ ipuuf7",
":guuug= 3  ueqqqqqqqqqqqqqqqqqqqqqqqqqqqqqqqqqqqqqqqt5 :@ ipuuf7",
":guuug= 3  gdsaaaaaaaaaaaaaaaaaaaaaaaaaaaaaaaaaaaaaahe :@ ipuuf7",
":guuug= 3 Xkfdddddddddddddddddddddddddddddddddddddddkr :@ ipuuf7",
":guuug= 3  422222222222222222222222222222222222222225: >@ ipuuf7",
":guuug= 3                                              >@ ipuuf7",
":guuug= 3  twqqqqqqqqqqqqqqqqqqqqqqqqqqqqqqqqqqqqqqqy5 :@ ipuuf7",
":guuug= 3  hdaaaaaaaaaaaaaaaaaaaaaaaaaaaaaaaaaaaaaaahe :@ ipuuf7",
":guuug= 3 Xkgfffffffffffffffffffffffffffffffffffffffkt :@ ipuuf7",
":guuug= 3  21<<<<<<<<<<<<<<<<<<<<<<<<<<<<<<<<<<<<<<<3- >@ ipuuf7",
":guuug= 3                                              >@ ipuuf7",
"1bduug= 3  uw000000000000000000000000000000000000000r5 :@ ipuuk9",
"@,8pug* 3 @ldsssdssdddsssssssssddsddssssddsdssssdddsjy :@ ipuip<",
"   apf@ 6  ahdddsddsdddddddddddsddddddddddddddddddddk9 >@ ipsq  ",
"2y upd4 ->  &$$$#$$###$$$$$$$$$##$##$$$$##$#$$$$###$$  <$ uad4Xp",
"3r upih- >=                                           @<  ipd3;h",
"2e ypupg% <2<<<<<<<<<<<<<<<<<<<<<<<<<<<<<<<<<<<<<<<<<2, %spud3;d",
"3e ypuysf@ &&%%%%%%%%%%%%%%&&&&&&&&&&&&&&&&&&&&&&&&&** :gsuud3;d",
"3e upuuydp                                            2jpyuud3;d",
"5i upuuuyapwrrrrrrrrrrrrrrrwwwwwwwwwwwwwwwwwwwwwwwweqwdiyuuud2>z",
"$% aiuuuuupssaaaaaaaaaaaaaasssssssssssssssssssssssssddiuiiuuf6 3",
" -4ppgffffffgsyuuuuuuuuuuuuuuuuuuuuuuuuuuuuuuuuuyssiippapsayse  ",
"<vfiu:       4suuuuuuuuuuuuuuuuuuuuuuuuuuuuuuuuud1 $%$@XX 5duig7",
":gud0 :;*==:  guuuuuuuuuuuuuuuuuuuuuuuuuuuuuuuuuf &fyyeei @juik,",
"<cdkt ihdddl;#zfffffffffffffffffffffffffffffffffz* 5<1235 ;cffv<",
" ;*=&         -*********************************- .o....o X;**; "
};
