/* XPM */
static char *_4355dd6427e4fe1a76b9c10b25e47ffhu9ORIJwC9DXG1gf[] = {
/* columns rows colors chars-per-pixel */
"64 64 72 1 ",
"  c #010101",
". c #070807",
"X c #0B0C0B",
"o c #0F100F",
"O c #141414",
"+ c #171817",
"@ c #1A1A1A",
"# c #1F201F",
"$ c #242424",
"% c #272827",
"& c #2B2B2B",
"* c #2F312F",
"= c #343534",
"- c #373937",
"; c #3A3B3A",
": c #3F413F",
"> c #414341",
", c #474947",
"< c #4B4D4B",
"1 c #4E504E",
"2 c #535453",
"3 c #565956",
"4 c #575A58",
"5 c #5A5C5B",
"6 c #626262",
"7 c #6B6B6B",
"8 c #6F706F",
"9 c #747574",
"0 c #777877",
"q c #7B7C7B",
"w c #7F807F",
"e c #858685",
"r c #878887",
"t c #8C8E8D",
"y c #8F908F",
"u c #8F9190",
"i c #919291",
"p c #949694",
"a c #959795",
"s c #969997",
"d c #979B98",
"f c #989A99",
"g c #999C9A",
"h c #9B9E9B",
"j c #9DA09D",
"k c #A2A4A2",
"l c #A2A5A3",
"z c #A3A5A3",
"x c #A5A7A5",
"c c #A6A9A7",
"v c #A7AAA8",
"b c #A8AAA8",
"n c #ABAEAB",
"m c #ABAFAC",
"M c #ACAFAD",
"N c #ACB0AD",
"B c #AFB3B0",
"V c #B0B3B0",
"C c #B0B4B1",
"Z c #B3B7B4",
"A c #B6B9B6",
"S c #B7BBB8",
"D c #B8BAB8",
"F c #BBBEBB",
"G c #BBBFBC",
"H c #BCBFBD",
"J c #BEC1BF",
"K c #BFC3C0",
"L c #C0C3C0",
"P c #C0C4C1",
"I c #C3C7C4",
"U c #C4C8C5",
/* pixels */
"UUUUUUUUUUUUUUUKieeeeeew<:>>>>>>>>>1CUUUUUUUUUUJteeq<>>1CUUJteee",
"UIIIIIIIIIIIIIIJieeeeeew<:>>>>>>>>>1CUIIIIIIIIIJteeq<>>1CUIHteee",
"UIIIIIIIIIIIIIUJieeeeeee<>>>>>>>>>>1CUIIIIIIIIUJteeq<>>1CUIJteee",
"UIIIIIIILKKKKKKFrqqqeeeq2<<<<<<,>>><NPKKKKKJJJJAteeq,;;<NPJSteee",
"UIIIIIIKgiiiiiir=@@@,1<4jNmmmmMl2>>,eiiiiiit09997776@XX@eiiyeeee",
"UIIIIIIKieeeeeeq+  .->:<CUUUUUUF4>>,qeeeeeee66666664X  X9eeeeeee",
"UUUUIIUKieeeeeeq@  .->><NUIIIIUF4>>,qeeeeeee66666664X  O9eeeeeee",
"FFFFJKKFueeeqqq9@..X><<4CUIIKKKZ2;;>9qqqeeee66665553O..+9eeeeeee",
"4445eiiureeq&@@@=-->gNNNKIIKfiie$.XX@@@$0eee5342@OO+=---<<<2qeee",
">>:,0eeeeeeq@  .->><VUUUIIIJyee0+      X9eee533<X  .->>>>>>,qeee",
">>>,0eeeeeeq@  .->><NUIIIIUJyeeq+      X9eee533<X  .->>>>>>,qeee",
">>>,9qqqqqq9@..X><<4NLJJJJKFyeeq+   ...O7qq0312,O..X><<<<<<20eee",
">>>:$@@@@@@@=-->gNNnaiiiiiiyreeq+  .*---@@@@OOO+=-->allllllf4<<<",
">>>;X      .->><BUUKyeeeeeeeeeeq+  .->>;.      .->>1cDAAAADb1:>>",
">>>;X      .->><NUIJueeeeeeeeeeq+  .->>;.      .->><cAAAAAAb1>>>",
"<<<,@OOO....->><NUIJueeeeeeeqqq9@..X><<,@OOOOOO@;>><lCCCCCCx1>>>",
"NNNNvccj<---:>><NUIJueeeeeeq&+@@=-->jBNNcccccccg1>>,etttttte<>>>",
"UUUUUUUG4>>>>>><NUIJueeeeeeq+  .->>1CUUUUUUUUUUA3>>,qeeeeeeq,>>>",
"UIIIIIUF4:>>>>><NUUJieeeeeeq@  .->:<CUIIIIIIPPPA2:>,qeeeeeeq,>>>",
"UIIIKJKA5,,,>>><nKJFyeeeeeeq@  .><<4CUIIKJJJJHJC4,,<qeeeqqq9,;;;",
"UIIKfyitq009<>>,eiiyreeeeee0@  OsVNCPIIJsyuytrrrq00qeee0%+@+XXXX",
"UIIKieeeeeee<>>,0eeeeeeeeee0@  +nUUUIIIJteeeqqqqeeeeeee0O       ",
"UIUKieeeeeee<>>,0eeeeeeeeee0+  +nUUUIIUJyeeeeqqeeeeeeee0O       ",
"JJJFueeeeeee<>>,9ewwqqqqqqq9@..@lFFFJJJFteeeewweeeeeeee0@XXX....",
"iyyyreeeeeee<>>><<<,$+@@@@@@=--;2445riyyreeeeeeeeeeeeeee9997:---",
"eeeeeeeeeeee<>>>>>>;.      .->>>>>:,0eeeeeeeeeeeeeeeeeeeeerq<>>>",
"eeeeeeeeeeee<>>>>>>;.      .->>>>>>,qeeeeeeeeeeeeeeeeeeeeeeq,>>>",
"eeeeeeeeqqq0<>>><<<,@++O...X->>>>>>,9ewwqqqqeeeeeeeeqqqqeeew3<<<",
"eeeeeeeq&++@;>><jCBBnbnj<--->>>>>>>><<<,$++$0eeeeee0&++$0eernVBB",
"eeeeeeeq@  .->><BUUUUUUF4>>>>>>>>>>>>>>;.  X9eeeeee0O  X9eetJUUU",
"eeeeeeeq@  .->><NUIIIIUF4>>>>>>>>>>>>>>;.  X9reeeer0+  O9eetGUII",
"eeeeq0q9@..X>1<4VUIIJJJZ4>>><<<<<<<<,,,>O..+7qqqqqq8O  O0ttiJIII",
"eeeq&++@=-->gCVCPIIKfyyr1>><jCNNVVCme0q9>---@+++++++   +lGFFPIII",
"eeeq@  .->><NUUUIIIJyeew<>><NUPPUUUJyeew<>>;.          +MUIIIIII",
"eeeq@  .->><NUIIIIUJieee<::<NUPPIUUJyeew<>>;.          +mUIIIIII",
"eeeq#..X>1<4BUIIJJJFe0003<<4nJJJPUUJyeew2,,>O.......O++&nJJJJJJJ",
"eeee,-->gCCCPIIKftye&++$gCNNattaGUIJyeeeqqq9>------,gnncayyyyyyy",
"eeee1>><NUUUIIIJyeeq+  OcUUJyeetFUIJyeeeeeew<>>>>>>1ZUUJteeeeeee",
"eeee<:>,NUIIIIUKieeq+  OcUPJyeetFUUJyeeeeeeq<>>>>>>1CUUJteeeeeee",
"ewwq4<<3nJJJJJJFyeeq+  +cUPJyeetAJJDteeeeeeq,;;;>>><vFSCteeeeeee",
"<<<2jCCNatyyyyytreeq@  +cUPJyeeetyyteeeeeee0@.XO;>>>2335weeeeeee",
">>><NUUPieeeeeeeeeeq@  +cUPJyeeeeeeeeeeeeee0+  .->>>>>:,qeeeeeee",
">>><MUUKieeeeeeeeeeq@  +cUPJyeeeeeeeeeeeeer0+  .->>>>>>,qreeeeee",
">>>,lFSZteeeeeeeeeeq@  OlJJAteeeeeeeeeeeq008@..O,11<>>>,0eqq0000",
">>>>23335556qeeeeeeq@  X0ytteeeeeeeeeeeq&++@---,lCCc2>>><<<,@+++",
">>>>>>>>2334qeeeeeeq@  X9eeeeeeeeeeeeee0+  .->>1CUUA2>>>>>>-.   ",
">>>>>>>>2334qeeeeeeq@  X9reeeeeeeeeeeee0+  .->:<CUUA2:>>>>>-.   ",
"11111111<<<290000009+  X7wqweeeeq0000009%++@,1<4NJJC4,,,>>>;X...",
"CCCCCCCc&.XXO++++++O   .><<2qeeq&O+++++$dMnmCCCNatttqqq9,>>>;---",
"UUUUUUUS$              .->>,qee0+      +nUUUUUUJteeeeeeq<>>>>>>>",
"UIIIIIUA$              .->>,qrrq+      +nUIIIIUJteeeeeeq,>>>>>>>",
"UIIIPLPZ&...+++++++++++@;>>,9008@...+++&NUIPJJJAteeeeeeq2,,,;;;;",
"UIIPNbbl<-->dNmmmmmmmmml2>>;@O+@---,gMmNPIIJattteeeeeeeeqqq8+...",
"UIIPnxxg2>><NUUUUUUUUUUF4>>;.  .->>1CUUIIIIJteeeeeeeeeeeeer9O   ",
"UIUPMxxg2>><NUIIIIIIIIUF4:>;.  .->>1CUIIUIUJteeeeeeeeeeeeer9O   ",
"JJJGcllg2>><NUIPJJJJJJJC5,,>O..X->><xAAAGJJAteeeeeeeeeee0007X   ",
"ttttrrre1>><NUIKstttttttwqq0,--;>>>>1224ettteeeeeeeeeee0$OOO    ",
"eeeeeeee<>><NUIJueeeeeeeeeee<>>>>>>>>>:,qeeeeeeeeeeeeee0O       ",
"eeeeeeee<>><NUUKieeeeeeeeeee<>>>>>>>>>>,qeeeeeeeeeeeeer0O       ",
"eeeeeeee2,,2lAABe99999999999<>>><111,,,19qqqqqqq99999997+.......",
"eeeeeeeeqqq0422<@oOOOOXXOOO+->><lZCNeqq02,,,,,,,@OOOOOX+=-----;;",
"eeeeeeeeeeee<:>;.          .->>1CUUJyeew<>>>>>>;.      .->>>>>>>",
"eeeeeeeeeeee<>>;X          .->><VUIJyeew<>>>>>>;.      .->>>>>>>",
"eeeeeeeeeeee<>>;X          .->><VUIJyeew<>>>>>>;.      .->>>>>>>"
};
